<?xml version="1.0" encoding="utf-8"?>
<svg xmlns="http://www.w3.org/2000/svg" xmlns:xlink="http://www.w3.org/1999/xlink" width="400" height="300" viewBox="0 0 1600 1200">
<defs>
  <clipPath id="clip370">
    <rect x="0" y="0" width="1600" height="1200"/>
  </clipPath>
</defs>
<path clip-path="url(#clip370)" d="
M0 1200 L1600 1200 L1600 0 L0 0  Z
  " fill="#ffffff" fill-rule="evenodd" fill-opacity="1"/>
<defs>
  <clipPath id="clip371">
    <rect x="320" y="0" width="1121" height="1121"/>
  </clipPath>
</defs>
<path clip-path="url(#clip370)" d="
M259.722 1012.06 L1552.76 1012.06 L1552.76 47.2441 L259.722 47.2441  Z
  " fill="#ffffff" fill-rule="evenodd" fill-opacity="1"/>
<defs>
  <clipPath id="clip372">
    <rect x="259" y="47" width="1294" height="966"/>
  </clipPath>
</defs>
<polyline clip-path="url(#clip372)" style="stroke:#000000; stroke-linecap:butt; stroke-linejoin:round; stroke-width:2; stroke-opacity:0.1; fill:none" points="
  262.932,1012.06 262.932,47.2441 
  "/>
<polyline clip-path="url(#clip372)" style="stroke:#000000; stroke-linecap:butt; stroke-linejoin:round; stroke-width:2; stroke-opacity:0.1; fill:none" points="
  530.014,1012.06 530.014,47.2441 
  "/>
<polyline clip-path="url(#clip372)" style="stroke:#000000; stroke-linecap:butt; stroke-linejoin:round; stroke-width:2; stroke-opacity:0.1; fill:none" points="
  797.095,1012.06 797.095,47.2441 
  "/>
<polyline clip-path="url(#clip372)" style="stroke:#000000; stroke-linecap:butt; stroke-linejoin:round; stroke-width:2; stroke-opacity:0.1; fill:none" points="
  1064.18,1012.06 1064.18,47.2441 
  "/>
<polyline clip-path="url(#clip372)" style="stroke:#000000; stroke-linecap:butt; stroke-linejoin:round; stroke-width:2; stroke-opacity:0.1; fill:none" points="
  1331.26,1012.06 1331.26,47.2441 
  "/>
<polyline clip-path="url(#clip370)" style="stroke:#000000; stroke-linecap:butt; stroke-linejoin:round; stroke-width:4; stroke-opacity:1; fill:none" points="
  259.722,1012.06 1552.76,1012.06 
  "/>
<polyline clip-path="url(#clip370)" style="stroke:#000000; stroke-linecap:butt; stroke-linejoin:round; stroke-width:4; stroke-opacity:1; fill:none" points="
  259.722,47.2441 1552.76,47.2441 
  "/>
<polyline clip-path="url(#clip370)" style="stroke:#000000; stroke-linecap:butt; stroke-linejoin:round; stroke-width:4; stroke-opacity:1; fill:none" points="
  262.932,1012.06 262.932,993.162 
  "/>
<polyline clip-path="url(#clip370)" style="stroke:#000000; stroke-linecap:butt; stroke-linejoin:round; stroke-width:4; stroke-opacity:1; fill:none" points="
  530.014,1012.06 530.014,993.162 
  "/>
<polyline clip-path="url(#clip370)" style="stroke:#000000; stroke-linecap:butt; stroke-linejoin:round; stroke-width:4; stroke-opacity:1; fill:none" points="
  797.095,1012.06 797.095,993.162 
  "/>
<polyline clip-path="url(#clip370)" style="stroke:#000000; stroke-linecap:butt; stroke-linejoin:round; stroke-width:4; stroke-opacity:1; fill:none" points="
  1064.18,1012.06 1064.18,993.162 
  "/>
<polyline clip-path="url(#clip370)" style="stroke:#000000; stroke-linecap:butt; stroke-linejoin:round; stroke-width:4; stroke-opacity:1; fill:none" points="
  1331.26,1012.06 1331.26,993.162 
  "/>
<path clip-path="url(#clip370)" d="M225.12 1058.63 Q225.12 1049.34 227.467 1044.28 Q230.74 1036.74 238.46 1036.74 Q240.097 1036.74 241.795 1037.2 Q243.524 1037.64 245.686 1039.33 Q247.878 1041.03 249.206 1043.81 Q251.738 1049.18 251.738 1058.63 Q251.738 1067.87 249.392 1072.9 Q245.964 1080.25 238.399 1080.25 Q235.558 1080.25 232.655 1078.8 Q229.783 1077.35 227.961 1073.86 Q225.12 1068.64 225.12 1058.63 M230.37 1057.86 Q230.37 1067.4 231.049 1071.2 Q231.821 1075.31 233.921 1077.1 Q236.052 1078.86 238.399 1078.86 Q240.931 1078.86 243.03 1076.98 Q245.161 1075.06 245.81 1070.95 Q246.52 1066.91 246.489 1057.86 Q246.489 1049.06 245.871 1045.54 Q245.038 1041.43 242.814 1039.8 Q240.622 1038.13 238.399 1038.13 Q237.565 1038.13 236.669 1038.38 Q235.805 1038.62 234.539 1039.33 Q233.273 1040.04 232.284 1041.8 Q231.327 1043.56 230.864 1046.22 Q230.37 1049.65 230.37 1057.86 Z" fill="#000000" fill-rule="evenodd" fill-opacity="1" /><path clip-path="url(#clip370)" d="M260.601 1077.84 Q259.643 1076.82 259.643 1075.49 Q259.643 1074.17 260.601 1073.21 Q261.558 1072.22 263.009 1072.22 Q264.399 1072.22 265.325 1073.15 Q266.282 1074.04 266.282 1075.52 Q266.282 1076.98 265.263 1077.93 Q264.275 1078.86 263.009 1078.86 Q261.558 1078.86 260.601 1077.84 Z" fill="#000000" fill-rule="evenodd" fill-opacity="1" /><path clip-path="url(#clip370)" d="M274.496 1058.88 Q274.496 1048.94 279.56 1042.85 Q284.625 1036.74 291.14 1036.74 Q294.938 1036.74 297.038 1038.69 Q299.169 1040.6 299.169 1043.56 Q299.169 1045.2 298.212 1045.91 Q297.254 1046.62 296.266 1046.62 Q295.124 1046.62 294.228 1045.85 Q293.333 1045.08 293.333 1043.69 Q293.333 1040.85 296.822 1040.85 Q295.185 1038.32 291.264 1038.32 Q290.059 1038.32 288.824 1038.69 Q287.589 1039.03 285.983 1040.2 Q284.378 1041.37 283.142 1043.23 Q281.907 1045.08 281.043 1048.57 Q280.178 1052.06 280.178 1056.6 L280.178 1058.11 Q282.772 1051.84 288.083 1051.87 Q293.394 1051.87 297.069 1055.92 Q300.744 1059.96 300.744 1065.95 Q300.744 1072.1 296.915 1076.17 Q293.086 1080.25 287.713 1080.25 Q285.304 1080.25 283.112 1079.23 Q280.95 1078.24 278.912 1075.96 Q276.905 1073.67 275.701 1069.29 Q274.496 1064.9 274.496 1058.88 M280.302 1064.56 Q280.302 1070.77 281.444 1073.73 Q281.629 1074.23 282.031 1074.91 Q282.463 1075.59 283.173 1076.48 Q283.914 1077.35 285.119 1077.93 Q286.323 1078.49 287.713 1078.49 Q291.943 1078.49 293.981 1074.38 Q295.062 1072.1 295.062 1065.89 Q295.062 1059.56 293.919 1057.24 Q291.974 1053.32 288.021 1053.32 Q285.366 1053.32 283.513 1055.14 Q281.691 1056.97 280.981 1059.41 Q280.302 1061.85 280.302 1064.56 Z" fill="#000000" fill-rule="evenodd" fill-opacity="1" /><path clip-path="url(#clip370)" d="M492.202 1058.63 Q492.202 1049.34 494.549 1044.28 Q497.822 1036.74 505.542 1036.74 Q507.178 1036.74 508.877 1037.2 Q510.606 1037.64 512.768 1039.33 Q514.96 1041.03 516.288 1043.81 Q518.82 1049.18 518.82 1058.63 Q518.82 1067.87 516.473 1072.9 Q513.045 1080.25 505.48 1080.25 Q502.639 1080.25 499.736 1078.8 Q496.865 1077.35 495.043 1073.86 Q492.202 1068.64 492.202 1058.63 M497.451 1057.86 Q497.451 1067.4 498.131 1071.2 Q498.903 1075.31 501.003 1077.1 Q503.133 1078.86 505.48 1078.86 Q508.012 1078.86 510.112 1076.98 Q512.243 1075.06 512.891 1070.95 Q513.601 1066.91 513.57 1057.86 Q513.57 1049.06 512.953 1045.54 Q512.119 1041.43 509.896 1039.8 Q507.703 1038.13 505.48 1038.13 Q504.646 1038.13 503.751 1038.38 Q502.886 1038.62 501.62 1039.33 Q500.354 1040.04 499.366 1041.8 Q498.409 1043.56 497.945 1046.22 Q497.451 1049.65 497.451 1057.86 Z" fill="#000000" fill-rule="evenodd" fill-opacity="1" /><path clip-path="url(#clip370)" d="M527.682 1077.84 Q526.725 1076.82 526.725 1075.49 Q526.725 1074.17 527.682 1073.21 Q528.639 1072.22 530.091 1072.22 Q531.48 1072.22 532.407 1073.15 Q533.364 1074.04 533.364 1075.52 Q533.364 1076.98 532.345 1077.93 Q531.357 1078.86 530.091 1078.86 Q528.639 1078.86 527.682 1077.84 Z" fill="#000000" fill-rule="evenodd" fill-opacity="1" /><path clip-path="url(#clip370)" d="M541.578 1069.32 Q541.578 1062.25 550.687 1057.68 Q546.766 1055.02 546.055 1054.25 Q543.276 1051.16 543.276 1047.3 Q543.276 1042.89 546.611 1039.83 Q549.977 1036.74 554.732 1036.74 Q559.272 1036.74 562.699 1039.37 Q566.127 1041.99 566.127 1046.16 Q566.127 1052.03 558.469 1055.98 Q563.533 1059.13 564.737 1060.46 Q567.825 1063.88 567.825 1068.24 Q567.825 1073.3 563.934 1076.79 Q560.044 1080.25 554.671 1080.25 Q549.421 1080.25 545.499 1077.19 Q541.578 1074.14 541.578 1069.32 M544.727 1069.32 Q544.727 1073.24 547.661 1075.86 Q550.625 1078.49 554.732 1078.49 Q558.716 1078.49 561.68 1076.2 Q564.675 1073.92 564.675 1070.52 Q564.675 1069.19 564.212 1068.05 Q563.78 1066.91 562.884 1066.01 Q562.02 1065.09 561.464 1064.69 Q560.939 1064.25 559.92 1063.54 L552.138 1058.63 Q544.727 1062.74 544.727 1069.32 M546.055 1044.83 Q546.055 1047.86 549.236 1049.96 L557.079 1055.02 Q563.348 1051.35 563.348 1046.16 Q563.348 1042.79 560.785 1040.57 Q558.222 1038.32 554.671 1038.32 Q551.181 1038.32 548.618 1040.17 Q546.055 1041.99 546.055 1044.83 Z" fill="#000000" fill-rule="evenodd" fill-opacity="1" /><path clip-path="url(#clip370)" d="M760.766 1042.76 L760.766 1040.79 Q768.362 1040.79 772.284 1036.74 Q773.364 1036.74 773.55 1036.99 Q773.735 1037.23 773.735 1038.38 L773.735 1073.86 Q773.735 1075.74 774.661 1076.33 Q775.588 1076.91 779.633 1076.91 L781.64 1076.91 L781.64 1078.86 Q779.417 1078.67 771.388 1078.67 Q763.36 1078.67 761.167 1078.86 L761.167 1076.91 L763.174 1076.91 Q767.158 1076.91 768.115 1076.36 Q769.072 1075.77 769.072 1073.86 L769.072 1041.09 Q765.768 1042.76 760.766 1042.76 Z" fill="#000000" fill-rule="evenodd" fill-opacity="1" /><path clip-path="url(#clip370)" d="M793.096 1077.84 Q792.139 1076.82 792.139 1075.49 Q792.139 1074.17 793.096 1073.21 Q794.053 1072.22 795.505 1072.22 Q796.894 1072.22 797.821 1073.15 Q798.778 1074.04 798.778 1075.52 Q798.778 1076.98 797.759 1077.93 Q796.771 1078.86 795.505 1078.86 Q794.053 1078.86 793.096 1077.84 Z" fill="#000000" fill-rule="evenodd" fill-opacity="1" /><path clip-path="url(#clip370)" d="M806.807 1058.63 Q806.807 1049.34 809.153 1044.28 Q812.427 1036.74 820.146 1036.74 Q821.783 1036.74 823.481 1037.2 Q825.211 1037.64 827.372 1039.33 Q829.565 1041.03 830.892 1043.81 Q833.424 1049.18 833.424 1058.63 Q833.424 1067.87 831.078 1072.9 Q827.65 1080.25 820.085 1080.25 Q817.244 1080.25 814.341 1078.8 Q811.469 1077.35 809.647 1073.86 Q806.807 1068.64 806.807 1058.63 M812.056 1057.86 Q812.056 1067.4 812.735 1071.2 Q813.507 1075.31 815.607 1077.1 Q817.738 1078.86 820.085 1078.86 Q822.617 1078.86 824.716 1076.98 Q826.847 1075.06 827.496 1070.95 Q828.206 1066.91 828.175 1057.86 Q828.175 1049.06 827.557 1045.54 Q826.724 1041.43 824.5 1039.8 Q822.308 1038.13 820.085 1038.13 Q819.251 1038.13 818.355 1038.38 Q817.491 1038.62 816.225 1039.33 Q814.959 1040.04 813.971 1041.8 Q813.013 1043.56 812.55 1046.22 Q812.056 1049.65 812.056 1057.86 Z" fill="#000000" fill-rule="evenodd" fill-opacity="1" /><path clip-path="url(#clip370)" d="M1028.19 1042.76 L1028.19 1040.79 Q1035.78 1040.79 1039.7 1036.74 Q1040.79 1036.74 1040.97 1036.99 Q1041.16 1037.23 1041.16 1038.38 L1041.16 1073.86 Q1041.16 1075.74 1042.08 1076.33 Q1043.01 1076.91 1047.05 1076.91 L1049.06 1076.91 L1049.06 1078.86 Q1046.84 1078.67 1038.81 1078.67 Q1030.78 1078.67 1028.59 1078.86 L1028.59 1076.91 L1030.6 1076.91 Q1034.58 1076.91 1035.54 1076.36 Q1036.49 1075.77 1036.49 1073.86 L1036.49 1041.09 Q1033.19 1042.76 1028.19 1042.76 Z" fill="#000000" fill-rule="evenodd" fill-opacity="1" /><path clip-path="url(#clip370)" d="M1060.52 1077.84 Q1059.56 1076.82 1059.56 1075.49 Q1059.56 1074.17 1060.52 1073.21 Q1061.47 1072.22 1062.93 1072.22 Q1064.32 1072.22 1065.24 1073.15 Q1066.2 1074.04 1066.2 1075.52 Q1066.2 1076.98 1065.18 1077.93 Q1064.19 1078.86 1062.93 1078.86 Q1061.47 1078.86 1060.52 1077.84 Z" fill="#000000" fill-rule="evenodd" fill-opacity="1" /><path clip-path="url(#clip370)" d="M1074.91 1078.86 Q1074.91 1077.72 1075 1077.38 Q1075.12 1077.04 1075.62 1076.51 L1087.75 1062.99 Q1094.39 1055.52 1094.39 1049 Q1094.39 1044.77 1092.17 1041.74 Q1089.98 1038.72 1085.93 1038.72 Q1083.15 1038.72 1080.8 1040.42 Q1078.46 1042.11 1077.38 1045.14 Q1077.56 1045.08 1078.21 1045.08 Q1079.79 1045.08 1080.65 1046.07 Q1081.55 1047.05 1081.55 1048.38 Q1081.55 1050.08 1080.43 1050.91 Q1079.35 1051.72 1078.27 1051.72 Q1077.84 1051.72 1077.25 1051.62 Q1076.7 1051.53 1075.8 1050.67 Q1074.91 1049.77 1074.91 1048.2 Q1074.91 1043.78 1078.24 1040.26 Q1081.61 1036.74 1086.73 1036.74 Q1092.54 1036.74 1096.34 1040.2 Q1100.17 1043.63 1100.17 1049 Q1100.17 1050.88 1099.58 1052.61 Q1099.02 1054.31 1098.25 1055.64 Q1097.51 1056.97 1095.47 1059.1 Q1093.43 1061.23 1091.8 1062.74 Q1090.16 1064.25 1086.49 1067.47 L1079.79 1073.98 L1091.18 1073.98 Q1096.74 1073.98 1097.17 1073.49 Q1097.79 1072.59 1098.56 1067.87 L1100.17 1067.87 L1098.38 1078.86 L1074.91 1078.86 Z" fill="#000000" fill-rule="evenodd" fill-opacity="1" /><path clip-path="url(#clip370)" d="M1294.57 1042.76 L1294.57 1040.79 Q1302.17 1040.79 1306.09 1036.74 Q1307.17 1036.74 1307.36 1036.99 Q1307.54 1037.23 1307.54 1038.38 L1307.54 1073.86 Q1307.54 1075.74 1308.47 1076.33 Q1309.4 1076.91 1313.44 1076.91 L1315.45 1076.91 L1315.45 1078.86 Q1313.22 1078.67 1305.2 1078.67 Q1297.17 1078.67 1294.97 1078.86 L1294.97 1076.91 L1296.98 1076.91 Q1300.97 1076.91 1301.92 1076.36 Q1302.88 1075.77 1302.88 1073.86 L1302.88 1041.09 Q1299.58 1042.76 1294.57 1042.76 Z" fill="#000000" fill-rule="evenodd" fill-opacity="1" /><path clip-path="url(#clip370)" d="M1326.9 1077.84 Q1325.95 1076.82 1325.95 1075.49 Q1325.95 1074.17 1326.9 1073.21 Q1327.86 1072.22 1329.31 1072.22 Q1330.7 1072.22 1331.63 1073.15 Q1332.59 1074.04 1332.59 1075.52 Q1332.59 1076.98 1331.57 1077.93 Q1330.58 1078.86 1329.31 1078.86 Q1327.86 1078.86 1326.9 1077.84 Z" fill="#000000" fill-rule="evenodd" fill-opacity="1" /><path clip-path="url(#clip370)" d="M1339.9 1068.42 L1339.9 1066.48 L1359.33 1036.8 Q1359.82 1036.03 1360.59 1036.06 Q1361.3 1036.06 1361.46 1036.34 Q1361.61 1036.62 1361.61 1037.7 L1361.61 1066.48 L1367.94 1066.48 L1367.94 1068.42 L1361.61 1068.42 L1361.61 1073.92 Q1361.61 1075.74 1362.35 1076.33 Q1363.13 1076.91 1366.4 1076.91 L1367.73 1076.91 L1367.73 1078.86 Q1365.13 1078.67 1359.14 1078.67 Q1353.18 1078.67 1350.59 1078.86 L1350.59 1076.91 L1351.92 1076.91 Q1355.19 1076.91 1355.96 1076.36 Q1356.73 1075.77 1356.73 1073.92 L1356.73 1068.42 L1339.9 1068.42 M1341.7 1066.48 L1357.1 1066.48 L1357.1 1042.89 L1341.7 1066.48 Z" fill="#000000" fill-rule="evenodd" fill-opacity="1" /><path clip-path="url(#clip370)" d="M726.26 1116.6 L726.26 1114.63 Q733.856 1114.63 737.777 1110.58 Q738.858 1110.58 739.043 1110.83 Q739.229 1111.07 739.229 1112.22 L739.229 1147.7 Q739.229 1149.58 740.155 1150.17 Q741.082 1150.75 745.127 1150.75 L747.134 1150.75 L747.134 1152.7 Q744.911 1152.51 736.882 1152.51 Q728.853 1152.51 726.661 1152.7 L726.661 1150.75 L728.668 1150.75 Q732.651 1150.75 733.609 1150.2 Q734.566 1149.61 734.566 1147.7 L734.566 1114.93 Q731.262 1116.6 726.26 1116.6 Z" fill="#000000" fill-rule="evenodd" fill-opacity="1" /><path clip-path="url(#clip370)" d="M754.73 1132.47 Q754.73 1123.18 757.077 1118.12 Q760.35 1110.58 768.07 1110.58 Q769.707 1110.58 771.405 1111.04 Q773.134 1111.48 775.296 1113.17 Q777.488 1114.87 778.816 1117.65 Q781.348 1123.02 781.348 1132.47 Q781.348 1141.71 779.001 1146.74 Q775.574 1154.09 768.008 1154.09 Q765.167 1154.09 762.265 1152.64 Q759.393 1151.19 757.571 1147.7 Q754.73 1142.48 754.73 1132.47 M759.98 1131.7 Q759.98 1141.24 760.659 1145.04 Q761.431 1149.15 763.531 1150.94 Q765.661 1152.7 768.008 1152.7 Q770.54 1152.7 772.64 1150.82 Q774.771 1148.9 775.419 1144.79 Q776.129 1140.75 776.099 1131.7 Q776.099 1122.9 775.481 1119.38 Q774.647 1115.27 772.424 1113.64 Q770.231 1111.97 768.008 1111.97 Q767.174 1111.97 766.279 1112.22 Q765.414 1112.46 764.148 1113.17 Q762.882 1113.88 761.894 1115.64 Q760.937 1117.4 760.474 1120.06 Q759.98 1123.49 759.98 1131.7 Z" fill="#000000" fill-rule="evenodd" fill-opacity="1" /><path clip-path="url(#clip370)" d="M786.35 1132.47 Q786.35 1123.18 788.697 1118.12 Q791.97 1110.58 799.69 1110.58 Q801.327 1110.58 803.025 1111.04 Q804.754 1111.48 806.916 1113.17 Q809.108 1114.87 810.436 1117.65 Q812.968 1123.02 812.968 1132.47 Q812.968 1141.71 810.621 1146.74 Q807.194 1154.09 799.628 1154.09 Q796.788 1154.09 793.885 1152.64 Q791.013 1151.19 789.191 1147.7 Q786.35 1142.48 786.35 1132.47 M791.6 1131.7 Q791.6 1141.24 792.279 1145.04 Q793.051 1149.15 795.151 1150.94 Q797.282 1152.7 799.628 1152.7 Q802.161 1152.7 804.26 1150.82 Q806.391 1148.9 807.039 1144.79 Q807.75 1140.75 807.719 1131.7 Q807.719 1122.9 807.101 1119.38 Q806.268 1115.27 804.044 1113.64 Q801.852 1111.97 799.628 1111.97 Q798.795 1111.97 797.899 1112.22 Q797.035 1112.46 795.769 1113.17 Q794.503 1113.88 793.514 1115.64 Q792.557 1117.4 792.094 1120.06 Q791.6 1123.49 791.6 1131.7 Z" fill="#000000" fill-rule="evenodd" fill-opacity="1" /><path clip-path="url(#clip370)" d="M817.971 1132.47 Q817.971 1123.18 820.318 1118.12 Q823.591 1110.58 831.311 1110.58 Q832.947 1110.58 834.645 1111.04 Q836.375 1111.48 838.536 1113.17 Q840.729 1114.87 842.057 1117.65 Q844.589 1123.02 844.589 1132.47 Q844.589 1141.71 842.242 1146.74 Q838.814 1154.09 831.249 1154.09 Q828.408 1154.09 825.505 1152.64 Q822.633 1151.19 820.812 1147.7 Q817.971 1142.48 817.971 1132.47 M823.22 1131.7 Q823.22 1141.24 823.9 1145.04 Q824.672 1149.15 826.771 1150.94 Q828.902 1152.7 831.249 1152.7 Q833.781 1152.7 835.881 1150.82 Q838.011 1148.9 838.66 1144.79 Q839.37 1140.75 839.339 1131.7 Q839.339 1122.9 838.722 1119.38 Q837.888 1115.27 835.665 1113.64 Q833.472 1111.97 831.249 1111.97 Q830.415 1111.97 829.52 1112.22 Q828.655 1112.46 827.389 1113.17 Q826.123 1113.88 825.135 1115.64 Q824.177 1117.4 823.714 1120.06 Q823.22 1123.49 823.22 1131.7 Z" fill="#000000" fill-rule="evenodd" fill-opacity="1" /><path clip-path="url(#clip370)" d="M850.734 1167.61 Q850.734 1167.31 850.981 1166.63 L873.306 1106.97 Q873.306 1106.91 873.461 1106.57 Q873.615 1106.23 873.708 1106.01 Q873.8 1105.76 873.986 1105.58 Q874.202 1105.39 874.449 1105.39 Q875.066 1105.39 875.066 1106.16 Q875.066 1106.23 874.881 1106.97 L852.494 1166.69 Q852.123 1167.77 851.876 1168.08 Q851.66 1168.39 851.289 1168.39 Q850.734 1168.39 850.734 1167.61 Z" fill="#000000" fill-rule="evenodd" fill-opacity="1" /><path clip-path="url(#clip370)" d="M881.026 1124.11 L882.23 1109.9 L920.86 1109.9 L922.065 1124.11 L920.49 1124.11 Q920.243 1121.26 919.996 1119.63 Q919.779 1117.99 919.224 1116.45 Q918.699 1114.87 918.019 1114.13 Q917.371 1113.36 916.105 1112.77 Q914.839 1112.16 913.202 1112 Q911.566 1111.85 909.095 1111.85 Q906.193 1111.85 905.482 1111.97 Q904.71 1112.16 904.525 1112.71 Q904.34 1113.24 904.34 1114.38 L904.34 1147.7 Q904.34 1148.96 904.587 1149.49 Q904.865 1149.98 906.316 1150.38 Q907.767 1150.75 910.979 1150.75 L913.511 1150.75 L913.511 1152.7 Q910.917 1152.51 901.499 1152.51 Q892.143 1152.51 889.549 1152.7 L889.549 1150.75 L892.081 1150.75 Q895.292 1150.75 896.744 1150.38 Q898.226 1149.98 898.473 1149.49 Q898.72 1148.96 898.72 1147.7 L898.72 1114.38 Q898.72 1113.48 898.658 1113.11 Q898.596 1112.74 898.318 1112.43 Q898.04 1112.09 897.392 1111.97 Q896.774 1111.85 893.995 1111.85 Q891.525 1111.85 889.858 1112 Q888.221 1112.16 886.955 1112.77 Q885.689 1113.36 885.009 1114.13 Q884.361 1114.87 883.805 1116.45 Q883.28 1117.99 883.064 1119.63 Q882.848 1121.26 882.601 1124.11 L881.026 1124.11 Z" fill="#000000" fill-rule="evenodd" fill-opacity="1" /><path clip-path="url(#clip370)" d="M951.986 1168.51 L951.986 1105.27 L961.528 1105.27 L961.528 1106.72 L956.217 1106.72 L956.217 1167.06 L961.528 1167.06 L961.528 1168.51 L951.986 1168.51 Z" fill="#000000" fill-rule="evenodd" fill-opacity="1" /><path clip-path="url(#clip370)" d="M968.599 1116.6 L968.599 1114.63 Q976.196 1114.63 980.117 1110.58 Q981.198 1110.58 981.383 1110.83 Q981.569 1111.07 981.569 1112.22 L981.569 1147.7 Q981.569 1149.58 982.495 1150.17 Q983.421 1150.75 987.467 1150.75 L989.474 1150.75 L989.474 1152.7 Q987.25 1152.51 979.222 1152.51 Q971.193 1152.51 969.001 1152.7 L969.001 1150.75 L971.008 1150.75 Q974.991 1150.75 975.949 1150.2 Q976.906 1149.61 976.906 1147.7 L976.906 1114.93 Q973.602 1116.6 968.599 1116.6 Z" fill="#000000" fill-rule="evenodd" fill-opacity="1" /><path clip-path="url(#clip370)" d="M998.213 1167.61 Q998.213 1167.31 998.46 1166.63 L1020.79 1106.97 Q1020.79 1106.91 1020.94 1106.57 Q1021.09 1106.23 1021.19 1106.01 Q1021.28 1105.76 1021.46 1105.58 Q1021.68 1105.39 1021.93 1105.39 Q1022.55 1105.39 1022.55 1106.16 Q1022.55 1106.23 1022.36 1106.97 L999.973 1166.69 Q999.602 1167.77 999.355 1168.08 Q999.139 1168.39 998.768 1168.39 Q998.213 1168.39 998.213 1167.61 Z" fill="#000000" fill-rule="evenodd" fill-opacity="1" /><path clip-path="url(#clip370)" d="M1028.32 1152.7 L1028.32 1150.75 L1029.83 1150.75 Q1033.26 1150.75 1034.03 1150.2 Q1034.84 1149.61 1034.84 1147.76 L1034.84 1114.44 Q1034.84 1112.62 1034.03 1112.06 Q1033.23 1111.48 1029.83 1111.48 L1028.32 1111.48 L1028.32 1109.5 Q1030.54 1109.69 1037.68 1109.69 Q1044.75 1109.69 1046.97 1109.5 L1046.97 1111.48 L1045.46 1111.48 Q1042.03 1111.48 1041.23 1112.06 Q1040.46 1112.62 1040.46 1114.44 L1040.46 1134.54 L1060.25 1115.64 Q1061.39 1114.63 1061.39 1113.55 Q1061.39 1113.17 1061.21 1112.77 Q1061.05 1112.34 1060.31 1111.91 Q1059.6 1111.48 1058.46 1111.48 L1058.46 1109.5 Q1060.62 1109.69 1066.52 1109.69 Q1070.25 1109.69 1071.89 1109.5 L1071.89 1111.48 Q1066.64 1111.54 1062.9 1115.27 L1051.51 1126.21 L1066.12 1147.7 Q1067.44 1149.64 1068.74 1150.2 Q1070.04 1150.75 1072.76 1150.75 L1072.76 1152.7 Q1068.77 1152.51 1065.5 1152.51 Q1058.67 1152.51 1056.45 1152.7 L1056.45 1150.75 Q1060.19 1150.75 1060.19 1148.84 Q1060.19 1148.13 1059.23 1146.68 L1047.77 1129.76 L1040.46 1136.7 L1040.46 1147.76 Q1040.46 1149.58 1041.23 1150.17 Q1042.03 1150.75 1045.46 1150.75 L1046.97 1150.75 L1046.97 1152.7 Q1044.75 1152.51 1037.61 1152.51 Q1030.54 1152.51 1028.32 1152.7 Z" fill="#000000" fill-rule="evenodd" fill-opacity="1" /><path clip-path="url(#clip370)" d="M1076.68 1167.06 L1081.99 1167.06 L1081.99 1106.72 L1076.68 1106.72 L1076.68 1105.27 L1086.22 1105.27 L1086.22 1168.51 L1076.68 1168.51 L1076.68 1167.06 Z" fill="#000000" fill-rule="evenodd" fill-opacity="1" /><polyline clip-path="url(#clip372)" style="stroke:#000000; stroke-linecap:butt; stroke-linejoin:round; stroke-width:2; stroke-opacity:0.1; fill:none" points="
  259.722,701.626 1552.76,701.626 
  "/>
<polyline clip-path="url(#clip372)" style="stroke:#000000; stroke-linecap:butt; stroke-linejoin:round; stroke-width:2; stroke-opacity:0.1; fill:none" points="
  259.722,241.156 1552.76,241.156 
  "/>
<polyline clip-path="url(#clip370)" style="stroke:#000000; stroke-linecap:butt; stroke-linejoin:round; stroke-width:4; stroke-opacity:1; fill:none" points="
  259.722,1012.06 259.722,47.2441 
  "/>
<polyline clip-path="url(#clip370)" style="stroke:#000000; stroke-linecap:butt; stroke-linejoin:round; stroke-width:4; stroke-opacity:1; fill:none" points="
  1552.76,1012.06 1552.76,47.2441 
  "/>
<polyline clip-path="url(#clip370)" style="stroke:#000000; stroke-linecap:butt; stroke-linejoin:round; stroke-width:4; stroke-opacity:1; fill:none" points="
  259.722,701.626 278.62,701.626 
  "/>
<polyline clip-path="url(#clip370)" style="stroke:#000000; stroke-linecap:butt; stroke-linejoin:round; stroke-width:4; stroke-opacity:1; fill:none" points="
  259.722,241.156 278.62,241.156 
  "/>
<path clip-path="url(#clip370)" d="M119.34 695.187 L119.34 693.211 Q126.936 693.211 130.858 689.166 Q131.939 689.166 132.124 689.413 Q132.309 689.66 132.309 690.802 L132.309 726.283 Q132.309 728.166 133.236 728.753 Q134.162 729.34 138.207 729.34 L140.214 729.34 L140.214 731.285 Q137.991 731.1 129.963 731.1 Q121.934 731.1 119.742 731.285 L119.742 729.34 L121.749 729.34 Q125.732 729.34 126.689 728.784 Q127.647 728.197 127.647 726.283 L127.647 693.52 Q124.343 695.187 119.34 695.187 Z" fill="#000000" fill-rule="evenodd" fill-opacity="1" /><path clip-path="url(#clip370)" d="M147.811 711.059 Q147.811 701.765 150.158 696.7 Q153.431 689.166 161.151 689.166 Q162.787 689.166 164.486 689.629 Q166.215 690.061 168.376 691.76 Q170.569 693.458 171.897 696.237 Q174.429 701.61 174.429 711.059 Q174.429 720.292 172.082 725.325 Q168.654 732.675 161.089 732.675 Q158.248 732.675 155.345 731.223 Q152.474 729.772 150.652 726.283 Q147.811 721.064 147.811 711.059 M153.06 710.287 Q153.06 719.829 153.74 723.627 Q154.512 727.734 156.611 729.525 Q158.742 731.285 161.089 731.285 Q163.621 731.285 165.721 729.401 Q167.851 727.487 168.5 723.38 Q169.21 719.335 169.179 710.287 Q169.179 701.487 168.562 697.966 Q167.728 693.859 165.505 692.223 Q163.312 690.555 161.089 690.555 Q160.255 690.555 159.36 690.802 Q158.495 691.049 157.229 691.76 Q155.963 692.47 154.975 694.23 Q154.017 695.99 153.554 698.646 Q153.06 702.073 153.06 710.287 Z" fill="#000000" fill-rule="evenodd" fill-opacity="1" /><path clip-path="url(#clip370)" d="M208.349 683.449 Q208.651 683.75 208.651 684.176 Q208.651 684.603 208.349 684.904 Q208.048 685.205 207.622 685.205 L175.457 685.205 Q175.031 685.205 174.73 684.904 Q174.429 684.603 174.429 684.176 Q174.429 683.75 174.73 683.449 Q175.031 683.148 175.457 683.148 L207.622 683.148 Q208.048 683.148 208.349 683.449 Z" fill="#000000" fill-rule="evenodd" fill-opacity="1" /><path clip-path="url(#clip370)" d="M212.941 688.542 L212.941 686.961 L228.722 662.85 Q229.123 662.223 229.751 662.248 Q230.328 662.248 230.453 662.474 Q230.579 662.7 230.579 663.578 L230.579 686.961 L235.722 686.961 L235.722 688.542 L230.579 688.542 L230.579 693.008 Q230.579 694.488 231.181 694.965 Q231.808 695.441 234.467 695.441 L235.546 695.441 L235.546 697.022 Q233.439 696.872 228.571 696.872 Q223.729 696.872 221.622 697.022 L221.622 695.441 L222.701 695.441 Q225.36 695.441 225.987 694.99 Q226.614 694.513 226.614 693.008 L226.614 688.542 L212.941 688.542 M214.396 686.961 L226.916 686.961 L226.916 667.793 L214.396 686.961 Z" fill="#000000" fill-rule="evenodd" fill-opacity="1" /><path clip-path="url(#clip370)" d="M120.469 234.718 L120.469 232.742 Q128.065 232.742 131.987 228.696 Q133.068 228.696 133.253 228.943 Q133.438 229.191 133.438 230.333 L133.438 265.813 Q133.438 267.697 134.365 268.284 Q135.291 268.87 139.336 268.87 L141.344 268.87 L141.344 270.816 Q139.12 270.63 131.092 270.63 Q123.063 270.63 120.871 270.816 L120.871 268.87 L122.878 268.87 Q126.861 268.87 127.818 268.314 Q128.776 267.728 128.776 265.813 L128.776 233.05 Q125.472 234.718 120.469 234.718 Z" fill="#000000" fill-rule="evenodd" fill-opacity="1" /><path clip-path="url(#clip370)" d="M148.94 250.59 Q148.94 241.295 151.287 236.231 Q154.56 228.696 162.28 228.696 Q163.916 228.696 165.615 229.16 Q167.344 229.592 169.505 231.29 Q171.698 232.989 173.026 235.768 Q175.558 241.141 175.558 250.59 Q175.558 259.823 173.211 264.856 Q169.783 272.205 162.218 272.205 Q159.377 272.205 156.474 270.754 Q153.603 269.303 151.781 265.813 Q148.94 260.595 148.94 250.59 M154.189 249.818 Q154.189 259.36 154.869 263.158 Q155.641 267.265 157.74 269.056 Q159.871 270.816 162.218 270.816 Q164.75 270.816 166.85 268.932 Q168.98 267.018 169.629 262.911 Q170.339 258.865 170.308 249.818 Q170.308 241.017 169.691 237.497 Q168.857 233.39 166.634 231.753 Q164.441 230.086 162.218 230.086 Q161.384 230.086 160.489 230.333 Q159.624 230.58 158.358 231.29 Q157.092 232.001 156.104 233.761 Q155.147 235.521 154.683 238.176 Q154.189 241.604 154.189 249.818 Z" fill="#000000" fill-rule="evenodd" fill-opacity="1" /><path clip-path="url(#clip370)" d="M209.478 222.979 Q209.78 223.28 209.78 223.707 Q209.78 224.133 209.478 224.435 Q209.177 224.736 208.751 224.736 L176.586 224.736 Q176.16 224.736 175.859 224.435 Q175.558 224.133 175.558 223.707 Q175.558 223.28 175.859 222.979 Q176.16 222.678 176.586 222.678 L208.751 222.678 Q209.177 222.678 209.478 222.979 Z" fill="#000000" fill-rule="evenodd" fill-opacity="1" /><path clip-path="url(#clip370)" d="M215.199 236.553 Q215.199 235.624 215.274 235.348 Q215.374 235.072 215.776 234.646 L225.636 223.657 Q231.03 217.585 231.03 212.291 Q231.03 208.854 229.224 206.395 Q227.442 203.937 224.156 203.937 Q221.898 203.937 219.991 205.316 Q218.084 206.696 217.206 209.155 Q217.357 209.105 217.883 209.105 Q219.163 209.105 219.865 209.908 Q220.593 210.711 220.593 211.789 Q220.593 213.169 219.69 213.847 Q218.812 214.499 217.934 214.499 Q217.582 214.499 217.106 214.424 Q216.654 214.349 215.926 213.646 Q215.199 212.919 215.199 211.639 Q215.199 208.051 217.908 205.191 Q220.643 202.331 224.808 202.331 Q229.525 202.331 232.611 205.141 Q235.722 207.926 235.722 212.291 Q235.722 213.822 235.245 215.227 Q234.794 216.607 234.166 217.685 Q233.564 218.764 231.908 220.496 Q230.252 222.227 228.923 223.456 Q227.593 224.685 224.607 227.295 L219.163 232.589 L228.421 232.589 Q232.937 232.589 233.288 232.187 Q233.79 231.46 234.417 227.621 L235.722 227.621 L234.267 236.553 L215.199 236.553 Z" fill="#000000" fill-rule="evenodd" fill-opacity="1" /><path clip-path="url(#clip370)" d="M82.3802 624.297 L80.4348 624.297 L80.4348 622.629 Q80.4348 619.078 79.8789 618.275 Q79.2922 617.442 77.4395 617.442 L44.1208 617.442 Q42.299 617.442 41.7431 618.275 Q41.1564 619.109 41.1564 622.629 L41.1564 624.297 L39.1802 624.297 Q39.3654 622.073 39.3654 614.601 Q39.3654 607.19 39.1802 604.997 L41.1564 604.997 L41.1564 606.634 Q41.1564 610.185 41.7431 611.019 Q42.299 611.822 44.1208 611.822 L77.4395 611.822 Q79.2614 611.822 79.8481 611.019 Q80.4348 610.185 80.4348 606.634 L80.4348 604.997 L82.3802 604.997 Q82.1949 607.221 82.1949 614.662 Q82.1949 622.073 82.3802 624.297 Z" fill="#000000" fill-rule="evenodd" fill-opacity="1" /><path clip-path="url(#clip370)" d="M82.3802 601.014 L80.4348 601.014 L80.4348 599.501 Q80.4348 596.073 79.8789 595.301 Q79.2922 594.498 77.4395 594.498 L44.1208 594.498 Q42.299 594.498 41.7431 595.301 Q41.1564 596.104 41.1564 599.501 L41.1564 601.014 L39.1802 601.014 L39.1802 577.885 Q39.1802 569.795 45.6339 564.175 Q52.0877 558.524 61.1353 558.524 Q69.9976 558.524 76.2043 564.206 Q82.3802 569.857 82.3802 577.885 L82.3802 601.014 M77.9027 589.064 Q79.5393 589.064 80.0025 588.6 Q80.4348 588.137 80.4348 585.976 L80.4348 579.584 Q80.4348 575.415 78.7364 572.605 Q77.0072 569.795 75.0309 568.344 Q70.2755 564.854 61.1353 564.854 Q51.5318 564.854 47.0235 568.127 Q41.1564 572.358 41.1564 579.645 L41.1564 585.976 Q41.1564 588.137 41.5887 588.6 Q42.021 589.064 43.6885 589.064 L77.9027 589.064 Z" fill="#000000" fill-rule="evenodd" fill-opacity="1" /><path clip-path="url(#clip370)" d="M53.786 552.719 L39.5816 551.514 L39.5816 512.885 L53.786 511.68 L53.786 513.255 Q50.9451 513.502 49.3085 513.749 Q47.6719 513.965 46.128 514.521 Q44.5531 515.046 43.812 515.725 Q43.0401 516.374 42.4534 517.64 Q41.8358 518.906 41.6814 520.543 Q41.527 522.179 41.527 524.65 Q41.527 527.552 41.6505 528.262 Q41.8358 529.034 42.3916 529.22 Q42.9165 529.405 44.0591 529.405 L77.3777 529.405 Q78.6438 529.405 79.1687 529.158 Q79.6628 528.88 80.0642 527.429 Q80.4348 525.977 80.4348 522.766 L80.4348 520.234 L82.3802 520.234 Q82.1949 522.828 82.1949 532.246 Q82.1949 541.602 82.3802 544.196 L80.4348 544.196 L80.4348 541.664 Q80.4348 538.453 80.0642 537.001 Q79.6628 535.519 79.1687 535.272 Q78.6438 535.025 77.3777 535.025 L44.0591 535.025 Q43.1636 535.025 42.793 535.087 Q42.4225 535.148 42.1137 535.426 Q41.774 535.704 41.6505 536.353 Q41.527 536.97 41.527 539.749 Q41.527 542.22 41.6814 543.887 Q41.8358 545.524 42.4534 546.79 Q43.0401 548.056 43.812 548.735 Q44.5531 549.384 46.128 549.94 Q47.6719 550.465 49.3085 550.681 Q50.9451 550.897 53.786 551.144 L53.786 552.719 Z" fill="#000000" fill-rule="evenodd" fill-opacity="1" /><path clip-path="url(#clip370)" d="M98.1903 481.758 L34.9497 481.758 L34.9497 472.217 L36.401 472.217 L36.401 477.528 L96.739 477.528 L96.739 472.217 L98.1903 472.217 L98.1903 481.758 Z" fill="#000000" fill-rule="evenodd" fill-opacity="1" /><path clip-path="url(#clip370)" d="M81.5464 468.666 L73.209 468.666 Q72.4988 468.666 72.2518 468.635 Q72.0047 468.604 71.8195 468.419 Q71.6342 468.233 71.6342 467.863 Q71.6342 467.43 71.8195 467.276 Q72.0047 467.091 72.715 466.967 Q77.0689 466.01 79.3849 463.972 Q81.6699 461.903 81.6699 458.167 Q81.6699 454.616 80.0951 452.825 Q78.5203 451.034 75.9264 451.034 Q71.2945 451.034 70.1211 457.611 Q69.3491 461.409 68.8551 462.984 Q68.3301 464.559 67.1876 465.948 Q64.9643 468.666 61.8146 468.666 Q58.6649 468.666 56.349 466.288 Q54.0331 463.879 54.0331 458.568 Q54.0331 455.017 55.824 452.608 Q55.2682 451.898 54.805 451.528 Q54.0331 450.694 54.0331 450.262 Q54.0331 449.767 54.3727 449.675 Q54.6815 449.582 55.577 449.582 L61.9381 449.582 Q62.6483 449.582 62.8954 449.613 Q63.1424 449.644 63.3277 449.829 Q63.4821 450.015 63.4821 450.416 Q63.4821 451.126 62.8954 451.157 Q55.2373 451.651 55.2373 458.568 Q55.2373 462.304 56.6887 463.972 Q58.1091 465.639 60.0545 465.639 Q61.1353 465.639 61.969 465.145 Q62.7719 464.62 63.2659 463.972 Q63.7291 463.293 64.1923 462.057 Q64.6246 460.822 64.779 460.081 Q64.9334 459.309 65.2422 457.858 Q66.1995 452.794 68.2684 450.663 Q70.924 448.007 74.2898 448.007 Q78.0262 448.007 80.5583 450.539 Q83.0904 453.072 83.0904 458.167 Q83.0904 462.274 80.3421 465.145 Q80.7127 465.516 81.0524 465.794 Q81.3611 466.072 81.4847 466.195 Q81.6082 466.288 81.7008 466.319 Q81.7626 466.35 81.8243 466.411 Q83.0904 467.677 83.0904 467.986 Q83.0904 468.48 82.7507 468.573 Q82.4419 468.666 81.5464 468.666 Z" fill="#000000" fill-rule="evenodd" fill-opacity="1" /><path clip-path="url(#clip370)" d="M96.739 444.549 L96.739 439.238 L36.401 439.238 L36.401 444.549 L34.9497 444.549 L34.9497 435.007 L98.1903 435.007 L98.1903 444.549 L96.739 444.549 Z" fill="#000000" fill-rule="evenodd" fill-opacity="1" /><path clip-path="url(#clip372)" d="M1500.16 93.423 L1500.16 125.423 L1532.16 125.423 L1532.16 93.423 L1500.16 93.423 Z" fill="#ffffff" fill-rule="evenodd" fill-opacity="0.8" stroke="#000000" stroke-opacity="0.8" stroke-width="2.4"/>
<path clip-path="url(#clip372)" d="M1353.41 172.99 L1353.41 204.99 L1385.41 204.99 L1385.41 172.99 L1353.41 172.99 Z" fill="#ffffff" fill-rule="evenodd" fill-opacity="0.8" stroke="#000000" stroke-opacity="0.8" stroke-width="2.4"/>
<path clip-path="url(#clip372)" d="M1226.23 196.575 L1226.23 228.575 L1258.23 228.575 L1258.23 196.575 L1226.23 196.575 Z" fill="#ffffff" fill-rule="evenodd" fill-opacity="0.8" stroke="#000000" stroke-opacity="0.8" stroke-width="2.4"/>
<path clip-path="url(#clip372)" d="M1114.95 185.66 L1114.95 217.66 L1146.95 217.66 L1146.95 185.66 L1114.95 185.66 Z" fill="#ffffff" fill-rule="evenodd" fill-opacity="0.8" stroke="#000000" stroke-opacity="0.8" stroke-width="2.4"/>
<path clip-path="url(#clip372)" d="M1016.76 164.211 L1016.76 196.211 L1048.76 196.211 L1048.76 164.211 L1016.76 164.211 Z" fill="#ffffff" fill-rule="evenodd" fill-opacity="0.8" stroke="#000000" stroke-opacity="0.8" stroke-width="2.4"/>
<path clip-path="url(#clip372)" d="M929.474 140.688 L929.474 172.688 L961.474 172.688 L961.474 140.688 L929.474 140.688 Z" fill="#ffffff" fill-rule="evenodd" fill-opacity="0.8" stroke="#000000" stroke-opacity="0.8" stroke-width="2.4"/>
<path clip-path="url(#clip372)" d="M851.38 181.241 L851.38 213.241 L883.38 213.241 L883.38 181.241 L851.38 181.241 Z" fill="#ffffff" fill-rule="evenodd" fill-opacity="0.8" stroke="#000000" stroke-opacity="0.8" stroke-width="2.4"/>
<path clip-path="url(#clip372)" d="M781.095 259.089 L781.095 291.089 L813.095 291.089 L813.095 259.089 L781.095 259.089 Z" fill="#ffffff" fill-rule="evenodd" fill-opacity="0.8" stroke="#000000" stroke-opacity="0.8" stroke-width="2.4"/>
<path clip-path="url(#clip372)" d="M659.694 413.305 L659.694 445.305 L691.694 445.305 L691.694 413.305 L659.694 413.305 Z" fill="#ffffff" fill-rule="evenodd" fill-opacity="0.8" stroke="#000000" stroke-opacity="0.8" stroke-width="2.4"/>
<path clip-path="url(#clip372)" d="M558.527 529.261 L558.527 561.261 L590.527 561.261 L590.527 529.261 L558.527 529.261 Z" fill="#ffffff" fill-rule="evenodd" fill-opacity="0.8" stroke="#000000" stroke-opacity="0.8" stroke-width="2.4"/>
<path clip-path="url(#clip372)" d="M472.924 614.965 L472.924 646.965 L504.924 646.965 L504.924 614.965 L472.924 614.965 Z" fill="#ffffff" fill-rule="evenodd" fill-opacity="0.8" stroke="#000000" stroke-opacity="0.8" stroke-width="2.4"/>
<path clip-path="url(#clip372)" d="M399.55 683.221 L399.55 715.221 L431.55 715.221 L431.55 683.221 L399.55 683.221 Z" fill="#ffffff" fill-rule="evenodd" fill-opacity="0.8" stroke="#000000" stroke-opacity="0.8" stroke-width="2.4"/>
<path clip-path="url(#clip372)" d="M280.317 797.885 L280.317 829.885 L312.317 829.885 L312.317 797.885 L280.317 797.885 Z" fill="#ffffff" fill-rule="evenodd" fill-opacity="0.8" stroke="#000000" stroke-opacity="0.8" stroke-width="2.4"/>
<path clip-path="url(#clip372)" d="M1500.16 219.975 L1500.16 251.975 L1532.16 251.975 L1532.16 219.975 L1500.16 219.975 Z" fill="#ffffff" fill-rule="evenodd" fill-opacity="0.8" stroke="#000000" stroke-opacity="0.8" stroke-width="2.4"/>
<path clip-path="url(#clip372)" d="M1353.41 359.831 L1353.41 391.831 L1385.41 391.831 L1385.41 359.831 L1353.41 359.831 Z" fill="#ffffff" fill-rule="evenodd" fill-opacity="0.8" stroke="#000000" stroke-opacity="0.8" stroke-width="2.4"/>
<path clip-path="url(#clip372)" d="M1226.23 467.714 L1226.23 499.714 L1258.23 499.714 L1258.23 467.714 L1226.23 467.714 Z" fill="#ffffff" fill-rule="evenodd" fill-opacity="0.8" stroke="#000000" stroke-opacity="0.8" stroke-width="2.4"/>
<path clip-path="url(#clip372)" d="M1114.95 542.533 L1114.95 574.533 L1146.95 574.533 L1146.95 542.533 L1114.95 542.533 Z" fill="#ffffff" fill-rule="evenodd" fill-opacity="0.8" stroke="#000000" stroke-opacity="0.8" stroke-width="2.4"/>
<path clip-path="url(#clip372)" d="M1016.76 583.49 L1016.76 615.49 L1048.76 615.49 L1048.76 583.49 L1016.76 583.49 Z" fill="#ffffff" fill-rule="evenodd" fill-opacity="0.8" stroke="#000000" stroke-opacity="0.8" stroke-width="2.4"/>
<path clip-path="url(#clip372)" d="M929.474 593.262 L929.474 625.262 L961.474 625.262 L961.474 593.262 L929.474 593.262 Z" fill="#ffffff" fill-rule="evenodd" fill-opacity="0.8" stroke="#000000" stroke-opacity="0.8" stroke-width="2.4"/>
<path clip-path="url(#clip372)" d="M851.38 580.997 L851.38 612.997 L883.38 612.997 L883.38 580.997 L851.38 580.997 Z" fill="#ffffff" fill-rule="evenodd" fill-opacity="0.8" stroke="#000000" stroke-opacity="0.8" stroke-width="2.4"/>
<path clip-path="url(#clip372)" d="M781.095 556.907 L781.095 588.907 L813.095 588.907 L813.095 556.907 L781.095 556.907 Z" fill="#ffffff" fill-rule="evenodd" fill-opacity="0.8" stroke="#000000" stroke-opacity="0.8" stroke-width="2.4"/>
<path clip-path="url(#clip372)" d="M659.694 608.833 L659.694 640.833 L691.694 640.833 L691.694 608.833 L659.694 608.833 Z" fill="#ffffff" fill-rule="evenodd" fill-opacity="0.8" stroke="#000000" stroke-opacity="0.8" stroke-width="2.4"/>
<path clip-path="url(#clip372)" d="M558.527 711.154 L558.527 743.154 L590.527 743.154 L590.527 711.154 L558.527 711.154 Z" fill="#ffffff" fill-rule="evenodd" fill-opacity="0.8" stroke="#000000" stroke-opacity="0.8" stroke-width="2.4"/>
<path clip-path="url(#clip372)" d="M472.924 795.278 L472.924 827.278 L504.924 827.278 L504.924 795.278 L472.924 795.278 Z" fill="#ffffff" fill-rule="evenodd" fill-opacity="0.8" stroke="#000000" stroke-opacity="0.8" stroke-width="2.4"/>
<path clip-path="url(#clip372)" d="M399.55 861.403 L399.55 893.403 L431.55 893.403 L431.55 861.403 L399.55 861.403 Z" fill="#ffffff" fill-rule="evenodd" fill-opacity="0.8" stroke="#000000" stroke-opacity="0.8" stroke-width="2.4"/>
<path clip-path="url(#clip372)" d="M280.317 966.89 L280.317 998.89 L312.317 998.89 L312.317 966.89 L280.317 966.89 Z" fill="#ffffff" fill-rule="evenodd" fill-opacity="0.8" stroke="#000000" stroke-opacity="0.8" stroke-width="2.4"/>
<polyline clip-path="url(#clip372)" style="stroke:#0000ff; stroke-linecap:butt; stroke-linejoin:round; stroke-width:4; stroke-opacity:1; fill:none" stroke-dasharray="16, 10" points="
  1516.16,74.5502 1369.41,128.344 1242.23,141.679 1130.95,133.793 1032.76,122.472 945.474,121.955 867.38,169.24 797.095,250.27 675.694,413.896 574.527,541.42 
  488.924,634.937 415.55,705.67 296.317,816.657 
  "/>
<circle clip-path="url(#clip372)" cx="1516.16" cy="74.5502" r="14" fill="#ffffff" fill-rule="evenodd" fill-opacity="0.8" stroke="#0000ff" stroke-opacity="0.8" stroke-width="2.4"/>
<circle clip-path="url(#clip372)" cx="1369.41" cy="128.344" r="14" fill="#ffffff" fill-rule="evenodd" fill-opacity="0.8" stroke="#0000ff" stroke-opacity="0.8" stroke-width="2.4"/>
<circle clip-path="url(#clip372)" cx="1242.23" cy="141.679" r="14" fill="#ffffff" fill-rule="evenodd" fill-opacity="0.8" stroke="#0000ff" stroke-opacity="0.8" stroke-width="2.4"/>
<circle clip-path="url(#clip372)" cx="1130.95" cy="133.793" r="14" fill="#ffffff" fill-rule="evenodd" fill-opacity="0.8" stroke="#0000ff" stroke-opacity="0.8" stroke-width="2.4"/>
<circle clip-path="url(#clip372)" cx="1032.76" cy="122.472" r="14" fill="#ffffff" fill-rule="evenodd" fill-opacity="0.8" stroke="#0000ff" stroke-opacity="0.8" stroke-width="2.4"/>
<circle clip-path="url(#clip372)" cx="945.474" cy="121.955" r="14" fill="#ffffff" fill-rule="evenodd" fill-opacity="0.8" stroke="#0000ff" stroke-opacity="0.8" stroke-width="2.4"/>
<circle clip-path="url(#clip372)" cx="867.38" cy="169.24" r="14" fill="#ffffff" fill-rule="evenodd" fill-opacity="0.8" stroke="#0000ff" stroke-opacity="0.8" stroke-width="2.4"/>
<circle clip-path="url(#clip372)" cx="797.095" cy="250.27" r="14" fill="#ffffff" fill-rule="evenodd" fill-opacity="0.8" stroke="#0000ff" stroke-opacity="0.8" stroke-width="2.4"/>
<circle clip-path="url(#clip372)" cx="675.694" cy="413.896" r="14" fill="#ffffff" fill-rule="evenodd" fill-opacity="0.8" stroke="#0000ff" stroke-opacity="0.8" stroke-width="2.4"/>
<circle clip-path="url(#clip372)" cx="574.527" cy="541.42" r="14" fill="#ffffff" fill-rule="evenodd" fill-opacity="0.8" stroke="#0000ff" stroke-opacity="0.8" stroke-width="2.4"/>
<circle clip-path="url(#clip372)" cx="488.924" cy="634.937" r="14" fill="#ffffff" fill-rule="evenodd" fill-opacity="0.8" stroke="#0000ff" stroke-opacity="0.8" stroke-width="2.4"/>
<circle clip-path="url(#clip372)" cx="415.55" cy="705.67" r="14" fill="#ffffff" fill-rule="evenodd" fill-opacity="0.8" stroke="#0000ff" stroke-opacity="0.8" stroke-width="2.4"/>
<circle clip-path="url(#clip372)" cx="296.317" cy="816.657" r="14" fill="#ffffff" fill-rule="evenodd" fill-opacity="0.8" stroke="#0000ff" stroke-opacity="0.8" stroke-width="2.4"/>
<polyline clip-path="url(#clip372)" style="stroke:#0000ff; stroke-linecap:butt; stroke-linejoin:round; stroke-width:4; stroke-opacity:1; fill:none" stroke-dasharray="16, 10" points="
  1516.16,232.001 1369.41,363.359 1242.23,456.93 1130.95,514.949 1032.76,543.984 945.474,551.991 867.38,548.872 797.095,543.763 675.694,607.901 574.527,720.443 
  488.924,812.095 415.55,881.118 296.317,984.754 
  "/>
<circle clip-path="url(#clip372)" cx="1516.16" cy="232.001" r="14" fill="#ffffff" fill-rule="evenodd" fill-opacity="0.8" stroke="#0000ff" stroke-opacity="0.8" stroke-width="2.4"/>
<circle clip-path="url(#clip372)" cx="1369.41" cy="363.359" r="14" fill="#ffffff" fill-rule="evenodd" fill-opacity="0.8" stroke="#0000ff" stroke-opacity="0.8" stroke-width="2.4"/>
<circle clip-path="url(#clip372)" cx="1242.23" cy="456.93" r="14" fill="#ffffff" fill-rule="evenodd" fill-opacity="0.8" stroke="#0000ff" stroke-opacity="0.8" stroke-width="2.4"/>
<circle clip-path="url(#clip372)" cx="1130.95" cy="514.949" r="14" fill="#ffffff" fill-rule="evenodd" fill-opacity="0.8" stroke="#0000ff" stroke-opacity="0.8" stroke-width="2.4"/>
<circle clip-path="url(#clip372)" cx="1032.76" cy="543.984" r="14" fill="#ffffff" fill-rule="evenodd" fill-opacity="0.8" stroke="#0000ff" stroke-opacity="0.8" stroke-width="2.4"/>
<circle clip-path="url(#clip372)" cx="945.474" cy="551.991" r="14" fill="#ffffff" fill-rule="evenodd" fill-opacity="0.8" stroke="#0000ff" stroke-opacity="0.8" stroke-width="2.4"/>
<circle clip-path="url(#clip372)" cx="867.38" cy="548.872" r="14" fill="#ffffff" fill-rule="evenodd" fill-opacity="0.8" stroke="#0000ff" stroke-opacity="0.8" stroke-width="2.4"/>
<circle clip-path="url(#clip372)" cx="797.095" cy="543.763" r="14" fill="#ffffff" fill-rule="evenodd" fill-opacity="0.8" stroke="#0000ff" stroke-opacity="0.8" stroke-width="2.4"/>
<circle clip-path="url(#clip372)" cx="675.694" cy="607.901" r="14" fill="#ffffff" fill-rule="evenodd" fill-opacity="0.8" stroke="#0000ff" stroke-opacity="0.8" stroke-width="2.4"/>
<circle clip-path="url(#clip372)" cx="574.527" cy="720.443" r="14" fill="#ffffff" fill-rule="evenodd" fill-opacity="0.8" stroke="#0000ff" stroke-opacity="0.8" stroke-width="2.4"/>
<circle clip-path="url(#clip372)" cx="488.924" cy="812.095" r="14" fill="#ffffff" fill-rule="evenodd" fill-opacity="0.8" stroke="#0000ff" stroke-opacity="0.8" stroke-width="2.4"/>
<circle clip-path="url(#clip372)" cx="415.55" cy="881.118" r="14" fill="#ffffff" fill-rule="evenodd" fill-opacity="0.8" stroke="#0000ff" stroke-opacity="0.8" stroke-width="2.4"/>
<circle clip-path="url(#clip372)" cx="296.317" cy="984.754" r="14" fill="#ffffff" fill-rule="evenodd" fill-opacity="0.8" stroke="#0000ff" stroke-opacity="0.8" stroke-width="2.4"/>
<polyline clip-path="url(#clip372)" style="stroke:#ff0000; stroke-linecap:butt; stroke-linejoin:round; stroke-width:4; stroke-opacity:1; fill:none" points="
  1516.16,112.549 1369.41,194.311 1242.23,217.906 1130.95,204.794 1032.76,178.391 945.474,162.163 867.38,196.997 797.095,272.301 675.694,429.402 574.527,548.928 
  488.924,634.151 415.55,698.685 296.317,804.177 
  "/>
<path clip-path="url(#clip372)" d="M1516.16 96.549 L1500.16 112.549 L1516.16 128.549 L1532.16 112.549 L1516.16 96.549 Z" fill="#ffffff" fill-rule="evenodd" fill-opacity="0.8" stroke="#ff0000" stroke-opacity="0.8" stroke-width="2.4"/>
<path clip-path="url(#clip372)" d="M1369.41 178.311 L1353.41 194.311 L1369.41 210.311 L1385.41 194.311 L1369.41 178.311 Z" fill="#ffffff" fill-rule="evenodd" fill-opacity="0.8" stroke="#ff0000" stroke-opacity="0.8" stroke-width="2.4"/>
<path clip-path="url(#clip372)" d="M1242.23 201.906 L1226.23 217.906 L1242.23 233.906 L1258.23 217.906 L1242.23 201.906 Z" fill="#ffffff" fill-rule="evenodd" fill-opacity="0.8" stroke="#ff0000" stroke-opacity="0.8" stroke-width="2.4"/>
<path clip-path="url(#clip372)" d="M1130.95 188.794 L1114.95 204.794 L1130.95 220.794 L1146.95 204.794 L1130.95 188.794 Z" fill="#ffffff" fill-rule="evenodd" fill-opacity="0.8" stroke="#ff0000" stroke-opacity="0.8" stroke-width="2.4"/>
<path clip-path="url(#clip372)" d="M1032.76 162.391 L1016.76 178.391 L1032.76 194.391 L1048.76 178.391 L1032.76 162.391 Z" fill="#ffffff" fill-rule="evenodd" fill-opacity="0.8" stroke="#ff0000" stroke-opacity="0.8" stroke-width="2.4"/>
<path clip-path="url(#clip372)" d="M945.474 146.163 L929.474 162.163 L945.474 178.163 L961.474 162.163 L945.474 146.163 Z" fill="#ffffff" fill-rule="evenodd" fill-opacity="0.8" stroke="#ff0000" stroke-opacity="0.8" stroke-width="2.4"/>
<path clip-path="url(#clip372)" d="M867.38 180.997 L851.38 196.997 L867.38 212.997 L883.38 196.997 L867.38 180.997 Z" fill="#ffffff" fill-rule="evenodd" fill-opacity="0.8" stroke="#ff0000" stroke-opacity="0.8" stroke-width="2.4"/>
<path clip-path="url(#clip372)" d="M797.095 256.301 L781.095 272.301 L797.095 288.301 L813.095 272.301 L797.095 256.301 Z" fill="#ffffff" fill-rule="evenodd" fill-opacity="0.8" stroke="#ff0000" stroke-opacity="0.8" stroke-width="2.4"/>
<path clip-path="url(#clip372)" d="M675.694 413.402 L659.694 429.402 L675.694 445.402 L691.694 429.402 L675.694 413.402 Z" fill="#ffffff" fill-rule="evenodd" fill-opacity="0.8" stroke="#ff0000" stroke-opacity="0.8" stroke-width="2.4"/>
<path clip-path="url(#clip372)" d="M574.527 532.928 L558.527 548.928 L574.527 564.928 L590.527 548.928 L574.527 532.928 Z" fill="#ffffff" fill-rule="evenodd" fill-opacity="0.8" stroke="#ff0000" stroke-opacity="0.8" stroke-width="2.4"/>
<path clip-path="url(#clip372)" d="M488.924 618.151 L472.924 634.151 L488.924 650.151 L504.924 634.151 L488.924 618.151 Z" fill="#ffffff" fill-rule="evenodd" fill-opacity="0.8" stroke="#ff0000" stroke-opacity="0.8" stroke-width="2.4"/>
<path clip-path="url(#clip372)" d="M415.55 682.685 L399.55 698.685 L415.55 714.685 L431.55 698.685 L415.55 682.685 Z" fill="#ffffff" fill-rule="evenodd" fill-opacity="0.8" stroke="#ff0000" stroke-opacity="0.8" stroke-width="2.4"/>
<path clip-path="url(#clip372)" d="M296.317 788.177 L280.317 804.177 L296.317 820.177 L312.317 804.177 L296.317 788.177 Z" fill="#ffffff" fill-rule="evenodd" fill-opacity="0.8" stroke="#ff0000" stroke-opacity="0.8" stroke-width="2.4"/>
<polyline clip-path="url(#clip372)" style="stroke:#ff0000; stroke-linecap:butt; stroke-linejoin:round; stroke-width:4; stroke-opacity:1; fill:none" points="
  1516.16,236.174 1369.41,376.03 1242.23,483.688 1130.95,557.627 1032.76,597.977 945.474,608.81 867.38,599.297 797.095,582.512 675.694,626.312 574.527,729.068 
  488.924,812.319 415.55,874.504 296.317,970.658 
  "/>
<path clip-path="url(#clip372)" d="M1516.16 220.174 L1500.16 236.174 L1516.16 252.174 L1532.16 236.174 L1516.16 220.174 Z" fill="#ffffff" fill-rule="evenodd" fill-opacity="0.8" stroke="#ff0000" stroke-opacity="0.8" stroke-width="2.4"/>
<path clip-path="url(#clip372)" d="M1369.41 360.03 L1353.41 376.03 L1369.41 392.03 L1385.41 376.03 L1369.41 360.03 Z" fill="#ffffff" fill-rule="evenodd" fill-opacity="0.8" stroke="#ff0000" stroke-opacity="0.8" stroke-width="2.4"/>
<path clip-path="url(#clip372)" d="M1242.23 467.688 L1226.23 483.688 L1242.23 499.688 L1258.23 483.688 L1242.23 467.688 Z" fill="#ffffff" fill-rule="evenodd" fill-opacity="0.8" stroke="#ff0000" stroke-opacity="0.8" stroke-width="2.4"/>
<path clip-path="url(#clip372)" d="M1130.95 541.627 L1114.95 557.627 L1130.95 573.627 L1146.95 557.627 L1130.95 541.627 Z" fill="#ffffff" fill-rule="evenodd" fill-opacity="0.8" stroke="#ff0000" stroke-opacity="0.8" stroke-width="2.4"/>
<path clip-path="url(#clip372)" d="M1032.76 581.977 L1016.76 597.977 L1032.76 613.977 L1048.76 597.977 L1032.76 581.977 Z" fill="#ffffff" fill-rule="evenodd" fill-opacity="0.8" stroke="#ff0000" stroke-opacity="0.8" stroke-width="2.4"/>
<path clip-path="url(#clip372)" d="M945.474 592.81 L929.474 608.81 L945.474 624.81 L961.474 608.81 L945.474 592.81 Z" fill="#ffffff" fill-rule="evenodd" fill-opacity="0.8" stroke="#ff0000" stroke-opacity="0.8" stroke-width="2.4"/>
<path clip-path="url(#clip372)" d="M867.38 583.297 L851.38 599.297 L867.38 615.297 L883.38 599.297 L867.38 583.297 Z" fill="#ffffff" fill-rule="evenodd" fill-opacity="0.8" stroke="#ff0000" stroke-opacity="0.8" stroke-width="2.4"/>
<path clip-path="url(#clip372)" d="M797.095 566.512 L781.095 582.512 L797.095 598.512 L813.095 582.512 L797.095 566.512 Z" fill="#ffffff" fill-rule="evenodd" fill-opacity="0.8" stroke="#ff0000" stroke-opacity="0.8" stroke-width="2.4"/>
<path clip-path="url(#clip372)" d="M675.694 610.312 L659.694 626.312 L675.694 642.312 L691.694 626.312 L675.694 610.312 Z" fill="#ffffff" fill-rule="evenodd" fill-opacity="0.8" stroke="#ff0000" stroke-opacity="0.8" stroke-width="2.4"/>
<path clip-path="url(#clip372)" d="M574.527 713.068 L558.527 729.068 L574.527 745.068 L590.527 729.068 L574.527 713.068 Z" fill="#ffffff" fill-rule="evenodd" fill-opacity="0.8" stroke="#ff0000" stroke-opacity="0.8" stroke-width="2.4"/>
<path clip-path="url(#clip372)" d="M488.924 796.319 L472.924 812.319 L488.924 828.319 L504.924 812.319 L488.924 796.319 Z" fill="#ffffff" fill-rule="evenodd" fill-opacity="0.8" stroke="#ff0000" stroke-opacity="0.8" stroke-width="2.4"/>
<path clip-path="url(#clip372)" d="M415.55 858.504 L399.55 874.504 L415.55 890.504 L431.55 874.504 L415.55 858.504 Z" fill="#ffffff" fill-rule="evenodd" fill-opacity="0.8" stroke="#ff0000" stroke-opacity="0.8" stroke-width="2.4"/>
<path clip-path="url(#clip372)" d="M296.317 954.658 L280.317 970.658 L296.317 986.658 L312.317 970.658 L296.317 954.658 Z" fill="#ffffff" fill-rule="evenodd" fill-opacity="0.8" stroke="#ff0000" stroke-opacity="0.8" stroke-width="2.4"/>
<path clip-path="url(#clip370)" d="
M302.823 338.605 L728.791 338.605 L728.791 79.4046 L302.823 79.4046  Z
  " fill="#ffffff" fill-rule="evenodd" fill-opacity="1"/>
<polyline clip-path="url(#clip370)" style="stroke:#000000; stroke-linecap:butt; stroke-linejoin:round; stroke-width:4; stroke-opacity:0; fill:none" points="
  302.823,338.605 728.791,338.605 728.791,79.4046 302.823,79.4046 302.823,338.605 
  "/>
<path clip-path="url(#clip370)" d="M328.291 112.205 L328.291 176.205 L392.291 176.205 L392.291 112.205 L328.291 112.205 Z" fill="#ffffff" fill-rule="evenodd" fill-opacity="0.8" stroke="#000000" stroke-opacity="0.8" stroke-width="4.8"/>
<path clip-path="url(#clip370)" d="M417.759 165.805 L417.759 163.859 L419.272 163.859 Q422.7 163.859 423.472 163.303 Q424.275 162.717 424.275 160.864 L424.275 127.545 Q424.275 125.723 423.472 125.168 Q422.669 124.581 419.272 124.581 L417.759 124.581 L417.759 122.605 L440.888 122.605 Q448.978 122.605 454.598 129.058 Q460.249 135.512 460.249 144.56 Q460.249 153.422 454.567 159.629 Q448.917 165.805 440.888 165.805 L417.759 165.805 M429.71 161.327 Q429.71 162.964 430.173 163.427 Q430.636 163.859 432.798 163.859 L439.19 163.859 Q443.358 163.859 446.168 162.161 Q448.978 160.432 450.43 158.455 Q453.919 153.7 453.919 144.56 Q453.919 134.956 450.646 130.448 Q446.415 124.581 439.128 124.581 L432.798 124.581 Q430.636 124.581 430.173 125.013 Q429.71 125.446 429.71 127.113 L429.71 161.327 Z" fill="#000000" fill-rule="evenodd" fill-opacity="1" /><path clip-path="url(#clip370)" d="M466.425 159.783 Q466.425 154.41 472.755 151.569 Q476.553 149.747 484.397 149.284 L484.397 146.968 Q484.397 143.047 482.328 140.978 Q480.29 138.878 477.696 138.878 Q473.064 138.878 470.841 141.781 Q472.724 141.842 473.404 142.8 Q474.083 143.726 474.083 144.683 Q474.083 145.949 473.28 146.783 Q472.508 147.586 471.18 147.586 Q469.914 147.586 469.081 146.814 Q468.247 146.011 468.247 144.621 Q468.247 141.534 471.026 139.496 Q473.836 137.458 477.819 137.458 Q483.007 137.458 486.466 140.947 Q487.546 142.028 488.071 143.417 Q488.627 144.807 488.689 145.733 Q488.751 146.629 488.751 148.42 L488.751 161.049 Q488.751 161.42 488.874 162.037 Q488.998 162.655 489.554 163.458 Q490.14 164.23 491.098 164.23 Q493.383 164.23 493.352 160.185 L493.352 156.633 L494.957 156.633 L494.957 160.185 Q494.957 163.55 493.166 164.878 Q491.406 166.175 489.77 166.175 Q487.67 166.175 486.342 164.631 Q485.014 163.087 484.829 160.987 Q483.872 163.396 481.679 164.971 Q479.518 166.515 476.553 166.515 Q474.268 166.515 472.107 165.928 Q469.976 165.372 468.185 163.797 Q466.425 162.192 466.425 159.783 M471.304 159.721 Q471.304 162.068 472.971 163.581 Q474.639 165.094 476.986 165.094 Q479.641 165.094 482.019 163.056 Q484.397 160.987 484.397 156.942 L484.397 150.612 Q477.387 150.859 474.33 153.669 Q471.304 156.448 471.304 159.721 Z" fill="#000000" fill-rule="evenodd" fill-opacity="1" /><path clip-path="url(#clip370)" d="M496.594 140.515 L496.594 139.125 Q499.497 139.001 501.411 136.963 Q503.357 134.895 504.005 132.362 Q504.684 129.83 504.746 126.897 L506.321 126.897 L506.321 138.538 L515.369 138.538 L515.369 140.515 L506.321 140.515 L506.321 158.085 Q506.321 164.909 510.582 164.909 Q512.404 164.909 513.608 163.056 Q514.813 161.173 514.813 157.838 L514.813 154.348 L516.388 154.348 L516.388 157.961 Q516.388 161.389 514.813 163.952 Q513.238 166.515 510.119 166.515 Q508.977 166.515 507.834 166.206 Q506.722 165.928 505.24 165.187 Q503.789 164.415 502.862 162.562 Q501.967 160.679 501.967 157.961 L501.967 140.515 L496.594 140.515 Z" fill="#000000" fill-rule="evenodd" fill-opacity="1" /><path clip-path="url(#clip370)" d="M522.563 159.783 Q522.563 154.41 528.894 151.569 Q532.692 149.747 540.535 149.284 L540.535 146.968 Q540.535 143.047 538.466 140.978 Q536.428 138.878 533.834 138.878 Q529.202 138.878 526.979 141.781 Q528.863 141.842 529.542 142.8 Q530.221 143.726 530.221 144.683 Q530.221 145.949 529.419 146.783 Q528.647 147.586 527.319 147.586 Q526.053 147.586 525.219 146.814 Q524.385 146.011 524.385 144.621 Q524.385 141.534 527.164 139.496 Q529.974 137.458 533.958 137.458 Q539.146 137.458 542.604 140.947 Q543.685 142.028 544.21 143.417 Q544.766 144.807 544.827 145.733 Q544.889 146.629 544.889 148.42 L544.889 161.049 Q544.889 161.42 545.013 162.037 Q545.136 162.655 545.692 163.458 Q546.279 164.23 547.236 164.23 Q549.521 164.23 549.49 160.185 L549.49 156.633 L551.096 156.633 L551.096 160.185 Q551.096 163.55 549.305 164.878 Q547.545 166.175 545.908 166.175 Q543.808 166.175 542.481 164.631 Q541.153 163.087 540.967 160.987 Q540.01 163.396 537.818 164.971 Q535.656 166.515 532.692 166.515 Q530.407 166.515 528.245 165.928 Q526.115 165.372 524.324 163.797 Q522.563 162.192 522.563 159.783 M527.442 159.721 Q527.442 162.068 529.11 163.581 Q530.777 165.094 533.124 165.094 Q535.78 165.094 538.157 163.056 Q540.535 160.987 540.535 156.942 L540.535 150.612 Q533.526 150.859 530.468 153.669 Q527.442 156.448 527.442 159.721 Z" fill="#000000" fill-rule="evenodd" fill-opacity="1" /><polyline clip-path="url(#clip370)" style="stroke:#0000ff; stroke-linecap:butt; stroke-linejoin:round; stroke-width:5; stroke-opacity:1; fill:none" stroke-dasharray="20, 13" points="
  317.19,209.005 403.392,209.005 
  "/>
<circle clip-path="url(#clip370)" cx="360.291" cy="209.005" r="28" fill="#ffffff" fill-rule="evenodd" fill-opacity="0.8" stroke="#0000ff" stroke-opacity="0.8" stroke-width="4.8"/>
<path clip-path="url(#clip370)" d="M417.759 230.605 L417.759 228.659 L419.427 228.659 Q422.978 228.659 423.781 228.103 Q424.615 227.517 424.615 225.664 L424.615 192.345 Q424.615 190.523 423.781 189.968 Q422.947 189.381 419.427 189.381 L417.759 189.381 L417.759 187.405 Q419.983 187.59 427.455 187.59 Q434.866 187.59 437.059 187.405 L437.059 189.381 L435.422 189.381 Q431.871 189.381 431.037 189.968 Q430.235 190.523 430.235 192.345 L430.235 225.664 Q430.235 227.486 431.037 228.073 Q431.871 228.659 435.422 228.659 L437.059 228.659 L437.059 230.605 Q434.836 230.419 427.394 230.419 Q419.983 230.419 417.759 230.605 Z" fill="#000000" fill-rule="evenodd" fill-opacity="1" /><path clip-path="url(#clip370)" d="M440.857 230.605 L440.857 228.659 Q444.223 228.659 444.995 228.258 Q445.767 227.825 445.767 225.787 L445.767 208.835 Q445.767 206.488 444.933 205.901 Q444.13 205.315 440.857 205.315 L440.857 203.338 L449.75 202.659 L449.75 209.298 Q452.715 202.659 459.107 202.659 Q463.862 202.659 465.746 205.006 Q467.135 206.581 467.413 208.341 Q467.722 210.101 467.722 214.671 L467.722 226.745 Q467.784 228.073 468.803 228.381 Q469.822 228.659 472.663 228.659 L472.663 230.605 Q466.209 230.419 465.56 230.419 Q465.066 230.419 458.427 230.605 L458.427 228.659 Q461.793 228.659 462.565 228.258 Q463.368 227.825 463.368 225.787 L463.368 211.058 Q463.368 207.847 462.38 205.963 Q461.392 204.049 458.674 204.049 Q455.401 204.049 452.776 206.797 Q450.152 209.545 450.152 214.177 L450.152 225.787 Q450.152 227.825 450.924 228.258 Q451.727 228.659 455.061 228.659 L455.061 230.605 Q448.608 230.419 447.99 230.419 Q447.496 230.419 440.857 230.605 Z" fill="#000000" fill-rule="evenodd" fill-opacity="1" /><path clip-path="url(#clip370)" d="M475.998 230.605 L475.998 228.659 Q479.363 228.659 480.135 228.258 Q480.907 227.825 480.907 225.787 L480.907 208.773 Q480.907 206.426 480.105 205.87 Q479.333 205.315 476.245 205.315 L476.245 203.338 L485.076 202.659 L485.076 225.849 Q485.076 227.733 485.755 228.196 Q486.435 228.659 489.523 228.659 L489.523 230.605 Q483.069 230.419 482.945 230.419 Q482.081 230.419 475.998 230.605 M478.653 191.635 Q478.653 190.369 479.61 189.35 Q480.599 188.3 481.988 188.3 Q483.378 188.3 484.366 189.257 Q485.354 190.184 485.354 191.666 Q485.354 193.117 484.366 194.075 Q483.378 195.001 481.988 195.001 Q480.537 195.001 479.58 193.982 Q478.653 192.963 478.653 191.635 Z" fill="#000000" fill-rule="evenodd" fill-opacity="1" /><path clip-path="url(#clip370)" d="M492.611 205.315 L492.611 203.925 Q495.513 203.801 497.428 201.763 Q499.373 199.695 500.022 197.162 Q500.701 194.63 500.763 191.697 L502.338 191.697 L502.338 203.338 L511.385 203.338 L511.385 205.315 L502.338 205.315 L502.338 222.885 Q502.338 229.709 506.599 229.709 Q508.421 229.709 509.625 227.856 Q510.829 225.973 510.829 222.638 L510.829 219.148 L512.404 219.148 L512.404 222.761 Q512.404 226.189 510.829 228.752 Q509.254 231.315 506.136 231.315 Q504.993 231.315 503.851 231.006 Q502.739 230.728 501.257 229.987 Q499.805 229.215 498.879 227.362 Q497.984 225.479 497.984 222.761 L497.984 205.315 L492.611 205.315 Z" fill="#000000" fill-rule="evenodd" fill-opacity="1" /><path clip-path="url(#clip370)" d="M518.024 230.605 L518.024 228.659 Q521.39 228.659 522.162 228.258 Q522.934 227.825 522.934 225.787 L522.934 208.773 Q522.934 206.426 522.131 205.87 Q521.359 205.315 518.271 205.315 L518.271 203.338 L527.103 202.659 L527.103 225.849 Q527.103 227.733 527.782 228.196 Q528.461 228.659 531.549 228.659 L531.549 230.605 Q525.096 230.419 524.972 230.419 Q524.107 230.419 518.024 230.605 M520.68 191.635 Q520.68 190.369 521.637 189.35 Q522.625 188.3 524.015 188.3 Q525.404 188.3 526.392 189.257 Q527.381 190.184 527.381 191.666 Q527.381 193.117 526.392 194.075 Q525.404 195.001 524.015 195.001 Q522.563 195.001 521.606 193.982 Q520.68 192.963 520.68 191.635 Z" fill="#000000" fill-rule="evenodd" fill-opacity="1" /><path clip-path="url(#clip370)" d="M536.089 224.583 Q536.089 219.21 542.419 216.369 Q546.217 214.547 554.06 214.084 L554.06 211.768 Q554.06 207.847 551.991 205.778 Q549.953 203.678 547.359 203.678 Q542.728 203.678 540.504 206.581 Q542.388 206.642 543.067 207.6 Q543.747 208.526 543.747 209.483 Q543.747 210.749 542.944 211.583 Q542.172 212.386 540.844 212.386 Q539.578 212.386 538.744 211.614 Q537.91 210.811 537.91 209.421 Q537.91 206.334 540.69 204.296 Q543.5 202.258 547.483 202.258 Q552.671 202.258 556.129 205.747 Q557.21 206.828 557.735 208.217 Q558.291 209.607 558.352 210.533 Q558.414 211.429 558.414 213.22 L558.414 225.849 Q558.414 226.22 558.538 226.837 Q558.661 227.455 559.217 228.258 Q559.804 229.03 560.761 229.03 Q563.046 229.03 563.015 224.985 L563.015 221.433 L564.621 221.433 L564.621 224.985 Q564.621 228.35 562.83 229.678 Q561.07 230.975 559.433 230.975 Q557.333 230.975 556.006 229.431 Q554.678 227.887 554.493 225.787 Q553.535 228.196 551.343 229.771 Q549.181 231.315 546.217 231.315 Q543.932 231.315 541.77 230.728 Q539.64 230.172 537.849 228.597 Q536.089 226.992 536.089 224.583 M540.967 224.521 Q540.967 226.868 542.635 228.381 Q544.302 229.894 546.649 229.894 Q549.305 229.894 551.683 227.856 Q554.06 225.787 554.06 221.742 L554.06 215.412 Q547.051 215.659 543.994 218.469 Q540.967 221.248 540.967 224.521 Z" fill="#000000" fill-rule="evenodd" fill-opacity="1" /><path clip-path="url(#clip370)" d="M567.153 230.605 L567.153 228.659 Q570.519 228.659 571.291 228.258 Q572.063 227.825 572.063 225.787 L572.063 192.901 Q572.063 190.554 571.229 189.968 Q570.426 189.381 567.153 189.381 L567.153 187.405 L576.231 186.725 L576.231 225.787 Q576.231 227.825 577.034 228.258 Q577.837 228.659 581.172 228.659 L581.172 230.605 Q580.4 230.605 578.794 230.543 Q577.189 230.481 576.015 230.45 Q574.842 230.419 574.163 230.419 Q573.421 230.419 567.153 230.605 Z" fill="#000000" fill-rule="evenodd" fill-opacity="1" /><polyline clip-path="url(#clip370)" style="stroke:#ff0000; stroke-linecap:butt; stroke-linejoin:round; stroke-width:5; stroke-opacity:1; fill:none" points="
  317.19,273.805 403.392,273.805 
  "/>
<path clip-path="url(#clip370)" d="M360.291 241.805 L328.291 273.805 L360.291 305.805 L392.291 273.805 L360.291 241.805 Z" fill="#ffffff" fill-rule="evenodd" fill-opacity="0.8" stroke="#ff0000" stroke-opacity="0.8" stroke-width="4.8"/>
<path clip-path="url(#clip370)" d="M417.759 273.974 Q417.759 264.309 423.935 257.578 Q430.142 250.815 438.757 250.815 Q447.434 250.815 453.61 257.578 Q459.817 264.34 459.817 273.974 Q459.817 283.516 453.61 290.155 Q447.403 296.794 438.757 296.794 Q430.235 296.794 423.997 290.186 Q417.759 283.578 417.759 273.974 M424.275 273.079 Q424.275 278.946 425.664 283.454 Q427.054 287.932 429.277 290.371 Q431.532 292.811 433.94 293.984 Q436.349 295.158 438.819 295.158 Q441.228 295.158 443.574 294.015 Q445.952 292.873 448.206 290.464 Q450.46 288.055 451.881 283.547 Q453.301 279.039 453.301 273.079 Q453.301 268.447 452.313 264.742 Q451.325 261.005 449.781 258.751 Q448.237 256.497 446.23 255.015 Q444.254 253.532 442.37 252.977 Q440.517 252.39 438.757 252.39 Q436.534 252.39 434.218 253.378 Q431.902 254.366 429.555 256.559 Q427.239 258.72 425.757 263.012 Q424.275 267.274 424.275 273.079 Z" fill="#000000" fill-rule="evenodd" fill-opacity="1" /><path clip-path="url(#clip370)" d="M465.097 305.718 Q468.463 305.718 469.235 305.286 Q470.038 304.885 470.038 302.877 L470.038 273.264 Q470.038 271.164 469.235 270.64 Q468.463 270.115 465.097 270.115 L465.097 268.138 L474.207 267.459 L474.207 271.628 Q478.005 267.459 483.069 267.459 Q488.442 267.459 492.364 271.628 Q496.285 275.796 496.285 281.756 Q496.285 287.777 492.117 291.946 Q487.948 296.115 482.173 296.115 Q479.024 296.115 476.893 294.509 Q474.793 292.873 474.392 291.668 L474.392 292.255 L474.392 302.877 Q474.392 304.915 475.195 305.317 Q475.998 305.718 479.333 305.718 L479.333 307.664 Q472.694 307.478 472.199 307.478 Q471.582 307.478 465.097 307.664 L465.097 305.718 M474.392 288.21 Q474.392 289.167 474.515 289.507 Q474.67 289.846 475.287 290.865 Q477.789 294.694 481.865 294.694 Q481.896 294.694 481.926 294.694 Q485.539 294.694 488.288 291.02 Q491.036 287.314 491.036 281.756 Q491.036 276.445 488.535 272.739 Q486.033 269.034 482.575 269.034 Q480.105 269.034 477.943 270.362 Q475.781 271.689 474.392 274.098 L474.392 288.21 Z" fill="#000000" fill-rule="evenodd" fill-opacity="1" /><path clip-path="url(#clip370)" d="M499.62 270.115 L499.62 268.725 Q502.523 268.601 504.437 266.563 Q506.383 264.495 507.031 261.962 Q507.711 259.43 507.772 256.497 L509.347 256.497 L509.347 268.138 L518.395 268.138 L518.395 270.115 L509.347 270.115 L509.347 287.685 Q509.347 294.509 513.608 294.509 Q515.43 294.509 516.635 292.656 Q517.839 290.773 517.839 287.438 L517.839 283.948 L519.414 283.948 L519.414 287.561 Q519.414 290.989 517.839 293.552 Q516.264 296.115 513.145 296.115 Q512.003 296.115 510.86 295.806 Q509.749 295.528 508.266 294.787 Q506.815 294.015 505.889 292.162 Q504.993 290.279 504.993 287.561 L504.993 270.115 L499.62 270.115 Z" fill="#000000" fill-rule="evenodd" fill-opacity="1" /><path clip-path="url(#clip370)" d="M525.034 295.405 L525.034 293.459 Q528.4 293.459 529.172 293.058 Q529.944 292.625 529.944 290.587 L529.944 273.573 Q529.944 271.226 529.141 270.67 Q528.369 270.115 525.281 270.115 L525.281 268.138 L534.112 267.459 L534.112 290.649 Q534.112 292.533 534.792 292.996 Q535.471 293.459 538.559 293.459 L538.559 295.405 Q532.105 295.219 531.982 295.219 Q531.117 295.219 525.034 295.405 M527.689 256.435 Q527.689 255.169 528.647 254.15 Q529.635 253.1 531.024 253.1 Q532.414 253.1 533.402 254.057 Q534.39 254.984 534.39 256.466 Q534.39 257.917 533.402 258.875 Q532.414 259.801 531.024 259.801 Q529.573 259.801 528.616 258.782 Q527.689 257.763 527.689 256.435 Z" fill="#000000" fill-rule="evenodd" fill-opacity="1" /><path clip-path="url(#clip370)" d="M542.481 295.405 L542.481 293.459 Q545.846 293.459 546.618 293.058 Q547.39 292.625 547.39 290.587 L547.39 273.635 Q547.39 271.288 546.557 270.701 Q545.754 270.115 542.481 270.115 L542.481 268.138 L551.374 267.459 L551.374 274.098 Q554.338 267.459 560.73 267.459 Q568.141 267.459 569.16 273.635 Q570.241 271.226 572.495 269.343 Q574.78 267.459 578.331 267.459 Q583.087 267.459 584.97 269.806 Q586.36 271.381 586.638 273.141 Q586.916 274.901 586.916 279.471 L586.916 291.545 Q586.977 292.873 587.996 293.181 Q589.015 293.459 591.856 293.459 L591.856 295.405 Q585.403 295.219 584.785 295.219 Q584.291 295.219 577.621 295.405 L577.621 293.459 Q580.987 293.459 581.759 293.058 Q582.562 292.625 582.562 290.587 L582.562 275.858 Q582.562 272.647 581.574 270.763 Q580.585 268.849 577.868 268.849 Q574.595 268.849 571.97 271.597 Q569.345 274.345 569.345 278.977 L569.345 290.587 Q569.345 292.625 570.117 293.058 Q570.92 293.459 574.286 293.459 L574.286 295.405 Q567.832 295.219 567.184 295.219 Q566.69 295.219 560.051 295.405 L560.051 293.459 Q563.417 293.459 564.189 293.058 Q564.991 292.625 564.991 290.587 L564.991 275.858 Q564.991 272.647 564.003 270.763 Q563.015 268.849 560.298 268.849 Q557.025 268.849 554.4 271.597 Q551.775 274.345 551.775 278.977 L551.775 290.587 Q551.775 292.625 552.547 293.058 Q553.35 293.459 556.685 293.459 L556.685 295.405 Q550.231 295.219 549.614 295.219 Q549.12 295.219 542.481 295.405 Z" fill="#000000" fill-rule="evenodd" fill-opacity="1" /><path clip-path="url(#clip370)" d="M595.191 295.405 L595.191 293.459 Q598.557 293.459 599.329 293.058 Q600.101 292.625 600.101 290.587 L600.101 273.573 Q600.101 271.226 599.298 270.67 Q598.526 270.115 595.438 270.115 L595.438 268.138 L604.27 267.459 L604.27 290.649 Q604.27 292.533 604.949 292.996 Q605.628 293.459 608.716 293.459 L608.716 295.405 Q602.263 295.219 602.139 295.219 Q601.274 295.219 595.191 295.405 M597.847 256.435 Q597.847 255.169 598.804 254.15 Q599.792 253.1 601.182 253.1 Q602.571 253.1 603.56 254.057 Q604.548 254.984 604.548 256.466 Q604.548 257.917 603.56 258.875 Q602.571 259.801 601.182 259.801 Q599.731 259.801 598.773 258.782 Q597.847 257.763 597.847 256.435 Z" fill="#000000" fill-rule="evenodd" fill-opacity="1" /><path clip-path="url(#clip370)" d="M612.36 294.509 Q612.36 294.077 612.947 293.367 L630.579 269.528 L623.384 269.528 Q618.382 269.528 616.745 271.381 Q615.139 273.202 614.83 278.328 L613.256 278.328 L613.966 268.138 L634.192 268.138 Q634.902 268.138 635.18 268.169 Q635.458 268.2 635.643 268.416 Q635.828 268.601 635.828 268.972 Q635.828 269.343 635.272 270.053 L617.671 293.83 L625.144 293.83 Q630.394 293.83 632.154 291.637 Q633.945 289.445 634.377 283.578 L635.952 283.578 L634.871 295.405 L614.028 295.405 Q613.009 295.405 612.669 295.281 Q612.36 295.127 612.36 294.509 Z" fill="#000000" fill-rule="evenodd" fill-opacity="1" /><path clip-path="url(#clip370)" d="M640.429 281.478 Q640.429 275.518 644.258 271.288 Q648.087 267.058 653.584 267.058 Q659.142 267.058 662.014 270.67 Q664.917 274.283 664.917 279.471 Q664.917 280.428 664.669 280.613 Q664.422 280.799 663.342 280.799 L645.679 280.799 Q645.679 287.253 647.593 290.279 Q650.249 294.509 654.726 294.509 Q655.344 294.509 656.085 294.386 Q656.826 294.262 658.339 293.737 Q659.852 293.181 661.18 291.73 Q662.508 290.279 663.28 287.994 Q663.465 287.098 664.083 287.129 Q664.917 287.129 664.917 287.87 Q664.917 288.426 664.299 289.692 Q663.712 290.927 662.57 292.409 Q661.427 293.892 659.204 295.003 Q657.011 296.115 654.356 296.115 Q648.798 296.115 644.598 291.915 Q640.429 287.685 640.429 281.478 M645.741 279.471 L660.748 279.471 Q660.748 278.143 660.501 276.661 Q660.285 275.179 659.605 273.141 Q658.957 271.072 657.413 269.775 Q655.869 268.478 653.584 268.478 Q652.565 268.478 651.453 268.91 Q650.372 269.343 649.045 270.392 Q647.717 271.442 646.79 273.82 Q645.864 276.198 645.741 279.471 Z" fill="#000000" fill-rule="evenodd" fill-opacity="1" /><path clip-path="url(#clip370)" d="M668.9 281.818 Q668.9 275.796 673.1 271.628 Q677.299 267.459 682.981 267.459 Q687.798 267.459 690.948 271.381 L690.948 257.701 Q690.948 255.354 690.114 254.768 Q689.311 254.181 686.038 254.181 L686.038 252.205 L695.147 251.525 L695.147 289.908 Q695.147 292.255 695.95 292.873 Q696.784 293.459 700.057 293.459 L700.057 295.405 L690.762 296.115 L690.762 291.915 Q687.489 296.084 682.302 296.115 Q676.867 296.115 672.883 291.946 Q668.9 287.777 668.9 281.818 M674.149 281.88 Q674.149 287.747 675.971 290.649 Q678.503 294.694 682.61 294.694 Q687.304 294.694 690.083 290.279 Q690.793 289.198 690.762 287.932 L690.762 274.963 Q690.762 273.697 690.083 272.647 Q687.489 268.849 683.259 268.849 Q678.843 268.849 676.095 272.894 Q674.149 275.92 674.149 281.88 Z" fill="#000000" fill-rule="evenodd" fill-opacity="1" /><path clip-path="url(#clip370)" d="M864.705 280.149 L874.253 280.149 L874.253 247.192 L863.865 249.276 L863.865 243.952 L874.195 241.868 L880.04 241.868 L880.04 280.149 L889.589 280.149 L889.589 285.068 L864.705 285.068 L864.705 280.149 Z" fill="#000000" fill-rule="evenodd" fill-opacity="1" /><path clip-path="url(#clip370)" d="M913.894 245.717 Q909.38 245.717 907.094 250.173 Q904.837 254.6 904.837 263.512 Q904.837 272.395 907.094 276.851 Q909.38 281.278 913.894 281.278 Q918.437 281.278 920.694 276.851 Q922.98 272.395 922.98 263.512 Q922.98 254.6 920.694 250.173 Q918.437 245.717 913.894 245.717 M913.894 241.087 Q921.157 241.087 924.976 246.845 Q928.825 252.574 928.825 263.512 Q928.825 274.42 924.976 280.178 Q921.157 285.907 913.894 285.907 Q906.631 285.907 902.783 280.178 Q898.964 274.42 898.964 263.512 Q898.964 252.574 902.783 246.845 Q906.631 241.087 913.894 241.087 Z" fill="#000000" fill-rule="evenodd" fill-opacity="1" /><path clip-path="url(#clip370)" d="M971.909 268.778 Q965.456 268.778 962.968 270.253 Q960.479 271.729 960.479 275.288 Q960.479 278.124 962.331 279.802 Q964.212 281.451 967.424 281.451 Q971.851 281.451 974.513 278.326 Q977.204 275.172 977.204 269.964 L977.204 268.778 L971.909 268.778 M982.528 266.579 L982.528 285.068 L977.204 285.068 L977.204 280.149 Q975.381 283.101 972.661 284.518 Q969.941 285.907 966.006 285.907 Q961.029 285.907 958.078 283.13 Q955.155 280.323 955.155 275.635 Q955.155 270.167 958.801 267.389 Q962.476 264.611 969.739 264.611 L977.204 264.611 L977.204 264.09 Q977.204 260.416 974.773 258.419 Q972.372 256.394 968.003 256.394 Q965.225 256.394 962.592 257.059 Q959.959 257.725 957.528 259.056 L957.528 254.137 Q960.451 253.008 963.199 252.458 Q965.948 251.88 968.552 251.88 Q975.584 251.88 979.056 255.526 Q982.528 259.171 982.528 266.579 Z" fill="#000000" fill-rule="evenodd" fill-opacity="1" /><path clip-path="url(#clip370)" d="M998.761 243.46 L998.761 252.661 L1009.73 252.661 L1009.73 256.799 L998.761 256.799 L998.761 274.391 Q998.761 278.355 999.831 279.484 Q1000.93 280.612 1004.26 280.612 L1009.73 280.612 L1009.73 285.068 L1004.26 285.068 Q998.095 285.068 995.751 282.782 Q993.408 280.468 993.408 274.391 L993.408 256.799 L989.501 256.799 L989.501 252.661 L993.408 252.661 L993.408 243.46 L998.761 243.46 Z" fill="#000000" fill-rule="evenodd" fill-opacity="1" /><path clip-path="url(#clip370)" d="M1041.96 258.882 Q1043.96 255.294 1046.73 253.587 Q1049.51 251.88 1053.27 251.88 Q1058.34 251.88 1061.09 255.439 Q1063.84 258.969 1063.84 265.508 L1063.84 285.068 L1058.48 285.068 L1058.48 265.682 Q1058.48 261.023 1056.83 258.766 Q1055.18 256.509 1051.8 256.509 Q1047.66 256.509 1045.26 259.258 Q1042.86 262.007 1042.86 266.752 L1042.86 285.068 L1037.5 285.068 L1037.5 265.682 Q1037.5 260.994 1035.86 258.766 Q1034.21 256.509 1030.76 256.509 Q1026.68 256.509 1024.28 259.287 Q1021.88 262.036 1021.88 266.752 L1021.88 285.068 L1016.53 285.068 L1016.53 252.661 L1021.88 252.661 L1021.88 257.696 Q1023.7 254.715 1026.25 253.298 Q1028.8 251.88 1032.3 251.88 Q1035.83 251.88 1038.29 253.674 Q1040.77 255.468 1041.96 258.882 Z" fill="#000000" fill-rule="evenodd" fill-opacity="1" /><path clip-path="url(#clip370)" d="M745.747 699.296 Q741.812 699.296 739.497 701.987 Q737.211 704.678 737.211 709.366 Q737.211 714.024 739.497 716.744 Q741.812 719.435 745.747 719.435 Q749.682 719.435 751.968 716.744 Q754.283 714.024 754.283 709.366 Q754.283 704.678 751.968 701.987 Q749.682 699.296 745.747 699.296 M757.35 680.98 L757.35 686.304 Q755.151 685.263 752.894 684.713 Q750.666 684.163 748.467 684.163 Q742.68 684.163 739.613 688.07 Q736.575 691.976 736.141 699.875 Q737.848 697.358 740.423 696.027 Q742.998 694.667 746.094 694.667 Q752.605 694.667 756.366 698.631 Q760.157 702.566 760.157 709.366 Q760.157 716.021 756.222 720.043 Q752.286 724.065 745.747 724.065 Q738.253 724.065 734.289 718.336 Q730.325 712.577 730.325 701.669 Q730.325 691.426 735.186 685.35 Q740.047 679.244 748.235 679.244 Q750.435 679.244 752.663 679.678 Q754.919 680.112 757.35 680.98 Z" fill="#000000" fill-rule="evenodd" fill-opacity="1" /><path clip-path="url(#clip370)" d="M782.726 683.874 Q778.212 683.874 775.926 688.33 Q773.669 692.757 773.669 701.669 Q773.669 710.552 775.926 715.008 Q778.212 719.435 782.726 719.435 Q787.269 719.435 789.526 715.008 Q791.812 710.552 791.812 701.669 Q791.812 692.757 789.526 688.33 Q787.269 683.874 782.726 683.874 M782.726 679.244 Q789.989 679.244 793.808 685.002 Q797.656 690.732 797.656 701.669 Q797.656 712.577 793.808 718.336 Q789.989 724.065 782.726 724.065 Q775.463 724.065 771.615 718.336 Q767.796 712.577 767.796 701.669 Q767.796 690.732 771.615 685.002 Q775.463 679.244 782.726 679.244 Z" fill="#000000" fill-rule="evenodd" fill-opacity="1" /><path clip-path="url(#clip370)" d="M840.741 706.935 Q834.288 706.935 831.8 708.411 Q829.311 709.887 829.311 713.446 Q829.311 716.281 831.163 717.959 Q833.044 719.609 836.256 719.609 Q840.683 719.609 843.345 716.484 Q846.036 713.33 846.036 708.121 L846.036 706.935 L840.741 706.935 M851.36 704.736 L851.36 723.226 L846.036 723.226 L846.036 718.307 Q844.213 721.258 841.493 722.676 Q838.773 724.065 834.838 724.065 Q829.861 724.065 826.91 721.287 Q823.987 718.48 823.987 713.793 Q823.987 708.324 827.633 705.546 Q831.308 702.769 838.571 702.769 L846.036 702.769 L846.036 702.248 Q846.036 698.573 843.605 696.576 Q841.204 694.551 836.835 694.551 Q834.057 694.551 831.424 695.216 Q828.791 695.882 826.36 697.213 L826.36 692.294 Q829.282 691.166 832.031 690.616 Q834.78 690.037 837.384 690.037 Q844.415 690.037 847.888 693.683 Q851.36 697.329 851.36 704.736 Z" fill="#000000" fill-rule="evenodd" fill-opacity="1" /><path clip-path="url(#clip370)" d="M867.592 681.617 L867.592 690.818 L878.559 690.818 L878.559 694.956 L867.592 694.956 L867.592 712.549 Q867.592 716.513 868.663 717.641 Q869.763 718.77 873.09 718.77 L878.559 718.77 L878.559 723.226 L873.09 723.226 Q866.927 723.226 864.583 720.94 Q862.239 718.625 862.239 712.549 L862.239 694.956 L858.333 694.956 L858.333 690.818 L862.239 690.818 L862.239 681.617 L867.592 681.617 Z" fill="#000000" fill-rule="evenodd" fill-opacity="1" /><path clip-path="url(#clip370)" d="M910.792 697.039 Q912.789 693.451 915.567 691.744 Q918.344 690.037 922.106 690.037 Q927.17 690.037 929.919 693.596 Q932.667 697.126 932.667 703.665 L932.667 723.226 L927.314 723.226 L927.314 703.839 Q927.314 699.181 925.665 696.924 Q924.016 694.667 920.63 694.667 Q916.493 694.667 914.091 697.416 Q911.689 700.164 911.689 704.91 L911.689 723.226 L906.336 723.226 L906.336 703.839 Q906.336 699.152 904.687 696.924 Q903.038 694.667 899.595 694.667 Q895.515 694.667 893.113 697.444 Q890.712 700.193 890.712 704.91 L890.712 723.226 L885.359 723.226 L885.359 690.818 L890.712 690.818 L890.712 695.853 Q892.534 692.873 895.081 691.455 Q897.627 690.037 901.128 690.037 Q904.658 690.037 907.118 691.831 Q909.606 693.625 910.792 697.039 Z" fill="#000000" fill-rule="evenodd" fill-opacity="1" /></svg>
