<?xml version="1.0" encoding="utf-8"?>
<svg xmlns="http://www.w3.org/2000/svg" xmlns:xlink="http://www.w3.org/1999/xlink" width="480" height="360" viewBox="0 0 1920 1440">
<defs>
  <clipPath id="clip000">
    <rect x="0" y="0" width="1920" height="1440"/>
  </clipPath>
</defs>
<path clip-path="url(#clip000)" d="
M0 1440 L1920 1440 L1920 0 L0 0  Z
  " fill="#ffffff" fill-rule="evenodd" fill-opacity="1"/>
<defs>
  <clipPath id="clip001">
    <rect x="384" y="0" width="1345" height="1345"/>
  </clipPath>
</defs>
<path clip-path="url(#clip000)" d="
M295.918 1230.22 L1872.76 1230.22 L1872.76 47.2441 L295.918 47.2441  Z
  " fill="#ffffff" fill-rule="evenodd" fill-opacity="1"/>
<defs>
  <clipPath id="clip002">
    <rect x="295" y="47" width="1578" height="1184"/>
  </clipPath>
</defs>
<polyline clip-path="url(#clip002)" style="stroke:#000000; stroke-linecap:butt; stroke-linejoin:round; stroke-width:2; stroke-opacity:0.1; fill:none" points="
  299.833,1230.22 299.833,47.2441 
  "/>
<polyline clip-path="url(#clip002)" style="stroke:#000000; stroke-linecap:butt; stroke-linejoin:round; stroke-width:2; stroke-opacity:0.1; fill:none" points="
  625.535,1230.22 625.535,47.2441 
  "/>
<polyline clip-path="url(#clip002)" style="stroke:#000000; stroke-linecap:butt; stroke-linejoin:round; stroke-width:2; stroke-opacity:0.1; fill:none" points="
  951.238,1230.22 951.238,47.2441 
  "/>
<polyline clip-path="url(#clip002)" style="stroke:#000000; stroke-linecap:butt; stroke-linejoin:round; stroke-width:2; stroke-opacity:0.1; fill:none" points="
  1276.94,1230.22 1276.94,47.2441 
  "/>
<polyline clip-path="url(#clip002)" style="stroke:#000000; stroke-linecap:butt; stroke-linejoin:round; stroke-width:2; stroke-opacity:0.1; fill:none" points="
  1602.64,1230.22 1602.64,47.2441 
  "/>
<polyline clip-path="url(#clip000)" style="stroke:#000000; stroke-linecap:butt; stroke-linejoin:round; stroke-width:4; stroke-opacity:1; fill:none" points="
  295.918,1230.22 1872.76,1230.22 
  "/>
<polyline clip-path="url(#clip000)" style="stroke:#000000; stroke-linecap:butt; stroke-linejoin:round; stroke-width:4; stroke-opacity:1; fill:none" points="
  295.918,47.2441 1872.76,47.2441 
  "/>
<polyline clip-path="url(#clip000)" style="stroke:#000000; stroke-linecap:butt; stroke-linejoin:round; stroke-width:4; stroke-opacity:1; fill:none" points="
  299.833,1230.22 299.833,1211.32 
  "/>
<polyline clip-path="url(#clip000)" style="stroke:#000000; stroke-linecap:butt; stroke-linejoin:round; stroke-width:4; stroke-opacity:1; fill:none" points="
  625.535,1230.22 625.535,1211.32 
  "/>
<polyline clip-path="url(#clip000)" style="stroke:#000000; stroke-linecap:butt; stroke-linejoin:round; stroke-width:4; stroke-opacity:1; fill:none" points="
  951.238,1230.22 951.238,1211.32 
  "/>
<polyline clip-path="url(#clip000)" style="stroke:#000000; stroke-linecap:butt; stroke-linejoin:round; stroke-width:4; stroke-opacity:1; fill:none" points="
  1276.94,1230.22 1276.94,1211.32 
  "/>
<polyline clip-path="url(#clip000)" style="stroke:#000000; stroke-linecap:butt; stroke-linejoin:round; stroke-width:4; stroke-opacity:1; fill:none" points="
  1602.64,1230.22 1602.64,1211.32 
  "/>
<path clip-path="url(#clip000)" d="M254.459 1286.11 Q254.459 1274.96 257.275 1268.88 Q261.203 1259.84 270.467 1259.84 Q272.431 1259.84 274.469 1260.39 Q276.544 1260.91 279.138 1262.95 Q281.769 1264.99 283.362 1268.32 Q286.401 1274.77 286.401 1286.11 Q286.401 1297.19 283.584 1303.23 Q279.471 1312.05 270.393 1312.05 Q266.984 1312.05 263.501 1310.31 Q260.054 1308.56 257.868 1304.38 Q254.459 1298.11 254.459 1286.11 M260.758 1285.18 Q260.758 1296.63 261.574 1301.19 Q262.5 1306.12 265.02 1308.27 Q267.577 1310.38 270.393 1310.38 Q273.431 1310.38 275.951 1308.12 Q278.508 1305.82 279.286 1300.89 Q280.138 1296.04 280.101 1285.18 Q280.101 1274.62 279.36 1270.4 Q278.36 1265.47 275.692 1263.51 Q273.061 1261.5 270.393 1261.5 Q269.392 1261.5 268.318 1261.8 Q267.28 1262.1 265.761 1262.95 Q264.242 1263.8 263.056 1265.91 Q261.907 1268.03 261.351 1271.21 Q260.758 1275.33 260.758 1285.18 Z" fill="#000000" fill-rule="evenodd" fill-opacity="1" /><path clip-path="url(#clip000)" d="M297.035 1309.16 Q295.887 1307.93 295.887 1306.34 Q295.887 1304.75 297.035 1303.6 Q298.184 1302.41 299.926 1302.41 Q301.593 1302.41 302.705 1303.52 Q303.853 1304.6 303.853 1306.38 Q303.853 1308.12 302.631 1309.27 Q301.445 1310.38 299.926 1310.38 Q298.184 1310.38 297.035 1309.16 Z" fill="#000000" fill-rule="evenodd" fill-opacity="1" /><path clip-path="url(#clip000)" d="M313.71 1286.41 Q313.71 1274.47 319.787 1267.17 Q325.864 1259.84 333.683 1259.84 Q338.241 1259.84 340.76 1262.17 Q343.317 1264.47 343.317 1268.03 Q343.317 1269.99 342.168 1270.84 Q341.02 1271.69 339.834 1271.69 Q338.463 1271.69 337.388 1270.77 Q336.314 1269.84 336.314 1268.17 Q336.314 1264.77 340.501 1264.77 Q338.537 1261.73 333.831 1261.73 Q332.386 1261.73 330.904 1262.17 Q329.421 1262.58 327.495 1263.99 Q325.568 1265.4 324.085 1267.62 Q322.603 1269.84 321.566 1274.03 Q320.528 1278.22 320.528 1283.66 L320.528 1285.48 Q323.641 1277.96 330.014 1277.99 Q336.388 1277.99 340.797 1282.85 Q345.207 1287.7 345.207 1294.89 Q345.207 1302.26 340.612 1307.16 Q336.017 1312.05 329.57 1312.05 Q326.679 1312.05 324.048 1310.82 Q321.455 1309.64 319.009 1306.9 Q316.6 1304.15 315.155 1298.89 Q313.71 1293.63 313.71 1286.41 M320.676 1293.22 Q320.676 1300.67 322.047 1304.23 Q322.27 1304.82 322.752 1305.64 Q323.27 1306.45 324.123 1307.53 Q325.012 1308.56 326.457 1309.27 Q327.902 1309.94 329.57 1309.94 Q334.646 1309.94 337.092 1305.01 Q338.389 1302.26 338.389 1294.82 Q338.389 1287.22 337.018 1284.44 Q334.683 1279.74 329.94 1279.74 Q326.753 1279.74 324.53 1281.92 Q322.344 1284.11 321.492 1287.04 Q320.676 1289.96 320.676 1293.22 Z" fill="#000000" fill-rule="evenodd" fill-opacity="1" /><path clip-path="url(#clip000)" d="M580.161 1286.11 Q580.161 1274.96 582.978 1268.88 Q586.905 1259.84 596.169 1259.84 Q598.133 1259.84 600.171 1260.39 Q602.246 1260.91 604.84 1262.95 Q607.471 1264.99 609.064 1268.32 Q612.103 1274.77 612.103 1286.11 Q612.103 1297.19 609.287 1303.23 Q605.174 1312.05 596.095 1312.05 Q592.686 1312.05 589.203 1310.31 Q585.757 1308.56 583.57 1304.38 Q580.161 1298.11 580.161 1286.11 M586.461 1285.18 Q586.461 1296.63 587.276 1301.19 Q588.202 1306.12 590.722 1308.27 Q593.279 1310.38 596.095 1310.38 Q599.134 1310.38 601.653 1308.12 Q604.21 1305.82 604.988 1300.89 Q605.841 1296.04 605.803 1285.18 Q605.803 1274.62 605.062 1270.4 Q604.062 1265.47 601.394 1263.51 Q598.763 1261.5 596.095 1261.5 Q595.095 1261.5 594.02 1261.8 Q592.982 1262.1 591.463 1262.95 Q589.944 1263.8 588.758 1265.91 Q587.609 1268.03 587.054 1271.21 Q586.461 1275.33 586.461 1285.18 Z" fill="#000000" fill-rule="evenodd" fill-opacity="1" /><path clip-path="url(#clip000)" d="M622.738 1309.16 Q621.589 1307.93 621.589 1306.34 Q621.589 1304.75 622.738 1303.6 Q623.886 1302.41 625.628 1302.41 Q627.295 1302.41 628.407 1303.52 Q629.556 1304.6 629.556 1306.38 Q629.556 1308.12 628.333 1309.27 Q627.147 1310.38 625.628 1310.38 Q623.886 1310.38 622.738 1309.16 Z" fill="#000000" fill-rule="evenodd" fill-opacity="1" /><path clip-path="url(#clip000)" d="M639.412 1298.93 Q639.412 1290.44 650.344 1284.96 Q645.638 1281.77 644.785 1280.85 Q641.45 1277.14 641.45 1272.51 Q641.45 1267.21 645.452 1263.54 Q649.491 1259.84 655.198 1259.84 Q660.645 1259.84 664.758 1262.99 Q668.871 1266.14 668.871 1271.14 Q668.871 1278.18 659.682 1282.92 Q665.759 1286.7 667.204 1288.3 Q670.909 1292.41 670.909 1297.63 Q670.909 1303.71 666.24 1307.9 Q661.571 1312.05 655.124 1312.05 Q648.824 1312.05 644.118 1308.38 Q639.412 1304.71 639.412 1298.93 M643.192 1298.93 Q643.192 1303.64 646.712 1306.79 Q650.27 1309.94 655.198 1309.94 Q659.978 1309.94 663.535 1307.19 Q667.13 1304.45 667.13 1300.37 Q667.13 1298.78 666.574 1297.41 Q666.055 1296.04 664.98 1294.96 Q663.943 1293.85 663.276 1293.37 Q662.646 1292.85 661.423 1292 L652.085 1286.11 Q643.192 1291.04 643.192 1298.93 M644.785 1269.55 Q644.785 1273.18 648.602 1275.7 L658.014 1281.77 Q665.536 1277.36 665.536 1271.14 Q665.536 1267.1 662.461 1264.43 Q659.385 1261.73 655.124 1261.73 Q650.937 1261.73 647.861 1263.95 Q644.785 1266.14 644.785 1269.55 Z" fill="#000000" fill-rule="evenodd" fill-opacity="1" /><path clip-path="url(#clip000)" d="M907.642 1267.06 L907.642 1264.69 Q916.758 1264.69 921.464 1259.84 Q922.761 1259.84 922.983 1260.13 Q923.205 1260.43 923.205 1261.8 L923.205 1304.38 Q923.205 1306.64 924.317 1307.34 Q925.429 1308.05 930.283 1308.05 L932.692 1308.05 L932.692 1310.38 Q930.024 1310.16 920.389 1310.16 Q910.755 1310.16 908.124 1310.38 L908.124 1308.05 L910.533 1308.05 Q915.313 1308.05 916.461 1307.38 Q917.61 1306.67 917.61 1304.38 L917.61 1265.06 Q913.645 1267.06 907.642 1267.06 Z" fill="#000000" fill-rule="evenodd" fill-opacity="1" /><path clip-path="url(#clip000)" d="M946.439 1309.16 Q945.29 1307.93 945.29 1306.34 Q945.29 1304.75 946.439 1303.6 Q947.588 1302.41 949.329 1302.41 Q950.997 1302.41 952.108 1303.52 Q953.257 1304.6 953.257 1306.38 Q953.257 1308.12 952.034 1309.27 Q950.849 1310.38 949.329 1310.38 Q947.588 1310.38 946.439 1309.16 Z" fill="#000000" fill-rule="evenodd" fill-opacity="1" /><path clip-path="url(#clip000)" d="M962.891 1286.11 Q962.891 1274.96 965.708 1268.88 Q969.635 1259.84 978.899 1259.84 Q980.863 1259.84 982.901 1260.39 Q984.976 1260.91 987.57 1262.95 Q990.201 1264.99 991.794 1268.32 Q994.833 1274.77 994.833 1286.11 Q994.833 1297.19 992.017 1303.23 Q987.904 1312.05 978.825 1312.05 Q975.416 1312.05 971.933 1310.31 Q968.487 1308.56 966.3 1304.38 Q962.891 1298.11 962.891 1286.11 M969.191 1285.18 Q969.191 1296.63 970.006 1301.19 Q970.932 1306.12 973.452 1308.27 Q976.009 1310.38 978.825 1310.38 Q981.864 1310.38 984.383 1308.12 Q986.94 1305.82 987.718 1300.89 Q988.571 1296.04 988.533 1285.18 Q988.533 1274.62 987.792 1270.4 Q986.792 1265.47 984.124 1263.51 Q981.493 1261.5 978.825 1261.5 Q977.825 1261.5 976.75 1261.8 Q975.712 1262.1 974.193 1262.95 Q972.674 1263.8 971.488 1265.91 Q970.339 1268.03 969.784 1271.21 Q969.191 1275.33 969.191 1285.18 Z" fill="#000000" fill-rule="evenodd" fill-opacity="1" /><path clip-path="url(#clip000)" d="M1233.75 1267.06 L1233.75 1264.69 Q1242.87 1264.69 1247.57 1259.84 Q1248.87 1259.84 1249.09 1260.13 Q1249.32 1260.43 1249.32 1261.8 L1249.32 1304.38 Q1249.32 1306.64 1250.43 1307.34 Q1251.54 1308.05 1256.39 1308.05 L1258.8 1308.05 L1258.8 1310.38 Q1256.13 1310.16 1246.5 1310.16 Q1236.86 1310.16 1234.23 1310.38 L1234.23 1308.05 L1236.64 1308.05 Q1241.42 1308.05 1242.57 1307.38 Q1243.72 1306.67 1243.72 1304.38 L1243.72 1265.06 Q1239.76 1267.06 1233.75 1267.06 Z" fill="#000000" fill-rule="evenodd" fill-opacity="1" /><path clip-path="url(#clip000)" d="M1272.55 1309.16 Q1271.4 1307.93 1271.4 1306.34 Q1271.4 1304.75 1272.55 1303.6 Q1273.7 1302.41 1275.44 1302.41 Q1277.11 1302.41 1278.22 1303.52 Q1279.37 1304.6 1279.37 1306.38 Q1279.37 1308.12 1278.14 1309.27 Q1276.96 1310.38 1275.44 1310.38 Q1273.7 1310.38 1272.55 1309.16 Z" fill="#000000" fill-rule="evenodd" fill-opacity="1" /><path clip-path="url(#clip000)" d="M1289.82 1310.38 Q1289.82 1309.01 1289.93 1308.6 Q1290.08 1308.19 1290.67 1307.56 L1305.23 1291.33 Q1313.2 1282.37 1313.2 1274.55 Q1313.2 1269.47 1310.53 1265.84 Q1307.9 1262.21 1303.05 1262.21 Q1299.71 1262.21 1296.89 1264.25 Q1294.08 1266.28 1292.78 1269.92 Q1293 1269.84 1293.78 1269.84 Q1295.67 1269.84 1296.71 1271.03 Q1297.78 1272.21 1297.78 1273.81 Q1297.78 1275.84 1296.45 1276.85 Q1295.15 1277.81 1293.86 1277.81 Q1293.34 1277.81 1292.63 1277.7 Q1291.97 1277.59 1290.89 1276.55 Q1289.82 1275.47 1289.82 1273.58 Q1289.82 1268.29 1293.82 1264.06 Q1297.86 1259.84 1304.01 1259.84 Q1310.97 1259.84 1315.53 1263.99 Q1320.13 1268.1 1320.13 1274.55 Q1320.13 1276.81 1319.42 1278.88 Q1318.76 1280.92 1317.83 1282.51 Q1316.94 1284.11 1314.5 1286.66 Q1312.05 1289.22 1310.09 1291.04 Q1308.12 1292.85 1303.71 1296.71 L1295.67 1304.53 L1309.34 1304.53 Q1316.01 1304.53 1316.53 1303.93 Q1317.27 1302.86 1318.2 1297.19 L1320.13 1297.19 L1317.98 1310.38 L1289.82 1310.38 Z" fill="#000000" fill-rule="evenodd" fill-opacity="1" /><path clip-path="url(#clip000)" d="M1558.62 1267.06 L1558.62 1264.69 Q1567.74 1264.69 1572.44 1259.84 Q1573.74 1259.84 1573.96 1260.13 Q1574.18 1260.43 1574.18 1261.8 L1574.18 1304.38 Q1574.18 1306.64 1575.3 1307.34 Q1576.41 1308.05 1581.26 1308.05 L1583.67 1308.05 L1583.67 1310.38 Q1581 1310.16 1571.37 1310.16 Q1561.73 1310.16 1559.1 1310.38 L1559.1 1308.05 L1561.51 1308.05 Q1566.29 1308.05 1567.44 1307.38 Q1568.59 1306.67 1568.59 1304.38 L1568.59 1265.06 Q1564.62 1267.06 1558.62 1267.06 Z" fill="#000000" fill-rule="evenodd" fill-opacity="1" /><path clip-path="url(#clip000)" d="M1597.42 1309.16 Q1596.27 1307.93 1596.27 1306.34 Q1596.27 1304.75 1597.42 1303.6 Q1598.57 1302.41 1600.31 1302.41 Q1601.98 1302.41 1603.09 1303.52 Q1604.24 1304.6 1604.24 1306.38 Q1604.24 1308.12 1603.01 1309.27 Q1601.83 1310.38 1600.31 1310.38 Q1598.57 1310.38 1597.42 1309.16 Z" fill="#000000" fill-rule="evenodd" fill-opacity="1" /><path clip-path="url(#clip000)" d="M1613.02 1297.86 L1613.02 1295.52 L1636.33 1259.91 Q1636.92 1258.98 1637.84 1259.02 Q1638.7 1259.02 1638.88 1259.36 Q1639.07 1259.69 1639.07 1260.99 L1639.07 1295.52 L1646.66 1295.52 L1646.66 1297.86 L1639.07 1297.86 L1639.07 1304.45 Q1639.07 1306.64 1639.96 1307.34 Q1640.88 1308.05 1644.81 1308.05 L1646.4 1308.05 L1646.4 1310.38 Q1643.29 1310.16 1636.1 1310.16 Q1628.95 1310.16 1625.84 1310.38 L1625.84 1308.05 L1627.43 1308.05 Q1631.36 1308.05 1632.29 1307.38 Q1633.21 1306.67 1633.21 1304.45 L1633.21 1297.86 L1613.02 1297.86 M1615.17 1295.52 L1633.66 1295.52 L1633.66 1267.21 L1615.17 1295.52 Z" fill="#000000" fill-rule="evenodd" fill-opacity="1" /><path clip-path="url(#clip000)" d="M868.362 1355.67 L868.362 1353.3 Q877.477 1353.3 882.183 1348.44 Q883.48 1348.44 883.703 1348.74 Q883.925 1349.04 883.925 1350.41 L883.925 1392.98 Q883.925 1395.25 885.037 1395.95 Q886.148 1396.65 891.002 1396.65 L893.411 1396.65 L893.411 1398.99 Q890.743 1398.77 881.109 1398.77 Q871.474 1398.77 868.844 1398.99 L868.844 1396.65 L871.252 1396.65 Q876.032 1396.65 877.181 1395.99 Q878.33 1395.28 878.33 1392.98 L878.33 1353.67 Q874.365 1355.67 868.362 1355.67 Z" fill="#000000" fill-rule="evenodd" fill-opacity="1" /><path clip-path="url(#clip000)" d="M902.527 1374.72 Q902.527 1363.56 905.343 1357.49 Q909.271 1348.44 918.534 1348.44 Q920.498 1348.44 922.536 1349 Q924.611 1349.52 927.205 1351.56 Q929.836 1353.6 931.429 1356.93 Q934.468 1363.38 934.468 1374.72 Q934.468 1385.8 931.652 1391.84 Q927.539 1400.66 918.46 1400.66 Q915.051 1400.66 911.568 1398.91 Q908.122 1397.17 905.936 1392.98 Q902.527 1386.72 902.527 1374.72 M908.826 1373.79 Q908.826 1385.24 909.641 1389.8 Q910.567 1394.73 913.087 1396.88 Q915.644 1398.99 918.46 1398.99 Q921.499 1398.99 924.018 1396.73 Q926.575 1394.43 927.353 1389.5 Q928.206 1384.65 928.169 1373.79 Q928.169 1363.23 927.428 1359.01 Q926.427 1354.08 923.759 1352.11 Q921.128 1350.11 918.46 1350.11 Q917.46 1350.11 916.385 1350.41 Q915.348 1350.71 913.828 1351.56 Q912.309 1352.41 911.123 1354.52 Q909.975 1356.63 909.419 1359.82 Q908.826 1363.93 908.826 1373.79 Z" fill="#000000" fill-rule="evenodd" fill-opacity="1" /><path clip-path="url(#clip000)" d="M940.471 1374.72 Q940.471 1363.56 943.287 1357.49 Q947.215 1348.44 956.479 1348.44 Q958.443 1348.44 960.481 1349 Q962.556 1349.52 965.15 1351.56 Q967.78 1353.6 969.374 1356.93 Q972.412 1363.38 972.412 1374.72 Q972.412 1385.8 969.596 1391.84 Q965.483 1400.66 956.405 1400.66 Q952.996 1400.66 949.512 1398.91 Q946.066 1397.17 943.88 1392.98 Q940.471 1386.72 940.471 1374.72 M946.77 1373.79 Q946.77 1385.24 947.585 1389.8 Q948.512 1394.73 951.032 1396.88 Q953.588 1398.99 956.405 1398.99 Q959.443 1398.99 961.963 1396.73 Q964.52 1394.43 965.298 1389.5 Q966.15 1384.65 966.113 1373.79 Q966.113 1363.23 965.372 1359.01 Q964.371 1354.08 961.703 1352.11 Q959.073 1350.11 956.405 1350.11 Q955.404 1350.11 954.329 1350.41 Q953.292 1350.71 951.773 1351.56 Q950.253 1352.41 949.068 1354.52 Q947.919 1356.63 947.363 1359.82 Q946.77 1363.93 946.77 1373.79 Z" fill="#000000" fill-rule="evenodd" fill-opacity="1" /><path clip-path="url(#clip000)" d="M978.415 1374.72 Q978.415 1363.56 981.231 1357.49 Q985.159 1348.44 994.423 1348.44 Q996.387 1348.44 998.425 1349 Q1000.5 1349.52 1003.09 1351.56 Q1005.72 1353.6 1007.32 1356.93 Q1010.36 1363.38 1010.36 1374.72 Q1010.36 1385.8 1007.54 1391.84 Q1003.43 1400.66 994.349 1400.66 Q990.94 1400.66 987.457 1398.91 Q984.011 1397.17 981.824 1392.98 Q978.415 1386.72 978.415 1374.72 M984.715 1373.79 Q984.715 1385.24 985.53 1389.8 Q986.456 1394.73 988.976 1396.88 Q991.533 1398.99 994.349 1398.99 Q997.387 1398.99 999.907 1396.73 Q1002.46 1394.43 1003.24 1389.5 Q1004.09 1384.65 1004.06 1373.79 Q1004.06 1363.23 1003.32 1359.01 Q1002.32 1354.08 999.648 1352.11 Q997.017 1350.11 994.349 1350.11 Q993.348 1350.11 992.274 1350.41 Q991.236 1350.71 989.717 1351.56 Q988.198 1352.41 987.012 1354.52 Q985.863 1356.63 985.308 1359.82 Q984.715 1363.93 984.715 1373.79 Z" fill="#000000" fill-rule="evenodd" fill-opacity="1" /><path clip-path="url(#clip000)" d="M1017.73 1416.89 Q1017.73 1416.51 1018.03 1415.7 L1044.82 1344.11 Q1044.82 1344.04 1045 1343.63 Q1045.19 1343.22 1045.3 1342.96 Q1045.41 1342.66 1045.63 1342.44 Q1045.89 1342.22 1046.19 1342.22 Q1046.93 1342.22 1046.93 1343.15 Q1046.93 1343.22 1046.71 1344.11 L1019.84 1415.77 Q1019.4 1417.07 1019.1 1417.44 Q1018.84 1417.81 1018.4 1417.81 Q1017.73 1417.81 1017.73 1416.89 Z" fill="#000000" fill-rule="evenodd" fill-opacity="1" /><path clip-path="url(#clip000)" d="M1054.08 1364.67 L1055.53 1347.63 L1101.88 1347.63 L1103.33 1364.67 L1101.44 1364.67 Q1101.14 1361.27 1100.85 1359.3 Q1100.59 1357.34 1099.92 1355.49 Q1099.29 1353.6 1098.47 1352.71 Q1097.7 1351.78 1096.18 1351.08 Q1094.66 1350.33 1092.69 1350.15 Q1090.73 1349.96 1087.76 1349.96 Q1084.28 1349.96 1083.43 1350.11 Q1082.5 1350.33 1082.28 1351 Q1082.06 1351.63 1082.06 1353 L1082.06 1392.98 Q1082.06 1394.5 1082.35 1395.13 Q1082.69 1395.73 1084.43 1396.21 Q1086.17 1396.65 1090.03 1396.65 L1093.06 1396.65 L1093.06 1398.99 Q1089.95 1398.77 1078.65 1398.77 Q1067.42 1398.77 1064.31 1398.99 L1064.31 1396.65 L1067.35 1396.65 Q1071.2 1396.65 1072.94 1396.21 Q1074.72 1395.73 1075.02 1395.13 Q1075.31 1394.5 1075.31 1392.98 L1075.31 1353 Q1075.31 1351.93 1075.24 1351.48 Q1075.17 1351.04 1074.83 1350.67 Q1074.5 1350.26 1073.72 1350.11 Q1072.98 1349.96 1069.64 1349.96 Q1066.68 1349.96 1064.68 1350.15 Q1062.72 1350.33 1061.2 1351.08 Q1059.68 1351.78 1058.86 1352.71 Q1058.08 1353.6 1057.42 1355.49 Q1056.79 1357.34 1056.53 1359.3 Q1056.27 1361.27 1055.97 1364.67 L1054.08 1364.67 Z" fill="#000000" fill-rule="evenodd" fill-opacity="1" /><path clip-path="url(#clip000)" d="M1139.23 1417.96 L1139.23 1342.07 L1150.68 1342.07 L1150.68 1343.81 L1144.31 1343.81 L1144.31 1416.22 L1150.68 1416.22 L1150.68 1417.96 L1139.23 1417.96 Z" fill="#000000" fill-rule="evenodd" fill-opacity="1" /><path clip-path="url(#clip000)" d="M1159.17 1355.67 L1159.17 1353.3 Q1168.29 1353.3 1172.99 1348.44 Q1174.29 1348.44 1174.51 1348.74 Q1174.73 1349.04 1174.73 1350.41 L1174.73 1392.98 Q1174.73 1395.25 1175.84 1395.95 Q1176.96 1396.65 1181.81 1396.65 L1184.22 1396.65 L1184.22 1398.99 Q1181.55 1398.77 1171.92 1398.77 Q1162.28 1398.77 1159.65 1398.99 L1159.65 1396.65 L1162.06 1396.65 Q1166.84 1396.65 1167.99 1395.99 Q1169.14 1395.28 1169.14 1392.98 L1169.14 1353.67 Q1165.17 1355.67 1159.17 1355.67 Z" fill="#000000" fill-rule="evenodd" fill-opacity="1" /><path clip-path="url(#clip000)" d="M1194.71 1416.89 Q1194.71 1416.51 1195 1415.7 L1221.79 1344.11 Q1221.79 1344.04 1221.98 1343.63 Q1222.16 1343.22 1222.27 1342.96 Q1222.39 1342.66 1222.61 1342.44 Q1222.87 1342.22 1223.16 1342.22 Q1223.9 1342.22 1223.9 1343.15 Q1223.9 1343.22 1223.68 1344.11 L1196.82 1415.77 Q1196.37 1417.07 1196.08 1417.44 Q1195.82 1417.81 1195.37 1417.81 Q1194.71 1417.81 1194.71 1416.89 Z" fill="#000000" fill-rule="evenodd" fill-opacity="1" /><path clip-path="url(#clip000)" d="M1230.83 1398.99 L1230.83 1396.65 L1232.65 1396.65 Q1236.76 1396.65 1237.69 1395.99 Q1238.65 1395.28 1238.65 1393.06 L1238.65 1353.08 Q1238.65 1350.89 1237.69 1350.22 Q1236.73 1349.52 1232.65 1349.52 L1230.83 1349.52 L1230.83 1347.15 Q1233.5 1347.37 1242.06 1347.37 Q1250.55 1347.37 1253.22 1347.15 L1253.22 1349.52 L1251.4 1349.52 Q1247.29 1349.52 1246.32 1350.22 Q1245.4 1350.89 1245.4 1353.08 L1245.4 1377.2 L1269.15 1354.52 Q1270.52 1353.3 1270.52 1352 Q1270.52 1351.56 1270.3 1351.08 Q1270.11 1350.56 1269.22 1350.04 Q1268.37 1349.52 1267 1349.52 L1267 1347.15 Q1269.59 1347.37 1276.67 1347.37 Q1281.15 1347.37 1283.12 1347.15 L1283.12 1349.52 Q1276.82 1349.59 1272.34 1354.08 L1258.66 1367.19 L1276.19 1392.98 Q1277.78 1395.32 1279.34 1395.99 Q1280.9 1396.65 1284.16 1396.65 L1284.16 1398.99 Q1279.38 1398.77 1275.45 1398.77 Q1267.26 1398.77 1264.59 1398.99 L1264.59 1396.65 Q1269.07 1396.65 1269.07 1394.36 Q1269.07 1393.5 1267.93 1391.76 L1254.18 1371.46 L1245.4 1379.79 L1245.4 1393.06 Q1245.4 1395.25 1246.32 1395.95 Q1247.29 1396.65 1251.4 1396.65 L1253.22 1396.65 L1253.22 1398.99 Q1250.55 1398.77 1241.99 1398.77 Q1233.5 1398.77 1230.83 1398.99 Z" fill="#000000" fill-rule="evenodd" fill-opacity="1" /><path clip-path="url(#clip000)" d="M1288.86 1416.22 L1295.24 1416.22 L1295.24 1343.81 L1288.86 1343.81 L1288.86 1342.07 L1300.31 1342.07 L1300.31 1417.96 L1288.86 1417.96 L1288.86 1416.22 Z" fill="#000000" fill-rule="evenodd" fill-opacity="1" /><polyline clip-path="url(#clip002)" style="stroke:#000000; stroke-linecap:butt; stroke-linejoin:round; stroke-width:2; stroke-opacity:0.1; fill:none" points="
  295.918,904.95 1872.76,904.95 
  "/>
<polyline clip-path="url(#clip002)" style="stroke:#000000; stroke-linecap:butt; stroke-linejoin:round; stroke-width:2; stroke-opacity:0.1; fill:none" points="
  295.918,424.763 1872.76,424.763 
  "/>
<polyline clip-path="url(#clip000)" style="stroke:#000000; stroke-linecap:butt; stroke-linejoin:round; stroke-width:4; stroke-opacity:1; fill:none" points="
  295.918,1230.22 295.918,47.2441 
  "/>
<polyline clip-path="url(#clip000)" style="stroke:#000000; stroke-linecap:butt; stroke-linejoin:round; stroke-width:4; stroke-opacity:1; fill:none" points="
  1872.76,1230.22 1872.76,47.2441 
  "/>
<polyline clip-path="url(#clip000)" style="stroke:#000000; stroke-linecap:butt; stroke-linejoin:round; stroke-width:4; stroke-opacity:1; fill:none" points="
  295.918,904.95 314.816,904.95 
  "/>
<polyline clip-path="url(#clip000)" style="stroke:#000000; stroke-linecap:butt; stroke-linejoin:round; stroke-width:4; stroke-opacity:1; fill:none" points="
  295.918,424.763 314.816,424.763 
  "/>
<path clip-path="url(#clip000)" d="M127.46 897.224 L127.46 894.853 Q136.576 894.853 141.282 889.999 Q142.579 889.999 142.801 890.295 Q143.023 890.591 143.023 891.962 L143.023 934.539 Q143.023 936.799 144.135 937.503 Q145.247 938.207 150.101 938.207 L152.509 938.207 L152.509 940.542 Q149.841 940.319 140.207 940.319 Q130.573 940.319 127.942 940.542 L127.942 938.207 L130.35 938.207 Q135.131 938.207 136.279 937.54 Q137.428 936.836 137.428 934.539 L137.428 895.223 Q133.463 897.224 127.46 897.224 Z" fill="#000000" fill-rule="evenodd" fill-opacity="1" /><path clip-path="url(#clip000)" d="M161.625 916.271 Q161.625 905.117 164.441 899.04 Q168.369 889.999 177.633 889.999 Q179.597 889.999 181.635 890.554 Q183.71 891.073 186.304 893.111 Q188.934 895.149 190.528 898.484 Q193.566 904.932 193.566 916.271 Q193.566 927.35 190.75 933.39 Q186.637 942.209 177.559 942.209 Q174.15 942.209 170.666 940.468 Q167.22 938.726 165.034 934.539 Q161.625 928.276 161.625 916.271 M167.924 915.344 Q167.924 926.794 168.739 931.352 Q169.666 936.28 172.186 938.43 Q174.742 940.542 177.559 940.542 Q180.597 940.542 183.117 938.281 Q185.674 935.984 186.452 931.056 Q187.304 926.201 187.267 915.344 Q187.267 904.784 186.526 900.559 Q185.525 895.631 182.857 893.667 Q180.227 891.666 177.559 891.666 Q176.558 891.666 175.483 891.962 Q174.446 892.259 172.927 893.111 Q171.407 893.963 170.222 896.076 Q169.073 898.188 168.517 901.374 Q167.924 905.488 167.924 915.344 Z" fill="#000000" fill-rule="evenodd" fill-opacity="1" /><path clip-path="url(#clip000)" d="M234.271 883.138 Q234.633 883.499 234.633 884.011 Q234.633 884.523 234.271 884.884 Q233.91 885.246 233.398 885.246 L194.801 885.246 Q194.289 885.246 193.928 884.884 Q193.566 884.523 193.566 884.011 Q193.566 883.499 193.928 883.138 Q194.289 882.777 194.801 882.777 L233.398 882.777 Q233.91 882.777 234.271 883.138 Z" fill="#000000" fill-rule="evenodd" fill-opacity="1" /><path clip-path="url(#clip000)" d="M239.781 889.25 L239.781 887.353 L258.718 858.42 Q259.2 857.667 259.953 857.697 Q260.645 857.697 260.796 857.968 Q260.946 858.239 260.946 859.293 L260.946 887.353 L267.118 887.353 L267.118 889.25 L260.946 889.25 L260.946 894.609 Q260.946 896.385 261.669 896.957 Q262.422 897.529 265.613 897.529 L266.908 897.529 L266.908 899.426 Q264.379 899.245 258.538 899.245 Q252.727 899.245 250.198 899.426 L250.198 897.529 L251.493 897.529 Q254.684 897.529 255.437 896.987 Q256.189 896.415 256.189 894.609 L256.189 889.25 L239.781 889.25 M241.527 887.353 L256.551 887.353 L256.551 864.351 L241.527 887.353 Z" fill="#000000" fill-rule="evenodd" fill-opacity="1" /><path clip-path="url(#clip000)" d="M128.815 417.037 L128.815 414.666 Q137.931 414.666 142.637 409.811 Q143.933 409.811 144.156 410.108 Q144.378 410.404 144.378 411.775 L144.378 454.352 Q144.378 456.612 145.49 457.316 Q146.601 458.02 151.456 458.02 L153.864 458.02 L153.864 460.354 Q151.196 460.132 141.562 460.132 Q131.928 460.132 129.297 460.354 L129.297 458.02 L131.705 458.02 Q136.485 458.02 137.634 457.353 Q138.783 456.649 138.783 454.352 L138.783 415.036 Q134.818 417.037 128.815 417.037 Z" fill="#000000" fill-rule="evenodd" fill-opacity="1" /><path clip-path="url(#clip000)" d="M162.98 436.083 Q162.98 424.93 165.796 418.853 Q169.724 409.811 178.988 409.811 Q180.951 409.811 182.989 410.367 Q185.065 410.886 187.658 412.924 Q190.289 414.962 191.883 418.297 Q194.921 424.745 194.921 436.083 Q194.921 447.163 192.105 453.203 Q187.992 462.022 178.913 462.022 Q175.504 462.022 172.021 460.28 Q168.575 458.539 166.389 454.352 Q162.98 448.089 162.98 436.083 M169.279 435.157 Q169.279 446.607 170.094 451.165 Q171.021 456.093 173.54 458.242 Q176.097 460.354 178.913 460.354 Q181.952 460.354 184.472 458.094 Q187.028 455.797 187.807 450.868 Q188.659 446.014 188.622 435.157 Q188.622 424.596 187.881 420.372 Q186.88 415.444 184.212 413.48 Q181.581 411.479 178.913 411.479 Q177.913 411.479 176.838 411.775 Q175.801 412.072 174.282 412.924 Q172.762 413.776 171.576 415.888 Q170.428 418.001 169.872 421.187 Q169.279 425.3 169.279 435.157 Z" fill="#000000" fill-rule="evenodd" fill-opacity="1" /><path clip-path="url(#clip000)" d="M235.626 402.951 Q235.987 403.312 235.987 403.824 Q235.987 404.336 235.626 404.697 Q235.265 405.058 234.753 405.058 L196.156 405.058 Q195.644 405.058 195.282 404.697 Q194.921 404.336 194.921 403.824 Q194.921 403.312 195.282 402.951 Q195.644 402.59 196.156 402.59 L234.753 402.59 Q235.265 402.59 235.626 402.951 Z" fill="#000000" fill-rule="evenodd" fill-opacity="1" /><path clip-path="url(#clip000)" d="M242.491 419.239 Q242.491 418.125 242.581 417.794 Q242.701 417.463 243.183 416.951 L255.015 403.764 Q261.488 396.478 261.488 390.125 Q261.488 386 259.321 383.05 Q257.183 380.099 253.239 380.099 Q250.529 380.099 248.241 381.755 Q245.953 383.411 244.899 386.362 Q245.08 386.302 245.712 386.302 Q247.248 386.302 248.091 387.265 Q248.964 388.228 248.964 389.523 Q248.964 391.179 247.88 391.992 Q246.826 392.775 245.772 392.775 Q245.351 392.775 244.779 392.684 Q244.237 392.594 243.364 391.751 Q242.491 390.878 242.491 389.342 Q242.491 385.037 245.742 381.605 Q249.024 378.173 254.022 378.173 Q259.682 378.173 263.385 381.545 Q267.118 384.887 267.118 390.125 Q267.118 391.962 266.546 393.648 Q266.004 395.304 265.252 396.598 Q264.529 397.893 262.542 399.97 Q260.555 402.048 258.959 403.523 Q257.364 404.998 253.781 408.129 L247.248 414.482 L258.357 414.482 Q263.776 414.482 264.198 414 Q264.8 413.127 265.553 408.521 L267.118 408.521 L265.372 419.239 L242.491 419.239 Z" fill="#000000" fill-rule="evenodd" fill-opacity="1" /><path clip-path="url(#clip000)" d="M83.1082 752.306 L80.7737 752.306 L80.7737 750.305 Q80.7737 746.043 80.1067 745.08 Q79.4027 744.079 77.1794 744.079 L37.197 744.079 Q35.0107 744.079 34.3437 745.08 Q33.6397 746.08 33.6397 750.305 L33.6397 752.306 L31.2682 752.306 Q31.4905 749.638 31.4905 740.67 Q31.4905 731.777 31.2682 729.146 L33.6397 729.146 L33.6397 731.11 Q33.6397 735.372 34.3437 736.372 Q35.0107 737.335 37.197 737.335 L77.1794 737.335 Q79.3656 737.335 80.0696 736.372 Q80.7737 735.372 80.7737 731.11 L80.7737 729.146 L83.1082 729.146 Q82.8858 731.814 82.8858 740.744 Q82.8858 749.638 83.1082 752.306 Z" fill="#000000" fill-rule="evenodd" fill-opacity="1" /><path clip-path="url(#clip000)" d="M83.1082 724.366 L80.7737 724.366 L80.7737 722.55 Q80.7737 718.437 80.1067 717.511 Q79.4027 716.548 77.1794 716.548 L37.197 716.548 Q35.0107 716.548 34.3437 717.511 Q33.6397 718.474 33.6397 722.55 L33.6397 724.366 L31.2682 724.366 L31.2682 696.612 Q31.2682 686.904 39.0127 680.16 Q46.7572 673.378 57.6143 673.378 Q68.2491 673.378 75.6971 680.197 Q83.1082 686.978 83.1082 696.612 L83.1082 724.366 M77.7352 710.026 Q79.6991 710.026 80.2549 709.47 Q80.7737 708.914 80.7737 706.32 L80.7737 698.65 Q80.7737 693.648 78.7357 690.276 Q76.6606 686.904 74.2891 685.162 Q68.5826 680.975 57.6143 680.975 Q46.0902 680.975 40.6801 684.903 Q33.6397 689.979 33.6397 698.724 L33.6397 706.32 Q33.6397 708.914 34.1585 709.47 Q34.6772 710.026 36.6782 710.026 L77.7352 710.026 Z" fill="#000000" fill-rule="evenodd" fill-opacity="1" /><path clip-path="url(#clip000)" d="M48.7952 666.412 L31.7499 664.967 L31.7499 618.611 L48.7952 617.166 L48.7952 619.056 Q45.3861 619.352 43.4222 619.649 Q41.4583 619.908 39.6055 620.575 Q37.7157 621.205 36.8264 622.02 Q35.9 622.798 35.196 624.318 Q34.4549 625.837 34.2696 627.801 Q34.0843 629.765 34.0843 632.729 Q34.0843 636.212 34.2326 637.064 Q34.4549 637.991 35.1219 638.213 Q35.7518 638.436 37.1229 638.436 L77.1052 638.436 Q78.6245 638.436 79.2544 638.139 Q79.8473 637.806 80.329 636.064 Q80.7737 634.322 80.7737 630.469 L80.7737 627.43 L83.1082 627.43 Q82.8858 630.543 82.8858 641.845 Q82.8858 653.072 83.1082 656.185 L80.7737 656.185 L80.7737 653.146 Q80.7737 649.293 80.329 647.551 Q79.8473 645.772 79.2544 645.476 Q78.6245 645.18 77.1052 645.18 L37.1229 645.18 Q36.0483 645.18 35.6036 645.254 Q35.1589 645.328 34.7884 645.661 Q34.3808 645.995 34.2326 646.773 Q34.0843 647.514 34.0843 650.849 Q34.0843 653.813 34.2696 655.814 Q34.4549 657.778 35.196 659.298 Q35.9 660.817 36.8264 661.632 Q37.7157 662.41 39.6055 663.077 Q41.4583 663.707 43.4222 663.966 Q45.3861 664.226 48.7952 664.522 L48.7952 666.412 Z" fill="#000000" fill-rule="evenodd" fill-opacity="1" /><path clip-path="url(#clip000)" d="M102.08 581.26 L26.1916 581.26 L26.1916 569.81 L27.9332 569.81 L27.9332 576.183 L100.339 576.183 L100.339 569.81 L102.08 569.81 L102.08 581.26 Z" fill="#000000" fill-rule="evenodd" fill-opacity="1" /><path clip-path="url(#clip000)" d="M82.1077 565.548 L72.1028 565.548 Q71.2505 565.548 70.9541 565.511 Q70.6577 565.474 70.4353 565.252 Q70.213 565.029 70.213 564.585 Q70.213 564.066 70.4353 563.881 Q70.6577 563.658 71.5099 563.51 Q76.7347 562.362 79.5138 559.916 Q82.2559 557.433 82.2559 552.95 Q82.2559 548.688 80.3661 546.539 Q78.4763 544.39 75.3637 544.39 Q69.8054 544.39 68.3973 552.283 Q67.4709 556.84 66.8781 558.73 Q66.2481 560.62 64.8771 562.287 Q62.2091 565.548 58.4295 565.548 Q54.6499 565.548 51.8708 562.695 Q49.0916 559.805 49.0916 553.431 Q49.0916 549.17 51.2408 546.28 Q50.5738 545.427 50.018 544.983 Q49.0916 543.982 49.0916 543.463 Q49.0916 542.871 49.4992 542.759 Q49.8698 542.648 50.9444 542.648 L58.5777 542.648 Q59.43 542.648 59.7264 542.685 Q60.0229 542.722 60.2452 542.945 Q60.4305 543.167 60.4305 543.649 Q60.4305 544.501 59.7264 544.538 Q50.5368 545.131 50.5368 553.431 Q50.5368 557.915 52.2784 559.916 Q53.9829 561.917 56.3174 561.917 Q57.6143 561.917 58.6148 561.324 Q59.5782 560.694 60.1711 559.916 Q60.7269 559.101 61.2827 557.618 Q61.8015 556.136 61.9868 555.247 Q62.1721 554.321 62.5426 552.579 Q63.6913 546.502 66.174 543.945 Q69.3607 540.758 73.3997 540.758 Q77.8834 540.758 80.9219 543.797 Q83.9604 546.835 83.9604 552.95 Q83.9604 557.878 80.6625 561.324 Q81.1072 561.769 81.5148 562.102 Q81.8853 562.436 82.0336 562.584 Q82.1818 562.695 82.2929 562.732 Q82.3671 562.769 82.4412 562.843 Q83.9604 564.363 83.9604 564.733 Q83.9604 565.326 83.5528 565.437 Q83.1823 565.548 82.1077 565.548 Z" fill="#000000" fill-rule="evenodd" fill-opacity="1" /><path clip-path="url(#clip000)" d="M100.339 536.608 L100.339 530.235 L27.9332 530.235 L27.9332 536.608 L26.1916 536.608 L26.1916 525.158 L102.08 525.158 L102.08 536.608 L100.339 536.608 Z" fill="#000000" fill-rule="evenodd" fill-opacity="1" /><path clip-path="url(#clip002)" d="M1812.13 155.788 L1812.13 187.788 L1844.13 187.788 L1844.13 155.788 L1812.13 155.788 Z" fill="#ffffff" fill-rule="evenodd" fill-opacity="0.8" stroke="#000000" stroke-opacity="0.8" stroke-width="2.88"/>
<path clip-path="url(#clip002)" d="M1633.17 241.603 L1633.17 273.603 L1665.17 273.603 L1665.17 241.603 L1633.17 241.603 Z" fill="#ffffff" fill-rule="evenodd" fill-opacity="0.8" stroke="#000000" stroke-opacity="0.8" stroke-width="2.88"/>
<path clip-path="url(#clip002)" d="M1478.07 288.944 L1478.07 320.944 L1510.07 320.944 L1510.07 288.944 L1478.07 288.944 Z" fill="#ffffff" fill-rule="evenodd" fill-opacity="0.8" stroke="#000000" stroke-opacity="0.8" stroke-width="2.88"/>
<path clip-path="url(#clip002)" d="M1342.37 302.429 L1342.37 334.429 L1374.37 334.429 L1374.37 302.429 L1342.37 302.429 Z" fill="#ffffff" fill-rule="evenodd" fill-opacity="0.8" stroke="#000000" stroke-opacity="0.8" stroke-width="2.88"/>
<path clip-path="url(#clip002)" d="M1222.62 297.887 L1222.62 329.887 L1254.62 329.887 L1254.62 297.887 L1222.62 297.887 Z" fill="#ffffff" fill-rule="evenodd" fill-opacity="0.8" stroke="#000000" stroke-opacity="0.8" stroke-width="2.88"/>
<path clip-path="url(#clip002)" d="M1116.18 281.315 L1116.18 313.315 L1148.18 313.315 L1148.18 281.315 L1116.18 281.315 Z" fill="#ffffff" fill-rule="evenodd" fill-opacity="0.8" stroke="#000000" stroke-opacity="0.8" stroke-width="2.88"/>
<path clip-path="url(#clip002)" d="M1020.95 330.283 L1020.95 362.283 L1052.95 362.283 L1052.95 330.283 L1020.95 330.283 Z" fill="#ffffff" fill-rule="evenodd" fill-opacity="0.8" stroke="#000000" stroke-opacity="0.8" stroke-width="2.88"/>
<path clip-path="url(#clip002)" d="M935.238 413.45 L935.238 445.45 L967.238 445.45 L967.238 413.45 L935.238 413.45 Z" fill="#ffffff" fill-rule="evenodd" fill-opacity="0.8" stroke="#000000" stroke-opacity="0.8" stroke-width="2.88"/>
<path clip-path="url(#clip002)" d="M787.191 574.768 L787.191 606.768 L819.191 606.768 L819.191 574.768 L787.191 574.768 Z" fill="#ffffff" fill-rule="evenodd" fill-opacity="0.8" stroke="#000000" stroke-opacity="0.8" stroke-width="2.88"/>
<path clip-path="url(#clip002)" d="M663.819 699.054 L663.819 731.054 L695.819 731.054 L695.819 699.054 L663.819 699.054 Z" fill="#ffffff" fill-rule="evenodd" fill-opacity="0.8" stroke="#000000" stroke-opacity="0.8" stroke-width="2.88"/>
<path clip-path="url(#clip002)" d="M559.427 795.209 L559.427 827.209 L591.427 827.209 L591.427 795.209 L559.427 795.209 Z" fill="#ffffff" fill-rule="evenodd" fill-opacity="0.8" stroke="#000000" stroke-opacity="0.8" stroke-width="2.88"/>
<path clip-path="url(#clip002)" d="M469.949 874.34 L469.949 906.34 L501.949 906.34 L501.949 874.34 L469.949 874.34 Z" fill="#ffffff" fill-rule="evenodd" fill-opacity="0.8" stroke="#000000" stroke-opacity="0.8" stroke-width="2.88"/>
<path clip-path="url(#clip002)" d="M324.546 1005.73 L324.546 1037.73 L356.546 1037.73 L356.546 1005.73 L324.546 1005.73 Z" fill="#ffffff" fill-rule="evenodd" fill-opacity="0.8" stroke="#000000" stroke-opacity="0.8" stroke-width="2.88"/>
<path clip-path="url(#clip002)" d="M1812.13 343.418 L1812.13 375.418 L1844.13 375.418 L1844.13 343.418 L1812.13 343.418 Z" fill="#ffffff" fill-rule="evenodd" fill-opacity="0.8" stroke="#000000" stroke-opacity="0.8" stroke-width="2.88"/>
<path clip-path="url(#clip002)" d="M1633.17 474.097 L1633.17 506.097 L1665.17 506.097 L1665.17 474.097 L1633.17 474.097 Z" fill="#ffffff" fill-rule="evenodd" fill-opacity="0.8" stroke="#000000" stroke-opacity="0.8" stroke-width="2.88"/>
<path clip-path="url(#clip002)" d="M1478.07 579.698 L1478.07 611.698 L1510.07 611.698 L1510.07 579.698 L1478.07 579.698 Z" fill="#ffffff" fill-rule="evenodd" fill-opacity="0.8" stroke="#000000" stroke-opacity="0.8" stroke-width="2.88"/>
<path clip-path="url(#clip002)" d="M1342.37 659.085 L1342.37 691.085 L1374.37 691.085 L1374.37 659.085 L1342.37 659.085 Z" fill="#ffffff" fill-rule="evenodd" fill-opacity="0.8" stroke="#000000" stroke-opacity="0.8" stroke-width="2.88"/>
<path clip-path="url(#clip002)" d="M1222.62 708.673 L1222.62 740.673 L1254.62 740.673 L1254.62 708.673 L1222.62 708.673 Z" fill="#ffffff" fill-rule="evenodd" fill-opacity="0.8" stroke="#000000" stroke-opacity="0.8" stroke-width="2.88"/>
<path clip-path="url(#clip002)" d="M1116.18 729.756 L1116.18 761.756 L1148.18 761.756 L1148.18 729.756 L1116.18 729.756 Z" fill="#ffffff" fill-rule="evenodd" fill-opacity="0.8" stroke="#000000" stroke-opacity="0.8" stroke-width="2.88"/>
<path clip-path="url(#clip002)" d="M1020.95 728.708 L1020.95 760.708 L1052.95 760.708 L1052.95 728.708 L1020.95 728.708 Z" fill="#ffffff" fill-rule="evenodd" fill-opacity="0.8" stroke="#000000" stroke-opacity="0.8" stroke-width="2.88"/>
<path clip-path="url(#clip002)" d="M935.238 711.117 L935.238 743.117 L967.238 743.117 L967.238 711.117 L935.238 711.117 Z" fill="#ffffff" fill-rule="evenodd" fill-opacity="0.8" stroke="#000000" stroke-opacity="0.8" stroke-width="2.88"/>
<path clip-path="url(#clip002)" d="M787.191 773.495 L787.191 805.495 L819.191 805.495 L819.191 773.495 L787.191 773.495 Z" fill="#ffffff" fill-rule="evenodd" fill-opacity="0.8" stroke="#000000" stroke-opacity="0.8" stroke-width="2.88"/>
<path clip-path="url(#clip002)" d="M663.819 882.538 L663.819 914.538 L695.819 914.538 L695.819 882.538 L663.819 882.538 Z" fill="#ffffff" fill-rule="evenodd" fill-opacity="0.8" stroke="#000000" stroke-opacity="0.8" stroke-width="2.88"/>
<path clip-path="url(#clip002)" d="M559.427 975.625 L559.427 1007.63 L591.427 1007.63 L591.427 975.625 L559.427 975.625 Z" fill="#ffffff" fill-rule="evenodd" fill-opacity="0.8" stroke="#000000" stroke-opacity="0.8" stroke-width="2.88"/>
<path clip-path="url(#clip002)" d="M469.949 1052.75 L469.949 1084.75 L501.949 1084.75 L501.949 1052.75 L469.949 1052.75 Z" fill="#ffffff" fill-rule="evenodd" fill-opacity="0.8" stroke="#000000" stroke-opacity="0.8" stroke-width="2.88"/>
<path clip-path="url(#clip002)" d="M324.546 1178.66 L324.546 1210.66 L356.546 1210.66 L356.546 1178.66 L324.546 1178.66 Z" fill="#ffffff" fill-rule="evenodd" fill-opacity="0.8" stroke="#000000" stroke-opacity="0.8" stroke-width="2.88"/>
<polyline clip-path="url(#clip002)" style="stroke:#0000ff; stroke-linecap:butt; stroke-linejoin:round; stroke-width:4; stroke-opacity:1; fill:none" stroke-dasharray="16, 10" points="
  1828.13,80.7245 1649.17,168.777 1494.07,220.791 1358.37,243.262 1238.62,254.162 1132.18,264.892 1036.95,321.898 951.238,408.964 803.191,578.185 679.819,710.474 
  575.427,809.772 485.949,886.978 340.546,1011.98 
  "/>
<circle clip-path="url(#clip002)" cx="1828.13" cy="80.7245" r="14" fill="#ffffff" fill-rule="evenodd" fill-opacity="0.8" stroke="#0000ff" stroke-opacity="0.8" stroke-width="2.88"/>
<circle clip-path="url(#clip002)" cx="1649.17" cy="168.777" r="14" fill="#ffffff" fill-rule="evenodd" fill-opacity="0.8" stroke="#0000ff" stroke-opacity="0.8" stroke-width="2.88"/>
<circle clip-path="url(#clip002)" cx="1494.07" cy="220.791" r="14" fill="#ffffff" fill-rule="evenodd" fill-opacity="0.8" stroke="#0000ff" stroke-opacity="0.8" stroke-width="2.88"/>
<circle clip-path="url(#clip002)" cx="1358.37" cy="243.262" r="14" fill="#ffffff" fill-rule="evenodd" fill-opacity="0.8" stroke="#0000ff" stroke-opacity="0.8" stroke-width="2.88"/>
<circle clip-path="url(#clip002)" cx="1238.62" cy="254.162" r="14" fill="#ffffff" fill-rule="evenodd" fill-opacity="0.8" stroke="#0000ff" stroke-opacity="0.8" stroke-width="2.88"/>
<circle clip-path="url(#clip002)" cx="1132.18" cy="264.892" r="14" fill="#ffffff" fill-rule="evenodd" fill-opacity="0.8" stroke="#0000ff" stroke-opacity="0.8" stroke-width="2.88"/>
<circle clip-path="url(#clip002)" cx="1036.95" cy="321.898" r="14" fill="#ffffff" fill-rule="evenodd" fill-opacity="0.8" stroke="#0000ff" stroke-opacity="0.8" stroke-width="2.88"/>
<circle clip-path="url(#clip002)" cx="951.238" cy="408.964" r="14" fill="#ffffff" fill-rule="evenodd" fill-opacity="0.8" stroke="#0000ff" stroke-opacity="0.8" stroke-width="2.88"/>
<circle clip-path="url(#clip002)" cx="803.191" cy="578.185" r="14" fill="#ffffff" fill-rule="evenodd" fill-opacity="0.8" stroke="#0000ff" stroke-opacity="0.8" stroke-width="2.88"/>
<circle clip-path="url(#clip002)" cx="679.819" cy="710.474" r="14" fill="#ffffff" fill-rule="evenodd" fill-opacity="0.8" stroke="#0000ff" stroke-opacity="0.8" stroke-width="2.88"/>
<circle clip-path="url(#clip002)" cx="575.427" cy="809.772" r="14" fill="#ffffff" fill-rule="evenodd" fill-opacity="0.8" stroke="#0000ff" stroke-opacity="0.8" stroke-width="2.88"/>
<circle clip-path="url(#clip002)" cx="485.949" cy="886.978" r="14" fill="#ffffff" fill-rule="evenodd" fill-opacity="0.8" stroke="#0000ff" stroke-opacity="0.8" stroke-width="2.88"/>
<circle clip-path="url(#clip002)" cx="340.546" cy="1011.98" r="14" fill="#ffffff" fill-rule="evenodd" fill-opacity="0.8" stroke="#0000ff" stroke-opacity="0.8" stroke-width="2.88"/>
<polyline clip-path="url(#clip002)" style="stroke:#0000ff; stroke-linecap:butt; stroke-linejoin:round; stroke-width:4; stroke-opacity:1; fill:none" stroke-dasharray="16, 10" points="
  1828.13,292.379 1649.17,417.928 1494.07,520.205 1358.37,598.025 1238.62,650.318 1132.18,679.795 1036.95,694.313 951.238,699.806 803.191,774.458 679.819,891.407 
  575.427,987.886 485.949,1063.7 340.546,1183.76 
  "/>
<circle clip-path="url(#clip002)" cx="1828.13" cy="292.379" r="14" fill="#ffffff" fill-rule="evenodd" fill-opacity="0.8" stroke="#0000ff" stroke-opacity="0.8" stroke-width="2.88"/>
<circle clip-path="url(#clip002)" cx="1649.17" cy="417.928" r="14" fill="#ffffff" fill-rule="evenodd" fill-opacity="0.8" stroke="#0000ff" stroke-opacity="0.8" stroke-width="2.88"/>
<circle clip-path="url(#clip002)" cx="1494.07" cy="520.205" r="14" fill="#ffffff" fill-rule="evenodd" fill-opacity="0.8" stroke="#0000ff" stroke-opacity="0.8" stroke-width="2.88"/>
<circle clip-path="url(#clip002)" cx="1358.37" cy="598.025" r="14" fill="#ffffff" fill-rule="evenodd" fill-opacity="0.8" stroke="#0000ff" stroke-opacity="0.8" stroke-width="2.88"/>
<circle clip-path="url(#clip002)" cx="1238.62" cy="650.318" r="14" fill="#ffffff" fill-rule="evenodd" fill-opacity="0.8" stroke="#0000ff" stroke-opacity="0.8" stroke-width="2.88"/>
<circle clip-path="url(#clip002)" cx="1132.18" cy="679.795" r="14" fill="#ffffff" fill-rule="evenodd" fill-opacity="0.8" stroke="#0000ff" stroke-opacity="0.8" stroke-width="2.88"/>
<circle clip-path="url(#clip002)" cx="1036.95" cy="694.313" r="14" fill="#ffffff" fill-rule="evenodd" fill-opacity="0.8" stroke="#0000ff" stroke-opacity="0.8" stroke-width="2.88"/>
<circle clip-path="url(#clip002)" cx="951.238" cy="699.806" r="14" fill="#ffffff" fill-rule="evenodd" fill-opacity="0.8" stroke="#0000ff" stroke-opacity="0.8" stroke-width="2.88"/>
<circle clip-path="url(#clip002)" cx="803.191" cy="774.458" r="14" fill="#ffffff" fill-rule="evenodd" fill-opacity="0.8" stroke="#0000ff" stroke-opacity="0.8" stroke-width="2.88"/>
<circle clip-path="url(#clip002)" cx="679.819" cy="891.407" r="14" fill="#ffffff" fill-rule="evenodd" fill-opacity="0.8" stroke="#0000ff" stroke-opacity="0.8" stroke-width="2.88"/>
<circle clip-path="url(#clip002)" cx="575.427" cy="987.886" r="14" fill="#ffffff" fill-rule="evenodd" fill-opacity="0.8" stroke="#0000ff" stroke-opacity="0.8" stroke-width="2.88"/>
<circle clip-path="url(#clip002)" cx="485.949" cy="1063.7" r="14" fill="#ffffff" fill-rule="evenodd" fill-opacity="0.8" stroke="#0000ff" stroke-opacity="0.8" stroke-width="2.88"/>
<circle clip-path="url(#clip002)" cx="340.546" cy="1183.76" r="14" fill="#ffffff" fill-rule="evenodd" fill-opacity="0.8" stroke="#0000ff" stroke-opacity="0.8" stroke-width="2.88"/>
<polyline clip-path="url(#clip002)" style="stroke:#ff0000; stroke-linecap:butt; stroke-linejoin:round; stroke-width:4; stroke-opacity:1; fill:none" points="
  1828.13,157.104 1649.17,251.283 1494.07,302.995 1358.37,319.606 1238.62,317.875 1132.18,313.627 1036.95,351.25 951.238,430.244 803.191,594.034 679.819,721.845 
  575.427,816.264 485.949,889.359 340.546,1010.29 
  "/>
<path clip-path="url(#clip002)" d="M1828.13 141.104 L1812.13 157.104 L1828.13 173.104 L1844.13 157.104 L1828.13 141.104 Z" fill="#ffffff" fill-rule="evenodd" fill-opacity="0.8" stroke="#ff0000" stroke-opacity="0.8" stroke-width="2.88"/>
<path clip-path="url(#clip002)" d="M1649.17 235.283 L1633.17 251.283 L1649.17 267.283 L1665.17 251.283 L1649.17 235.283 Z" fill="#ffffff" fill-rule="evenodd" fill-opacity="0.8" stroke="#ff0000" stroke-opacity="0.8" stroke-width="2.88"/>
<path clip-path="url(#clip002)" d="M1494.07 286.995 L1478.07 302.995 L1494.07 318.995 L1510.07 302.995 L1494.07 286.995 Z" fill="#ffffff" fill-rule="evenodd" fill-opacity="0.8" stroke="#ff0000" stroke-opacity="0.8" stroke-width="2.88"/>
<path clip-path="url(#clip002)" d="M1358.37 303.606 L1342.37 319.606 L1358.37 335.606 L1374.37 319.606 L1358.37 303.606 Z" fill="#ffffff" fill-rule="evenodd" fill-opacity="0.8" stroke="#ff0000" stroke-opacity="0.8" stroke-width="2.88"/>
<path clip-path="url(#clip002)" d="M1238.62 301.875 L1222.62 317.875 L1238.62 333.875 L1254.62 317.875 L1238.62 301.875 Z" fill="#ffffff" fill-rule="evenodd" fill-opacity="0.8" stroke="#ff0000" stroke-opacity="0.8" stroke-width="2.88"/>
<path clip-path="url(#clip002)" d="M1132.18 297.627 L1116.18 313.627 L1132.18 329.627 L1148.18 313.627 L1132.18 297.627 Z" fill="#ffffff" fill-rule="evenodd" fill-opacity="0.8" stroke="#ff0000" stroke-opacity="0.8" stroke-width="2.88"/>
<path clip-path="url(#clip002)" d="M1036.95 335.25 L1020.95 351.25 L1036.95 367.25 L1052.95 351.25 L1036.95 335.25 Z" fill="#ffffff" fill-rule="evenodd" fill-opacity="0.8" stroke="#ff0000" stroke-opacity="0.8" stroke-width="2.88"/>
<path clip-path="url(#clip002)" d="M951.238 414.244 L935.238 430.244 L951.238 446.244 L967.238 430.244 L951.238 414.244 Z" fill="#ffffff" fill-rule="evenodd" fill-opacity="0.8" stroke="#ff0000" stroke-opacity="0.8" stroke-width="2.88"/>
<path clip-path="url(#clip002)" d="M803.191 578.034 L787.191 594.034 L803.191 610.034 L819.191 594.034 L803.191 578.034 Z" fill="#ffffff" fill-rule="evenodd" fill-opacity="0.8" stroke="#ff0000" stroke-opacity="0.8" stroke-width="2.88"/>
<path clip-path="url(#clip002)" d="M679.819 705.845 L663.819 721.845 L679.819 737.845 L695.819 721.845 L679.819 705.845 Z" fill="#ffffff" fill-rule="evenodd" fill-opacity="0.8" stroke="#ff0000" stroke-opacity="0.8" stroke-width="2.88"/>
<path clip-path="url(#clip002)" d="M575.427 800.264 L559.427 816.264 L575.427 832.264 L591.427 816.264 L575.427 800.264 Z" fill="#ffffff" fill-rule="evenodd" fill-opacity="0.8" stroke="#ff0000" stroke-opacity="0.8" stroke-width="2.88"/>
<path clip-path="url(#clip002)" d="M485.949 873.359 L469.949 889.359 L485.949 905.359 L501.949 889.359 L485.949 873.359 Z" fill="#ffffff" fill-rule="evenodd" fill-opacity="0.8" stroke="#ff0000" stroke-opacity="0.8" stroke-width="2.88"/>
<path clip-path="url(#clip002)" d="M340.546 994.29 L324.546 1010.29 L340.546 1026.29 L356.546 1010.29 L340.546 994.29 Z" fill="#ffffff" fill-rule="evenodd" fill-opacity="0.8" stroke="#ff0000" stroke-opacity="0.8" stroke-width="2.88"/>
<polyline clip-path="url(#clip002)" style="stroke:#ff0000; stroke-linecap:butt; stroke-linejoin:round; stroke-width:4; stroke-opacity:1; fill:none" points="
  1828.13,338.084 1649.17,471.471 1494.07,579.718 1358.37,661.401 1238.62,715.35 1132.18,743.529 1036.95,751.892 951.238,748.291 803.191,795.635 679.819,903.751 
  575.427,995.394 485.949,1067.16 340.546,1181.65 
  "/>
<path clip-path="url(#clip002)" d="M1828.13 322.084 L1812.13 338.084 L1828.13 354.084 L1844.13 338.084 L1828.13 322.084 Z" fill="#ffffff" fill-rule="evenodd" fill-opacity="0.8" stroke="#ff0000" stroke-opacity="0.8" stroke-width="2.88"/>
<path clip-path="url(#clip002)" d="M1649.17 455.471 L1633.17 471.471 L1649.17 487.471 L1665.17 471.471 L1649.17 455.471 Z" fill="#ffffff" fill-rule="evenodd" fill-opacity="0.8" stroke="#ff0000" stroke-opacity="0.8" stroke-width="2.88"/>
<path clip-path="url(#clip002)" d="M1494.07 563.718 L1478.07 579.718 L1494.07 595.718 L1510.07 579.718 L1494.07 563.718 Z" fill="#ffffff" fill-rule="evenodd" fill-opacity="0.8" stroke="#ff0000" stroke-opacity="0.8" stroke-width="2.88"/>
<path clip-path="url(#clip002)" d="M1358.37 645.401 L1342.37 661.401 L1358.37 677.401 L1374.37 661.401 L1358.37 645.401 Z" fill="#ffffff" fill-rule="evenodd" fill-opacity="0.8" stroke="#ff0000" stroke-opacity="0.8" stroke-width="2.88"/>
<path clip-path="url(#clip002)" d="M1238.62 699.35 L1222.62 715.35 L1238.62 731.35 L1254.62 715.35 L1238.62 699.35 Z" fill="#ffffff" fill-rule="evenodd" fill-opacity="0.8" stroke="#ff0000" stroke-opacity="0.8" stroke-width="2.88"/>
<path clip-path="url(#clip002)" d="M1132.18 727.529 L1116.18 743.529 L1132.18 759.529 L1148.18 743.529 L1132.18 727.529 Z" fill="#ffffff" fill-rule="evenodd" fill-opacity="0.8" stroke="#ff0000" stroke-opacity="0.8" stroke-width="2.88"/>
<path clip-path="url(#clip002)" d="M1036.95 735.892 L1020.95 751.892 L1036.95 767.892 L1052.95 751.892 L1036.95 735.892 Z" fill="#ffffff" fill-rule="evenodd" fill-opacity="0.8" stroke="#ff0000" stroke-opacity="0.8" stroke-width="2.88"/>
<path clip-path="url(#clip002)" d="M951.238 732.291 L935.238 748.291 L951.238 764.291 L967.238 748.291 L951.238 732.291 Z" fill="#ffffff" fill-rule="evenodd" fill-opacity="0.8" stroke="#ff0000" stroke-opacity="0.8" stroke-width="2.88"/>
<path clip-path="url(#clip002)" d="M803.191 779.635 L787.191 795.635 L803.191 811.635 L819.191 795.635 L803.191 779.635 Z" fill="#ffffff" fill-rule="evenodd" fill-opacity="0.8" stroke="#ff0000" stroke-opacity="0.8" stroke-width="2.88"/>
<path clip-path="url(#clip002)" d="M679.819 887.751 L663.819 903.751 L679.819 919.751 L695.819 903.751 L679.819 887.751 Z" fill="#ffffff" fill-rule="evenodd" fill-opacity="0.8" stroke="#ff0000" stroke-opacity="0.8" stroke-width="2.88"/>
<path clip-path="url(#clip002)" d="M575.427 979.394 L559.427 995.394 L575.427 1011.39 L591.427 995.394 L575.427 979.394 Z" fill="#ffffff" fill-rule="evenodd" fill-opacity="0.8" stroke="#ff0000" stroke-opacity="0.8" stroke-width="2.88"/>
<path clip-path="url(#clip002)" d="M485.949 1051.16 L469.949 1067.16 L485.949 1083.16 L501.949 1067.16 L485.949 1051.16 Z" fill="#ffffff" fill-rule="evenodd" fill-opacity="0.8" stroke="#ff0000" stroke-opacity="0.8" stroke-width="2.88"/>
<path clip-path="url(#clip002)" d="M340.546 1165.65 L324.546 1181.65 L340.546 1197.65 L356.546 1181.65 L340.546 1165.65 Z" fill="#ffffff" fill-rule="evenodd" fill-opacity="0.8" stroke="#ff0000" stroke-opacity="0.8" stroke-width="2.88"/>
<polyline clip-path="url(#clip002)" style="stroke:#008000; stroke-linecap:butt; stroke-linejoin:round; stroke-width:4; stroke-opacity:1; fill:none" stroke-dasharray="16, 8, 2, 8" points="
  1828.13,171.117 1649.17,261.204 1494.07,308.012 1358.37,320.687 1238.62,314.126 1132.18,301.615 1036.95,348.939 951.238,431.063 803.191,591.999 679.819,715.907 
  575.427,809.662 485.949,886.317 340.546,1021.8 
  "/>
<path clip-path="url(#clip002)" d="M1828.13 155.117 L1824.37 165.933 L1812.91 166.173 L1822.05 173.101 L1818.72 184.061 L1828.13 177.517 L1837.54 184.061 L1834.21 173.101 L1843.34 166.173 L1831.89 165.933 L1828.13 155.117 Z" fill="#ffffff" fill-rule="evenodd" fill-opacity="0.8" stroke="#008000" stroke-opacity="0.8" stroke-width="2.88"/>
<path clip-path="url(#clip002)" d="M1649.17 245.204 L1645.41 256.02 L1633.96 256.26 L1643.09 263.188 L1639.76 274.148 L1649.17 267.604 L1658.58 274.148 L1655.25 263.188 L1664.39 256.26 L1652.93 256.02 L1649.17 245.204 Z" fill="#ffffff" fill-rule="evenodd" fill-opacity="0.8" stroke="#008000" stroke-opacity="0.8" stroke-width="2.88"/>
<path clip-path="url(#clip002)" d="M1494.07 292.012 L1490.31 302.828 L1478.86 303.068 L1487.99 309.996 L1484.67 320.956 L1494.07 314.412 L1503.48 320.956 L1500.15 309.996 L1509.29 303.068 L1497.83 302.828 L1494.07 292.012 Z" fill="#ffffff" fill-rule="evenodd" fill-opacity="0.8" stroke="#008000" stroke-opacity="0.8" stroke-width="2.88"/>
<path clip-path="url(#clip002)" d="M1358.37 304.687 L1354.61 315.503 L1343.15 315.743 L1352.29 322.671 L1348.96 333.631 L1358.37 327.087 L1367.77 333.631 L1364.45 322.671 L1373.58 315.743 L1362.13 315.503 L1358.37 304.687 Z" fill="#ffffff" fill-rule="evenodd" fill-opacity="0.8" stroke="#008000" stroke-opacity="0.8" stroke-width="2.88"/>
<path clip-path="url(#clip002)" d="M1238.62 298.126 L1234.86 308.942 L1223.41 309.182 L1232.54 316.11 L1229.21 327.07 L1238.62 320.526 L1248.03 327.07 L1244.7 316.11 L1253.84 309.182 L1242.38 308.942 L1238.62 298.126 Z" fill="#ffffff" fill-rule="evenodd" fill-opacity="0.8" stroke="#008000" stroke-opacity="0.8" stroke-width="2.88"/>
<path clip-path="url(#clip002)" d="M1132.18 285.615 L1128.42 296.431 L1116.97 296.671 L1126.1 303.599 L1122.78 314.559 L1132.18 308.015 L1141.59 314.559 L1138.26 303.599 L1147.4 296.671 L1135.94 296.431 L1132.18 285.615 Z" fill="#ffffff" fill-rule="evenodd" fill-opacity="0.8" stroke="#008000" stroke-opacity="0.8" stroke-width="2.88"/>
<path clip-path="url(#clip002)" d="M1036.95 332.939 L1033.19 343.755 L1021.73 343.995 L1030.87 350.923 L1027.54 361.883 L1036.95 355.339 L1046.36 361.883 L1043.03 350.923 L1052.16 343.995 L1040.71 343.755 L1036.95 332.939 Z" fill="#ffffff" fill-rule="evenodd" fill-opacity="0.8" stroke="#008000" stroke-opacity="0.8" stroke-width="2.88"/>
<path clip-path="url(#clip002)" d="M951.238 415.063 L947.478 425.879 L936.022 426.119 L945.158 433.047 L941.83 444.007 L951.238 437.463 L960.646 444.007 L957.318 433.047 L966.454 426.119 L954.998 425.879 L951.238 415.063 Z" fill="#ffffff" fill-rule="evenodd" fill-opacity="0.8" stroke="#008000" stroke-opacity="0.8" stroke-width="2.88"/>
<path clip-path="url(#clip002)" d="M803.191 575.999 L799.431 586.815 L787.975 587.055 L797.111 593.983 L793.783 604.943 L803.191 598.399 L812.599 604.943 L809.271 593.983 L818.407 587.055 L806.951 586.815 L803.191 575.999 Z" fill="#ffffff" fill-rule="evenodd" fill-opacity="0.8" stroke="#008000" stroke-opacity="0.8" stroke-width="2.88"/>
<path clip-path="url(#clip002)" d="M679.819 699.907 L676.059 710.723 L664.603 710.963 L673.739 717.891 L670.411 728.851 L679.819 722.307 L689.227 728.851 L685.899 717.891 L695.035 710.963 L683.579 710.723 L679.819 699.907 Z" fill="#ffffff" fill-rule="evenodd" fill-opacity="0.8" stroke="#008000" stroke-opacity="0.8" stroke-width="2.88"/>
<path clip-path="url(#clip002)" d="M575.427 793.662 L571.667 804.478 L560.211 804.718 L569.347 811.646 L566.019 822.606 L575.427 816.062 L584.835 822.606 L581.507 811.646 L590.643 804.718 L579.187 804.478 L575.427 793.662 Z" fill="#ffffff" fill-rule="evenodd" fill-opacity="0.8" stroke="#008000" stroke-opacity="0.8" stroke-width="2.88"/>
<path clip-path="url(#clip002)" d="M485.949 870.317 L482.189 881.133 L470.733 881.373 L479.869 888.301 L476.541 899.261 L485.949 892.717 L495.357 899.261 L492.029 888.301 L501.165 881.373 L489.709 881.133 L485.949 870.317 Z" fill="#ffffff" fill-rule="evenodd" fill-opacity="0.8" stroke="#008000" stroke-opacity="0.8" stroke-width="2.88"/>
<path clip-path="url(#clip002)" d="M340.546 1005.8 L336.786 1016.61 L325.33 1016.85 L334.466 1023.78 L331.138 1034.74 L340.546 1028.2 L349.954 1034.74 L346.626 1023.78 L355.762 1016.85 L344.306 1016.61 L340.546 1005.8 Z" fill="#ffffff" fill-rule="evenodd" fill-opacity="0.8" stroke="#008000" stroke-opacity="0.8" stroke-width="2.88"/>
<polyline clip-path="url(#clip002)" style="stroke:#008000; stroke-linecap:butt; stroke-linejoin:round; stroke-width:4; stroke-opacity:1; fill:none" stroke-dasharray="16, 8, 2, 8" points="
  1828.13,344.386 1649.17,478.229 1494.07,584.823 1358.37,663.178 1238.62,713.702 1132.18,739.351 1036.95,744.832 951.238,734.386 803.191,790.129 679.819,897.961 
  575.427,989.343 485.949,1064.96 340.546,1196.74 
  "/>
<path clip-path="url(#clip002)" d="M1828.13 328.386 L1824.37 339.202 L1812.91 339.442 L1822.05 346.37 L1818.72 357.33 L1828.13 350.786 L1837.54 357.33 L1834.21 346.37 L1843.34 339.442 L1831.89 339.202 L1828.13 328.386 Z" fill="#ffffff" fill-rule="evenodd" fill-opacity="0.8" stroke="#008000" stroke-opacity="0.8" stroke-width="2.88"/>
<path clip-path="url(#clip002)" d="M1649.17 462.229 L1645.41 473.045 L1633.96 473.285 L1643.09 480.213 L1639.76 491.173 L1649.17 484.629 L1658.58 491.173 L1655.25 480.213 L1664.39 473.285 L1652.93 473.045 L1649.17 462.229 Z" fill="#ffffff" fill-rule="evenodd" fill-opacity="0.8" stroke="#008000" stroke-opacity="0.8" stroke-width="2.88"/>
<path clip-path="url(#clip002)" d="M1494.07 568.823 L1490.31 579.639 L1478.86 579.879 L1487.99 586.807 L1484.67 597.767 L1494.07 591.223 L1503.48 597.767 L1500.15 586.807 L1509.29 579.879 L1497.83 579.639 L1494.07 568.823 Z" fill="#ffffff" fill-rule="evenodd" fill-opacity="0.8" stroke="#008000" stroke-opacity="0.8" stroke-width="2.88"/>
<path clip-path="url(#clip002)" d="M1358.37 647.178 L1354.61 657.994 L1343.15 658.234 L1352.29 665.162 L1348.96 676.122 L1358.37 669.578 L1367.77 676.122 L1364.45 665.162 L1373.58 658.234 L1362.13 657.994 L1358.37 647.178 Z" fill="#ffffff" fill-rule="evenodd" fill-opacity="0.8" stroke="#008000" stroke-opacity="0.8" stroke-width="2.88"/>
<path clip-path="url(#clip002)" d="M1238.62 697.702 L1234.86 708.518 L1223.41 708.758 L1232.54 715.686 L1229.21 726.646 L1238.62 720.102 L1248.03 726.646 L1244.7 715.686 L1253.84 708.758 L1242.38 708.518 L1238.62 697.702 Z" fill="#ffffff" fill-rule="evenodd" fill-opacity="0.8" stroke="#008000" stroke-opacity="0.8" stroke-width="2.88"/>
<path clip-path="url(#clip002)" d="M1132.18 723.351 L1128.42 734.167 L1116.97 734.407 L1126.1 741.335 L1122.78 752.295 L1132.18 745.751 L1141.59 752.295 L1138.26 741.335 L1147.4 734.407 L1135.94 734.167 L1132.18 723.351 Z" fill="#ffffff" fill-rule="evenodd" fill-opacity="0.8" stroke="#008000" stroke-opacity="0.8" stroke-width="2.88"/>
<path clip-path="url(#clip002)" d="M1036.95 728.832 L1033.19 739.648 L1021.73 739.888 L1030.87 746.816 L1027.54 757.776 L1036.95 751.232 L1046.36 757.776 L1043.03 746.816 L1052.16 739.888 L1040.71 739.648 L1036.95 728.832 Z" fill="#ffffff" fill-rule="evenodd" fill-opacity="0.8" stroke="#008000" stroke-opacity="0.8" stroke-width="2.88"/>
<path clip-path="url(#clip002)" d="M951.238 718.386 L947.478 729.202 L936.022 729.442 L945.158 736.37 L941.83 747.33 L951.238 740.786 L960.646 747.33 L957.318 736.37 L966.454 729.442 L954.998 729.202 L951.238 718.386 Z" fill="#ffffff" fill-rule="evenodd" fill-opacity="0.8" stroke="#008000" stroke-opacity="0.8" stroke-width="2.88"/>
<path clip-path="url(#clip002)" d="M803.191 774.129 L799.431 784.945 L787.975 785.185 L797.111 792.113 L793.783 803.073 L803.191 796.529 L812.599 803.073 L809.271 792.113 L818.407 785.185 L806.951 784.945 L803.191 774.129 Z" fill="#ffffff" fill-rule="evenodd" fill-opacity="0.8" stroke="#008000" stroke-opacity="0.8" stroke-width="2.88"/>
<path clip-path="url(#clip002)" d="M679.819 881.961 L676.059 892.777 L664.603 893.017 L673.739 899.945 L670.411 910.905 L679.819 904.361 L689.227 910.905 L685.899 899.945 L695.035 893.017 L683.579 892.777 L679.819 881.961 Z" fill="#ffffff" fill-rule="evenodd" fill-opacity="0.8" stroke="#008000" stroke-opacity="0.8" stroke-width="2.88"/>
<path clip-path="url(#clip002)" d="M575.427 973.343 L571.667 984.159 L560.211 984.399 L569.347 991.327 L566.019 1002.29 L575.427 995.743 L584.835 1002.29 L581.507 991.327 L590.643 984.399 L579.187 984.159 L575.427 973.343 Z" fill="#ffffff" fill-rule="evenodd" fill-opacity="0.8" stroke="#008000" stroke-opacity="0.8" stroke-width="2.88"/>
<path clip-path="url(#clip002)" d="M485.949 1048.96 L482.189 1059.77 L470.733 1060.01 L479.869 1066.94 L476.541 1077.9 L485.949 1071.36 L495.357 1077.9 L492.029 1066.94 L501.165 1060.01 L489.709 1059.77 L485.949 1048.96 Z" fill="#ffffff" fill-rule="evenodd" fill-opacity="0.8" stroke="#008000" stroke-opacity="0.8" stroke-width="2.88"/>
<path clip-path="url(#clip002)" d="M340.546 1180.74 L336.786 1191.56 L325.33 1191.8 L334.466 1198.72 L331.138 1209.68 L340.546 1203.14 L349.954 1209.68 L346.626 1198.72 L355.762 1191.8 L344.306 1191.56 L340.546 1180.74 Z" fill="#ffffff" fill-rule="evenodd" fill-opacity="0.8" stroke="#008000" stroke-opacity="0.8" stroke-width="2.88"/>
<path clip-path="url(#clip000)" d="
M348.48 410.677 L792.642 410.677 L792.642 86.6766 L348.48 86.6766  Z
  " fill="#ffffff" fill-rule="evenodd" fill-opacity="1"/>
<polyline clip-path="url(#clip000)" style="stroke:#000000; stroke-linecap:butt; stroke-linejoin:round; stroke-width:4; stroke-opacity:0; fill:none" points="
  348.48,410.677 792.642,410.677 792.642,86.6766 348.48,86.6766 348.48,410.677 
  "/>
<path clip-path="url(#clip000)" d="M386.561 119.477 L386.561 183.477 L450.561 183.477 L450.561 119.477 L386.561 119.477 Z" fill="#ffffff" fill-rule="evenodd" fill-opacity="0.8" stroke="#000000" stroke-opacity="0.8" stroke-width="5.76"/>
<path clip-path="url(#clip000)" d="M488.643 173.077 L488.643 171.131 L490.156 171.131 Q493.584 171.131 494.356 170.575 Q495.158 169.989 495.158 168.136 L495.158 134.817 Q495.158 132.995 494.356 132.44 Q493.553 131.853 490.156 131.853 L488.643 131.853 L488.643 129.877 L511.771 129.877 Q519.862 129.877 525.482 136.33 Q531.133 142.784 531.133 151.832 Q531.133 160.694 525.451 166.901 Q519.8 173.077 511.771 173.077 L488.643 173.077 M500.593 168.599 Q500.593 170.236 501.056 170.699 Q501.52 171.131 503.681 171.131 L510.073 171.131 Q514.242 171.131 517.052 169.433 Q519.862 167.704 521.313 165.727 Q524.802 160.972 524.802 151.832 Q524.802 142.228 521.529 137.72 Q517.299 131.853 510.011 131.853 L503.681 131.853 Q501.52 131.853 501.056 132.285 Q500.593 132.718 500.593 134.385 L500.593 168.599 Z" fill="#000000" fill-rule="evenodd" fill-opacity="1" /><path clip-path="url(#clip000)" d="M537.309 167.055 Q537.309 161.682 543.639 158.841 Q547.437 157.019 555.28 156.556 L555.28 154.24 Q555.28 150.319 553.211 148.25 Q551.173 146.15 548.579 146.15 Q543.948 146.15 541.724 149.053 Q543.608 149.114 544.287 150.072 Q544.967 150.998 544.967 151.955 Q544.967 153.221 544.164 154.055 Q543.392 154.858 542.064 154.858 Q540.798 154.858 539.964 154.086 Q539.13 153.283 539.13 151.893 Q539.13 148.806 541.91 146.768 Q544.72 144.73 548.703 144.73 Q553.891 144.73 557.349 148.219 Q558.43 149.3 558.955 150.689 Q559.511 152.079 559.572 153.005 Q559.634 153.901 559.634 155.692 L559.634 168.321 Q559.634 168.692 559.758 169.309 Q559.881 169.927 560.437 170.73 Q561.024 171.502 561.981 171.502 Q564.266 171.502 564.235 167.457 L564.235 163.905 L565.841 163.905 L565.841 167.457 Q565.841 170.822 564.05 172.15 Q562.29 173.447 560.653 173.447 Q558.553 173.447 557.226 171.903 Q555.898 170.359 555.713 168.259 Q554.755 170.668 552.563 172.243 Q550.401 173.787 547.437 173.787 Q545.152 173.787 542.99 173.2 Q540.86 172.644 539.069 171.069 Q537.309 169.464 537.309 167.055 M542.187 166.993 Q542.187 169.34 543.855 170.853 Q545.522 172.366 547.869 172.366 Q550.525 172.366 552.902 170.328 Q555.28 168.259 555.28 164.214 L555.28 157.884 Q548.271 158.131 545.214 160.941 Q542.187 163.72 542.187 166.993 Z" fill="#000000" fill-rule="evenodd" fill-opacity="1" /><path clip-path="url(#clip000)" d="M567.477 147.787 L567.477 146.397 Q570.38 146.273 572.295 144.235 Q574.24 142.167 574.888 139.634 Q575.568 137.102 575.63 134.169 L577.204 134.169 L577.204 145.81 L586.252 145.81 L586.252 147.787 L577.204 147.787 L577.204 165.357 Q577.204 172.181 581.466 172.181 Q583.288 172.181 584.492 170.328 Q585.696 168.445 585.696 165.11 L585.696 161.62 L587.271 161.62 L587.271 165.233 Q587.271 168.661 585.696 171.224 Q584.121 173.787 581.003 173.787 Q579.86 173.787 578.718 173.478 Q577.606 173.2 576.124 172.459 Q574.672 171.687 573.746 169.834 Q572.85 167.951 572.85 165.233 L572.85 147.787 L567.477 147.787 Z" fill="#000000" fill-rule="evenodd" fill-opacity="1" /><path clip-path="url(#clip000)" d="M593.447 167.055 Q593.447 161.682 599.777 158.841 Q603.575 157.019 611.419 156.556 L611.419 154.24 Q611.419 150.319 609.35 148.25 Q607.312 146.15 604.718 146.15 Q600.086 146.15 597.863 149.053 Q599.746 149.114 600.426 150.072 Q601.105 150.998 601.105 151.955 Q601.105 153.221 600.302 154.055 Q599.53 154.858 598.202 154.858 Q596.936 154.858 596.102 154.086 Q595.269 153.283 595.269 151.893 Q595.269 148.806 598.048 146.768 Q600.858 144.73 604.841 144.73 Q610.029 144.73 613.487 148.219 Q614.568 149.3 615.093 150.689 Q615.649 152.079 615.711 153.005 Q615.773 153.901 615.773 155.692 L615.773 168.321 Q615.773 168.692 615.896 169.309 Q616.02 169.927 616.575 170.73 Q617.162 171.502 618.119 171.502 Q620.404 171.502 620.374 167.457 L620.374 163.905 L621.979 163.905 L621.979 167.457 Q621.979 170.822 620.188 172.15 Q618.428 173.447 616.792 173.447 Q614.692 173.447 613.364 171.903 Q612.036 170.359 611.851 168.259 Q610.894 170.668 608.701 172.243 Q606.54 173.787 603.575 173.787 Q601.29 173.787 599.129 173.2 Q596.998 172.644 595.207 171.069 Q593.447 169.464 593.447 167.055 M598.326 166.993 Q598.326 169.34 599.993 170.853 Q601.661 172.366 604.008 172.366 Q606.663 172.366 609.041 170.328 Q611.419 168.259 611.419 164.214 L611.419 157.884 Q604.409 158.131 601.352 160.941 Q598.326 163.72 598.326 166.993 Z" fill="#000000" fill-rule="evenodd" fill-opacity="1" /><polyline clip-path="url(#clip000)" style="stroke:#0000ff; stroke-linecap:butt; stroke-linejoin:round; stroke-width:5; stroke-opacity:1; fill:none" stroke-dasharray="20, 13" points="
  366,216.277 471.122,216.277 
  "/>
<circle clip-path="url(#clip000)" cx="418.561" cy="216.277" r="28" fill="#ffffff" fill-rule="evenodd" fill-opacity="0.8" stroke="#0000ff" stroke-opacity="0.8" stroke-width="5.76"/>
<path clip-path="url(#clip000)" d="M488.643 237.753 L488.643 225.093 Q488.643 224.382 488.674 224.135 Q488.705 223.888 488.89 223.703 Q489.075 223.518 489.446 223.518 Q490.156 223.518 490.218 224.166 Q490.403 230.435 494.139 233.893 Q497.814 237.321 504.113 237.321 Q507.912 237.321 510.258 234.603 Q512.605 231.855 512.605 228.273 Q512.605 224.846 510.629 222.437 Q509.795 221.356 508.745 220.677 Q507.726 219.967 507.078 219.751 Q506.46 219.534 505.256 219.226 Q497.413 217.342 496.919 217.126 Q493.182 215.86 490.897 212.679 Q488.643 209.468 488.643 205.546 Q488.643 200.482 492.194 196.9 Q495.776 193.287 500.964 193.287 Q503.558 193.287 505.719 194.121 Q507.912 194.924 508.807 195.665 Q509.702 196.406 511.092 197.734 L513.284 194.121 Q513.779 193.287 514.242 193.287 Q514.736 193.287 514.828 193.596 Q514.952 193.874 514.952 194.8 L514.952 207.522 Q514.952 208.233 514.921 208.48 Q514.89 208.727 514.674 208.881 Q514.489 209.035 514.118 209.035 Q513.501 209.035 513.346 208.294 Q511.586 195.078 501.025 195.078 Q497.413 195.078 495.035 197.518 Q492.688 199.926 492.688 203.354 Q492.688 206.133 494.417 208.418 Q496.147 210.672 499.08 211.382 L507.17 213.328 Q511.216 214.285 513.933 217.867 Q516.65 221.449 516.65 226.112 Q516.65 231.485 513.13 235.375 Q509.641 239.266 504.175 239.266 Q500.253 239.266 497.227 237.969 Q494.201 236.672 492.565 234.85 Q491.298 236.95 490.465 238.124 L490.279 238.432 Q489.785 239.266 489.322 239.266 Q488.828 239.266 488.736 238.957 Q488.643 238.649 488.643 237.753 Z" fill="#000000" fill-rule="evenodd" fill-opacity="1" /><path clip-path="url(#clip000)" d="M522.27 237.877 L522.27 235.931 L523.783 235.931 Q527.211 235.931 527.983 235.375 Q528.786 234.789 528.786 232.936 L528.786 199.617 Q528.786 197.795 527.983 197.24 Q527.18 196.653 523.783 196.653 L522.27 196.653 L522.27 194.677 Q524.494 194.862 531.627 194.862 Q538.698 194.862 540.921 194.677 L540.921 196.653 L539.408 196.653 Q535.981 196.653 535.178 197.24 Q534.406 197.795 534.406 199.617 L534.406 219.72 L554.199 200.822 Q555.342 199.803 555.342 198.722 Q555.342 198.351 555.157 197.95 Q555.002 197.518 554.261 197.085 Q553.551 196.653 552.408 196.653 L552.408 194.677 Q554.57 194.862 560.468 194.862 Q564.204 194.862 565.841 194.677 L565.841 196.653 Q560.591 196.715 556.855 200.451 L545.461 211.382 L560.066 232.874 Q561.394 234.82 562.691 235.375 Q563.988 235.931 566.705 235.931 L566.705 237.877 Q562.722 237.691 559.449 237.691 Q552.625 237.691 550.401 237.877 L550.401 235.931 Q554.138 235.931 554.138 234.017 Q554.138 233.306 553.18 231.855 L541.724 214.933 L534.406 221.881 L534.406 232.936 Q534.406 234.758 535.178 235.345 Q535.981 235.931 539.408 235.931 L540.921 235.931 L540.921 237.877 Q538.698 237.691 531.565 237.691 Q524.494 237.691 522.27 237.877 Z" fill="#000000" fill-rule="evenodd" fill-opacity="1" /><path clip-path="url(#clip000)" d="M571.955 229.354 Q571.955 227.47 573.036 226.575 Q574.117 225.679 575.506 225.679 Q576.957 225.679 577.976 226.637 Q579.026 227.563 579.026 229.2 Q579.026 230.96 577.791 231.948 Q576.587 232.936 574.858 232.689 Q576.371 235.221 579.15 236.364 Q581.96 237.506 584.554 237.506 Q587.271 237.506 589.463 235.159 Q591.687 232.812 591.687 227.069 Q591.687 222.19 589.772 219.38 Q587.889 216.57 584.152 216.57 L581.373 216.57 Q580.416 216.57 580.138 216.477 Q579.86 216.385 579.86 215.86 Q579.86 215.242 580.817 215.119 Q581.775 215.119 583.288 214.933 Q586.962 214.81 588.908 211.629 Q590.668 208.665 590.668 204.434 Q590.668 200.575 588.815 198.969 Q586.993 197.332 584.615 197.332 Q582.392 197.332 579.953 198.259 Q577.513 199.185 576.185 201.254 Q580.107 201.254 580.107 204.434 Q580.107 205.824 579.212 206.75 Q578.347 207.646 576.896 207.646 Q575.506 207.646 574.58 206.781 Q573.653 205.886 573.653 204.373 Q573.653 200.76 576.865 198.259 Q580.107 195.757 584.862 195.757 Q589.556 195.757 593.015 198.228 Q596.504 200.698 596.504 204.496 Q596.504 208.233 594.034 211.29 Q591.563 214.347 587.642 215.613 Q592.459 216.57 595.331 219.843 Q598.202 223.085 598.202 227.069 Q598.202 232.01 594.312 235.653 Q590.421 239.266 584.739 239.266 Q579.489 239.266 575.722 236.425 Q571.955 233.584 571.955 229.354 Z" fill="#000000" fill-rule="evenodd" fill-opacity="1" /><path clip-path="url(#clip000)" d="M602.68 227.439 L602.68 225.494 L622.103 195.819 Q622.597 195.047 623.369 195.078 Q624.079 195.078 624.233 195.356 Q624.388 195.634 624.388 196.715 L624.388 225.494 L630.718 225.494 L630.718 227.439 L624.388 227.439 L624.388 232.936 Q624.388 234.758 625.129 235.345 Q625.901 235.931 629.174 235.931 L630.502 235.931 L630.502 237.877 Q627.908 237.691 621.918 237.691 Q615.958 237.691 613.364 237.877 L613.364 235.931 L614.692 235.931 Q617.965 235.931 618.737 235.375 Q619.509 234.789 619.509 232.936 L619.509 227.439 L602.68 227.439 M604.471 225.494 L619.879 225.494 L619.879 201.902 L604.471 225.494 Z" fill="#000000" fill-rule="evenodd" fill-opacity="1" /><polyline clip-path="url(#clip000)" style="stroke:#ff0000; stroke-linecap:butt; stroke-linejoin:round; stroke-width:5; stroke-opacity:1; fill:none" points="
  366,281.077 471.122,281.077 
  "/>
<path clip-path="url(#clip000)" d="M418.561 249.077 L386.561 281.077 L418.561 313.077 L450.561 281.077 L418.561 249.077 Z" fill="#ffffff" fill-rule="evenodd" fill-opacity="0.8" stroke="#ff0000" stroke-opacity="0.8" stroke-width="5.76"/>
<path clip-path="url(#clip000)" d="M488.643 302.553 L488.643 289.893 Q488.643 289.182 488.674 288.935 Q488.705 288.688 488.89 288.503 Q489.075 288.318 489.446 288.318 Q490.156 288.318 490.218 288.966 Q490.403 295.235 494.139 298.693 Q497.814 302.121 504.113 302.121 Q507.912 302.121 510.258 299.403 Q512.605 296.655 512.605 293.073 Q512.605 289.646 510.629 287.237 Q509.795 286.156 508.745 285.477 Q507.726 284.767 507.078 284.551 Q506.46 284.334 505.256 284.026 Q497.413 282.142 496.919 281.926 Q493.182 280.66 490.897 277.479 Q488.643 274.268 488.643 270.346 Q488.643 265.282 492.194 261.7 Q495.776 258.087 500.964 258.087 Q503.558 258.087 505.719 258.921 Q507.912 259.724 508.807 260.465 Q509.702 261.206 511.092 262.534 L513.284 258.921 Q513.779 258.087 514.242 258.087 Q514.736 258.087 514.828 258.396 Q514.952 258.674 514.952 259.6 L514.952 272.322 Q514.952 273.033 514.921 273.28 Q514.89 273.527 514.674 273.681 Q514.489 273.835 514.118 273.835 Q513.501 273.835 513.346 273.094 Q511.586 259.878 501.025 259.878 Q497.413 259.878 495.035 262.318 Q492.688 264.726 492.688 268.154 Q492.688 270.933 494.417 273.218 Q496.147 275.472 499.08 276.182 L507.17 278.128 Q511.216 279.085 513.933 282.667 Q516.65 286.249 516.65 290.912 Q516.65 296.285 513.13 300.175 Q509.641 304.066 504.175 304.066 Q500.253 304.066 497.227 302.769 Q494.201 301.472 492.565 299.65 Q491.298 301.75 490.465 302.924 L490.279 303.232 Q489.785 304.066 489.322 304.066 Q488.828 304.066 488.736 303.757 Q488.643 303.449 488.643 302.553 Z" fill="#000000" fill-rule="evenodd" fill-opacity="1" /><path clip-path="url(#clip000)" d="M522.27 302.677 L522.27 300.731 L523.783 300.731 Q527.211 300.731 527.983 300.175 Q528.786 299.589 528.786 297.736 L528.786 264.417 Q528.786 262.595 527.983 262.04 Q527.18 261.453 523.783 261.453 L522.27 261.453 L522.27 259.477 Q524.494 259.662 531.627 259.662 Q538.698 259.662 540.921 259.477 L540.921 261.453 L539.408 261.453 Q535.981 261.453 535.178 262.04 Q534.406 262.595 534.406 264.417 L534.406 284.52 L554.199 265.622 Q555.342 264.603 555.342 263.522 Q555.342 263.151 555.157 262.75 Q555.002 262.318 554.261 261.885 Q553.551 261.453 552.408 261.453 L552.408 259.477 Q554.57 259.662 560.468 259.662 Q564.204 259.662 565.841 259.477 L565.841 261.453 Q560.591 261.515 556.855 265.251 L545.461 276.182 L560.066 297.674 Q561.394 299.62 562.691 300.175 Q563.988 300.731 566.705 300.731 L566.705 302.677 Q562.722 302.491 559.449 302.491 Q552.625 302.491 550.401 302.677 L550.401 300.731 Q554.138 300.731 554.138 298.817 Q554.138 298.106 553.18 296.655 L541.724 279.733 L534.406 286.681 L534.406 297.736 Q534.406 299.558 535.178 300.145 Q535.981 300.731 539.408 300.731 L540.921 300.731 L540.921 302.677 Q538.698 302.491 531.565 302.491 Q524.494 302.491 522.27 302.677 Z" fill="#000000" fill-rule="evenodd" fill-opacity="1" /><path clip-path="url(#clip000)" d="M571.955 294.154 Q571.955 292.27 573.036 291.375 Q574.117 290.479 575.506 290.479 Q576.957 290.479 577.976 291.437 Q579.026 292.363 579.026 294 Q579.026 295.76 577.791 296.748 Q576.587 297.736 574.858 297.489 Q576.371 300.021 579.15 301.164 Q581.96 302.306 584.554 302.306 Q587.271 302.306 589.463 299.959 Q591.687 297.612 591.687 291.869 Q591.687 286.99 589.772 284.18 Q587.889 281.37 584.152 281.37 L581.373 281.37 Q580.416 281.37 580.138 281.277 Q579.86 281.185 579.86 280.66 Q579.86 280.042 580.817 279.919 Q581.775 279.919 583.288 279.733 Q586.962 279.61 588.908 276.429 Q590.668 273.465 590.668 269.234 Q590.668 265.375 588.815 263.769 Q586.993 262.132 584.615 262.132 Q582.392 262.132 579.953 263.059 Q577.513 263.985 576.185 266.054 Q580.107 266.054 580.107 269.234 Q580.107 270.624 579.212 271.55 Q578.347 272.446 576.896 272.446 Q575.506 272.446 574.58 271.581 Q573.653 270.686 573.653 269.173 Q573.653 265.56 576.865 263.059 Q580.107 260.557 584.862 260.557 Q589.556 260.557 593.015 263.028 Q596.504 265.498 596.504 269.296 Q596.504 273.033 594.034 276.09 Q591.563 279.147 587.642 280.413 Q592.459 281.37 595.331 284.643 Q598.202 287.885 598.202 291.869 Q598.202 296.81 594.312 300.453 Q590.421 304.066 584.739 304.066 Q579.489 304.066 575.722 301.225 Q571.955 298.384 571.955 294.154 Z" fill="#000000" fill-rule="evenodd" fill-opacity="1" /><path clip-path="url(#clip000)" d="M602.68 292.239 L602.68 290.294 L622.103 260.619 Q622.597 259.847 623.369 259.878 Q624.079 259.878 624.233 260.156 Q624.388 260.434 624.388 261.515 L624.388 290.294 L630.718 290.294 L630.718 292.239 L624.388 292.239 L624.388 297.736 Q624.388 299.558 625.129 300.145 Q625.901 300.731 629.174 300.731 L630.502 300.731 L630.502 302.677 Q627.908 302.491 621.918 302.491 Q615.958 302.491 613.364 302.677 L613.364 300.731 L614.692 300.731 Q617.965 300.731 618.737 300.175 Q619.509 299.589 619.509 297.736 L619.509 292.239 L602.68 292.239 M604.471 290.294 L619.879 290.294 L619.879 266.702 L604.471 290.294 Z" fill="#000000" fill-rule="evenodd" fill-opacity="1" /><path clip-path="url(#clip000)" d="M636.091 281.246 Q636.091 271.581 642.267 264.85 Q648.474 258.087 657.089 258.087 Q665.766 258.087 671.942 264.85 Q678.149 271.612 678.149 281.246 Q678.149 290.788 671.942 297.427 Q665.735 304.066 657.089 304.066 Q648.566 304.066 642.329 297.458 Q636.091 290.85 636.091 281.246 M642.607 280.351 Q642.607 286.218 643.996 290.726 Q645.386 295.204 647.609 297.643 Q649.863 300.083 652.272 301.256 Q654.68 302.43 657.151 302.43 Q659.559 302.43 661.906 301.287 Q664.284 300.145 666.538 297.736 Q668.792 295.327 670.213 290.819 Q671.633 286.311 671.633 280.351 Q671.633 275.719 670.645 272.014 Q669.657 268.277 668.113 266.023 Q666.569 263.769 664.562 262.287 Q662.585 260.804 660.702 260.249 Q658.849 259.662 657.089 259.662 Q654.866 259.662 652.55 260.65 Q650.234 261.638 647.887 263.831 Q645.571 265.992 644.089 270.284 Q642.607 274.546 642.607 280.351 Z" fill="#000000" fill-rule="evenodd" fill-opacity="1" /><path clip-path="url(#clip000)" d="M683.892 302.677 L683.892 300.731 L685.405 300.731 Q688.833 300.731 689.605 300.175 Q690.408 299.589 690.408 297.736 L690.408 264.417 Q690.408 262.595 689.605 262.04 Q688.802 261.453 685.405 261.453 L683.892 261.453 L683.892 259.477 L706.218 259.477 Q712.61 259.477 716.871 262.997 Q721.132 266.517 721.132 271.242 Q721.132 275.935 716.778 279.332 Q712.455 282.698 706.712 282.698 L696.028 282.698 L696.028 297.736 Q696.028 299.558 696.8 300.145 Q697.602 300.731 701.03 300.731 L702.543 300.731 L702.543 302.677 Q700.32 302.491 693.187 302.491 Q686.115 302.491 683.892 302.677 M695.842 281.061 L704.55 281.061 Q707.391 281.061 709.46 280.258 Q711.529 279.455 712.455 278.498 Q713.413 277.51 713.938 275.935 Q714.493 274.33 714.555 273.465 Q714.617 272.569 714.617 271.242 Q714.617 269.852 714.555 268.987 Q714.493 268.092 713.938 266.517 Q713.413 264.911 712.455 263.954 Q711.529 262.966 709.46 262.225 Q707.422 261.453 704.55 261.453 L698.93 261.453 Q696.769 261.453 696.305 261.885 Q695.842 262.318 695.842 263.985 L695.842 281.061 Z" fill="#000000" fill-rule="evenodd" fill-opacity="1" /><path clip-path="url(#clip000)" d="M725.548 296.655 Q725.548 291.282 731.878 288.441 Q735.676 286.619 743.52 286.156 L743.52 283.84 Q743.52 279.919 741.451 277.85 Q739.413 275.75 736.819 275.75 Q732.187 275.75 729.964 278.653 Q731.847 278.714 732.527 279.672 Q733.206 280.598 733.206 281.555 Q733.206 282.821 732.403 283.655 Q731.631 284.458 730.303 284.458 Q729.037 284.458 728.204 283.686 Q727.37 282.883 727.37 281.493 Q727.37 278.406 730.149 276.368 Q732.959 274.33 736.943 274.33 Q742.13 274.33 745.589 277.819 Q746.669 278.9 747.194 280.289 Q747.75 281.679 747.812 282.605 Q747.874 283.501 747.874 285.292 L747.874 297.921 Q747.874 298.292 747.997 298.909 Q748.121 299.527 748.677 300.33 Q749.263 301.102 750.221 301.102 Q752.506 301.102 752.475 297.057 L752.475 293.505 L754.08 293.505 L754.08 297.057 Q754.08 300.422 752.289 301.75 Q750.529 303.047 748.893 303.047 Q746.793 303.047 745.465 301.503 Q744.137 299.959 743.952 297.859 Q742.995 300.268 740.802 301.843 Q738.641 303.387 735.676 303.387 Q733.391 303.387 731.23 302.8 Q729.099 302.244 727.308 300.669 Q725.548 299.064 725.548 296.655 M730.427 296.593 Q730.427 298.94 732.094 300.453 Q733.762 301.966 736.109 301.966 Q738.764 301.966 741.142 299.928 Q743.52 297.859 743.52 293.814 L743.52 287.484 Q736.51 287.731 733.453 290.541 Q730.427 293.32 730.427 296.593 Z" fill="#000000" fill-rule="evenodd" fill-opacity="1" /><polyline clip-path="url(#clip000)" style="stroke:#008000; stroke-linecap:butt; stroke-linejoin:round; stroke-width:5; stroke-opacity:1; fill:none" stroke-dasharray="20, 10, 3, 10" points="
  366,345.877 471.122,345.877 
  "/>
<path clip-path="url(#clip000)" d="M418.561 313.877 L411.041 335.509 L388.129 335.989 L406.401 349.845 L399.745 371.765 L418.561 358.677 L437.377 371.765 L430.721 349.845 L448.993 335.989 L426.081 335.509 L418.561 313.877 Z" fill="#ffffff" fill-rule="evenodd" fill-opacity="0.8" stroke="#008000" stroke-opacity="0.8" stroke-width="5.76"/>
<path clip-path="url(#clip000)" d="M488.643 367.353 L488.643 354.693 Q488.643 353.982 488.674 353.735 Q488.705 353.488 488.89 353.303 Q489.075 353.118 489.446 353.118 Q490.156 353.118 490.218 353.766 Q490.403 360.035 494.139 363.493 Q497.814 366.921 504.113 366.921 Q507.912 366.921 510.258 364.203 Q512.605 361.455 512.605 357.873 Q512.605 354.446 510.629 352.037 Q509.795 350.956 508.745 350.277 Q507.726 349.567 507.078 349.351 Q506.46 349.134 505.256 348.826 Q497.413 346.942 496.919 346.726 Q493.182 345.46 490.897 342.279 Q488.643 339.068 488.643 335.146 Q488.643 330.082 492.194 326.5 Q495.776 322.887 500.964 322.887 Q503.558 322.887 505.719 323.721 Q507.912 324.524 508.807 325.265 Q509.702 326.006 511.092 327.334 L513.284 323.721 Q513.779 322.887 514.242 322.887 Q514.736 322.887 514.828 323.196 Q514.952 323.474 514.952 324.4 L514.952 337.122 Q514.952 337.833 514.921 338.08 Q514.89 338.327 514.674 338.481 Q514.489 338.635 514.118 338.635 Q513.501 338.635 513.346 337.894 Q511.586 324.678 501.025 324.678 Q497.413 324.678 495.035 327.118 Q492.688 329.526 492.688 332.954 Q492.688 335.733 494.417 338.018 Q496.147 340.272 499.08 340.982 L507.17 342.928 Q511.216 343.885 513.933 347.467 Q516.65 351.049 516.65 355.712 Q516.65 361.085 513.13 364.975 Q509.641 368.866 504.175 368.866 Q500.253 368.866 497.227 367.569 Q494.201 366.272 492.565 364.45 Q491.298 366.55 490.465 367.724 L490.279 368.032 Q489.785 368.866 489.322 368.866 Q488.828 368.866 488.736 368.557 Q488.643 368.249 488.643 367.353 Z" fill="#000000" fill-rule="evenodd" fill-opacity="1" /><path clip-path="url(#clip000)" d="M522.27 367.477 L522.27 365.531 L523.783 365.531 Q527.211 365.531 527.983 364.975 Q528.786 364.389 528.786 362.536 L528.786 329.217 Q528.786 327.395 527.983 326.84 Q527.18 326.253 523.783 326.253 L522.27 326.253 L522.27 324.277 Q524.494 324.462 531.627 324.462 Q538.698 324.462 540.921 324.277 L540.921 326.253 L539.408 326.253 Q535.981 326.253 535.178 326.84 Q534.406 327.395 534.406 329.217 L534.406 349.32 L554.199 330.422 Q555.342 329.403 555.342 328.322 Q555.342 327.951 555.157 327.55 Q555.002 327.118 554.261 326.685 Q553.551 326.253 552.408 326.253 L552.408 324.277 Q554.57 324.462 560.468 324.462 Q564.204 324.462 565.841 324.277 L565.841 326.253 Q560.591 326.315 556.855 330.051 L545.461 340.982 L560.066 362.474 Q561.394 364.42 562.691 364.975 Q563.988 365.531 566.705 365.531 L566.705 367.477 Q562.722 367.291 559.449 367.291 Q552.625 367.291 550.401 367.477 L550.401 365.531 Q554.138 365.531 554.138 363.617 Q554.138 362.906 553.18 361.455 L541.724 344.533 L534.406 351.481 L534.406 362.536 Q534.406 364.358 535.178 364.945 Q535.981 365.531 539.408 365.531 L540.921 365.531 L540.921 367.477 Q538.698 367.291 531.565 367.291 Q524.494 367.291 522.27 367.477 Z" fill="#000000" fill-rule="evenodd" fill-opacity="1" /><path clip-path="url(#clip000)" d="M571.955 358.954 Q571.955 357.07 573.036 356.175 Q574.117 355.279 575.506 355.279 Q576.957 355.279 577.976 356.237 Q579.026 357.163 579.026 358.8 Q579.026 360.56 577.791 361.548 Q576.587 362.536 574.858 362.289 Q576.371 364.821 579.15 365.964 Q581.96 367.106 584.554 367.106 Q587.271 367.106 589.463 364.759 Q591.687 362.412 591.687 356.669 Q591.687 351.79 589.772 348.98 Q587.889 346.17 584.152 346.17 L581.373 346.17 Q580.416 346.17 580.138 346.077 Q579.86 345.985 579.86 345.46 Q579.86 344.842 580.817 344.719 Q581.775 344.719 583.288 344.533 Q586.962 344.41 588.908 341.229 Q590.668 338.265 590.668 334.034 Q590.668 330.175 588.815 328.569 Q586.993 326.932 584.615 326.932 Q582.392 326.932 579.953 327.859 Q577.513 328.785 576.185 330.854 Q580.107 330.854 580.107 334.034 Q580.107 335.424 579.212 336.35 Q578.347 337.246 576.896 337.246 Q575.506 337.246 574.58 336.381 Q573.653 335.486 573.653 333.973 Q573.653 330.36 576.865 327.859 Q580.107 325.357 584.862 325.357 Q589.556 325.357 593.015 327.828 Q596.504 330.298 596.504 334.096 Q596.504 337.833 594.034 340.89 Q591.563 343.947 587.642 345.213 Q592.459 346.17 595.331 349.443 Q598.202 352.685 598.202 356.669 Q598.202 361.61 594.312 365.253 Q590.421 368.866 584.739 368.866 Q579.489 368.866 575.722 366.025 Q571.955 363.184 571.955 358.954 Z" fill="#000000" fill-rule="evenodd" fill-opacity="1" /><path clip-path="url(#clip000)" d="M602.68 357.039 L602.68 355.094 L622.103 325.419 Q622.597 324.647 623.369 324.678 Q624.079 324.678 624.233 324.956 Q624.388 325.234 624.388 326.315 L624.388 355.094 L630.718 355.094 L630.718 357.039 L624.388 357.039 L624.388 362.536 Q624.388 364.358 625.129 364.945 Q625.901 365.531 629.174 365.531 L630.502 365.531 L630.502 367.477 Q627.908 367.291 621.918 367.291 Q615.958 367.291 613.364 367.477 L613.364 365.531 L614.692 365.531 Q617.965 365.531 618.737 364.975 Q619.509 364.389 619.509 362.536 L619.509 357.039 L602.68 357.039 M604.471 355.094 L619.879 355.094 L619.879 331.502 L604.471 355.094 Z" fill="#000000" fill-rule="evenodd" fill-opacity="1" /><path clip-path="url(#clip000)" d="M636.091 346.046 Q636.091 336.381 642.267 329.65 Q648.474 322.887 657.089 322.887 Q665.766 322.887 671.942 329.65 Q678.149 336.412 678.149 346.046 Q678.149 355.588 671.942 362.227 Q665.735 368.866 657.089 368.866 Q648.566 368.866 642.329 362.258 Q636.091 355.65 636.091 346.046 M642.607 345.151 Q642.607 351.018 643.996 355.526 Q645.386 360.004 647.609 362.443 Q649.863 364.883 652.272 366.056 Q654.68 367.23 657.151 367.23 Q659.559 367.23 661.906 366.087 Q664.284 364.945 666.538 362.536 Q668.792 360.127 670.213 355.619 Q671.633 351.111 671.633 345.151 Q671.633 340.519 670.645 336.814 Q669.657 333.077 668.113 330.823 Q666.569 328.569 664.562 327.087 Q662.585 325.604 660.702 325.049 Q658.849 324.462 657.089 324.462 Q654.866 324.462 652.55 325.45 Q650.234 326.438 647.887 328.631 Q645.571 330.792 644.089 335.084 Q642.607 339.346 642.607 345.151 Z" fill="#000000" fill-rule="evenodd" fill-opacity="1" /><path clip-path="url(#clip000)" d="M683.892 367.477 L683.892 365.531 L685.405 365.531 Q688.833 365.531 689.605 364.975 Q690.408 364.389 690.408 362.536 L690.408 329.217 Q690.408 327.395 689.605 326.84 Q688.802 326.253 685.405 326.253 L683.892 326.253 L683.892 324.277 L706.218 324.277 Q712.61 324.277 716.871 327.797 Q721.132 331.317 721.132 336.042 Q721.132 340.735 716.778 344.132 Q712.455 347.498 706.712 347.498 L696.028 347.498 L696.028 362.536 Q696.028 364.358 696.8 364.945 Q697.602 365.531 701.03 365.531 L702.543 365.531 L702.543 367.477 Q700.32 367.291 693.187 367.291 Q686.115 367.291 683.892 367.477 M695.842 345.861 L704.55 345.861 Q707.391 345.861 709.46 345.058 Q711.529 344.255 712.455 343.298 Q713.413 342.31 713.938 340.735 Q714.493 339.13 714.555 338.265 Q714.617 337.369 714.617 336.042 Q714.617 334.652 714.555 333.787 Q714.493 332.892 713.938 331.317 Q713.413 329.711 712.455 328.754 Q711.529 327.766 709.46 327.025 Q707.422 326.253 704.55 326.253 L698.93 326.253 Q696.769 326.253 696.305 326.685 Q695.842 327.118 695.842 328.785 L695.842 345.861 Z" fill="#000000" fill-rule="evenodd" fill-opacity="1" /><path clip-path="url(#clip000)" d="M726.413 326.253 L726.413 324.277 L735.522 323.597 L735.522 343.638 Q739.197 339.531 744.199 339.531 Q749.634 339.531 753.617 343.7 Q757.601 347.868 757.601 353.828 Q757.601 359.849 753.432 364.018 Q749.263 368.187 743.489 368.187 Q738.239 368.187 735.213 363.555 Q732.99 367.415 732.928 367.477 L731.353 367.477 L731.353 329.773 Q731.353 327.426 730.52 326.84 Q729.686 326.253 726.413 326.253 M735.707 360.282 Q735.707 361.61 736.603 362.937 Q739.104 366.766 743.18 366.766 Q743.211 366.766 743.242 366.766 Q747.658 366.766 750.406 362.721 Q752.351 359.695 752.351 353.766 Q752.351 347.899 750.529 344.966 Q747.997 340.921 743.89 340.921 Q739.258 340.921 736.418 344.966 Q735.707 345.985 735.707 347.251 L735.707 360.282 Z" fill="#000000" fill-rule="evenodd" fill-opacity="1" /></svg>
